<svg width="24" height="24" viewBox="0 0 24 24" fill="none" xmlns="http://www.w3.org/2000/svg">
<g clip-path="url(#clip0_1376_23754)">
<path d="M12 24C18.6274 24 24 18.6274 24 12C24 5.37258 18.6274 0 12 0C5.37258 0 0 5.37258 0 12C0 18.6274 5.37258 24 12 24Z" fill="#FECB32"/>
<path fill-rule="evenodd" clip-rule="evenodd" d="M3.7415 8.19389L3.52777 9.02005L7.78305 7.17334L3.7415 8.19389Z" fill="#FF7200"/>
<path d="M3.73041 10.5146V11.0497H5.12085V9.25L3.73041 10.5146Z" fill="#D43264"/>
<path d="M3.73041 10.5165V11.0497H4.86772V9.57764L3.73041 10.5165Z" fill="#FF7200"/>
<path d="M14.3809 6.89983C14.4627 6.87754 14.6188 6.85522 14.8492 6.85522C15.4142 6.85522 15.7338 7.13037 15.7338 7.59144C15.7338 8.10458 15.3621 8.40949 14.76 8.40949C14.5965 8.40949 14.4775 8.40206 14.3809 8.37974V6.89983ZM13.2585 11.0495H14.3809V9.25728C14.485 9.27215 14.6188 9.27958 14.7675 9.27958C15.4365 9.27958 16.0088 9.11598 16.3954 8.75157C16.6927 8.46896 16.8562 8.05252 16.8562 7.5617C16.8562 7.07089 16.6407 6.65444 16.321 6.40159C15.9865 6.13386 15.4885 6 14.7898 6C14.0984 6 13.6078 6.04463 13.2585 6.10411V11.0495Z" fill="#005EC2"/>
<path d="M20.0965 8.00782H18.253V6.96671H20.2079V6.03711H17.1157V11.0494H20.312V10.1199H18.253V8.92997H20.0965V8.00782Z" fill="#005EC2"/>
<path d="M3.73041 6.03711V8.81162L4.42475 8.5302L7.78679 7.16754C7.43569 7.45739 7.08458 7.74725 6.73349 8.03709V11.0494H7.86337V6.03711H6.73349C6.73349 6.37113 6.73349 6.70517 6.73349 7.0392C6.73349 7.21847 6.64498 7.45739 6.24154 7.53382L4.86773 7.79415V6.03711H3.73041Z" fill="#005EC2"/>
<path fill-rule="evenodd" clip-rule="evenodd" d="M10.5366 6.08887C11.9657 6.08887 13.1241 7.24787 13.1241 8.67757C13.1241 10.1073 11.9657 11.2663 10.5366 11.2663C9.10752 11.2663 7.94904 10.1073 7.94904 8.67757C7.94904 7.24787 9.10752 6.08887 10.5366 6.08887ZM10.5366 7.34927C11.2699 7.34927 11.8643 7.94398 11.8643 8.67757C11.8643 9.41116 11.2698 10.0059 10.5366 10.0059C9.80334 10.0059 9.20889 9.41114 9.20889 8.67757C9.20889 7.94398 9.80334 7.34927 10.5366 7.34927Z" fill="#005EC2"/>
<path d="M3.87909 12.4895V11.864H4.11803C4.16001 11.864 4.19212 11.866 4.21438 11.87C4.24546 11.8751 4.27154 11.8848 4.29261 11.8991C4.31367 11.9135 4.33062 11.9336 4.34344 11.9594C4.35626 11.9851 4.36259 12.0135 4.36259 12.0445C4.36259 12.0975 4.34549 12.1425 4.31118 12.1792C4.277 12.216 4.21498 12.2344 4.12542 12.2344H3.96309V12.4895H3.87912H3.87909ZM3.96306 12.161H4.12658C4.1808 12.161 4.21909 12.1511 4.24192 12.1312C4.2646 12.1112 4.27595 12.0833 4.27595 12.047C4.27595 12.0209 4.26932 11.9985 4.25591 11.9799C4.24252 11.9612 4.22483 11.9489 4.20303 11.9429C4.18888 11.9393 4.16282 11.9374 4.12495 11.9374H3.96304L3.96306 12.161ZM4.92893 12.4895L5.17171 11.864H5.26378L5.52143 12.4895H5.42612L5.35291 12.2999H5.08642L5.01777 12.4895H4.92893ZM5.111 12.2326H5.32667L5.26069 12.0592C5.2408 12.0065 5.22577 11.963 5.21531 11.9286C5.20662 11.9694 5.19499 12.0094 5.1804 12.049L5.111 12.2326ZM6.29595 12.4895V12.2245L6.05199 11.864H6.15275L6.27782 12.0533C6.3011 12.0883 6.32274 12.1234 6.3425 12.1585C6.3618 12.1258 6.38522 12.0891 6.41248 12.0483L6.53504 11.864H6.63271L6.37992 12.2245V12.4895H6.29595ZM7.30057 12.4895V11.864H7.42609L7.57576 12.3067C7.58962 12.3479 7.59963 12.3788 7.60596 12.3993C7.61318 12.3766 7.62452 12.3432 7.63984 12.299L7.79217 11.864H7.90428V12.4895H7.82384V11.9662L7.63911 12.4895H7.56368L7.38102 11.9566V12.4895L7.30057 12.4895ZM8.63562 12.4895V11.864H9.0926V11.9374H8.71959V12.1296H9.06872V12.2029H8.71959V12.4161H9.10761V12.4895H8.63562ZM9.81778 12.4895V11.864H9.9038L10.2358 12.3549V11.864H10.3163V12.4895H10.2303L9.8982 11.9985V12.4895H9.81778ZM11.2131 12.4895V11.9374H11.0045V11.864H11.5056V11.9374H11.297V12.4895H11.2131ZM12.6352 12.2885L12.7139 12.2816C12.7176 12.313 12.7262 12.3388 12.7399 12.359C12.7537 12.3791 12.7748 12.3954 12.8036 12.4079C12.8323 12.4203 12.8647 12.4266 12.9007 12.4266C12.9326 12.4266 12.9608 12.4219 12.9852 12.4125C13.0097 12.403 13.0278 12.39 13.0397 12.3736C13.0517 12.3571 13.0577 12.3392 13.0577 12.32C13.0577 12.3005 13.052 12.2835 13.0405 12.2688C13.029 12.2542 13.01 12.242 12.9835 12.2319C12.9665 12.2255 12.9289 12.2153 12.8708 12.2015C12.8126 12.1877 12.7719 12.1747 12.7486 12.1625C12.7184 12.1468 12.696 12.1272 12.6813 12.1041C12.6664 12.0809 12.6591 12.0549 12.6591 12.0262C12.6591 11.9945 12.6682 11.9649 12.6863 11.9375C12.7044 11.91 12.7308 11.8892 12.7657 11.8749C12.8005 11.8607 12.8392 11.8535 12.8818 11.8535C12.9286 11.8535 12.97 11.861 13.0058 11.8759C13.0416 11.8908 13.0692 11.9128 13.0885 11.9419C13.1078 11.9709 13.1181 12.0038 13.1196 12.0405L13.0391 12.0466C13.0348 12.0071 13.0203 11.9773 12.9954 11.9572C12.9705 11.9369 12.9337 11.9269 12.885 11.9269C12.8344 11.9269 12.7974 11.9361 12.7743 11.9544C12.7511 11.9728 12.7395 11.9949 12.7395 12.0208C12.7395 12.0433 12.7478 12.0617 12.7641 12.0763C12.7803 12.0907 12.8223 12.1057 12.8904 12.1208C12.9584 12.1361 13.0051 12.1494 13.0305 12.1607C13.0671 12.1775 13.0944 12.1986 13.1119 12.2244C13.1295 12.25 13.1381 12.2795 13.1381 12.313C13.1381 12.3464 13.1286 12.3775 13.1093 12.4069C13.09 12.4363 13.0624 12.4592 13.0263 12.4755C12.9902 12.4918 12.9497 12.5 12.9045 12.5C12.8473 12.5 12.7995 12.4917 12.7609 12.4752C12.7221 12.4588 12.6919 12.434 12.67 12.4008C12.6479 12.3678 12.6364 12.3304 12.6352 12.2886V12.2885ZM13.8492 12.4895V11.864H14.3061V11.9374H13.9331V12.1296H14.2823V12.2029H13.9331V12.4161H14.3212V12.4895H13.8492ZM15.034 12.4895V11.864H15.3145C15.3709 11.864 15.4138 11.8697 15.4431 11.8809C15.4724 11.8921 15.4958 11.9119 15.5133 11.9403C15.5309 11.9687 15.5396 12.0001 15.5396 12.0345C15.5396 12.0789 15.525 12.1163 15.496 12.1467C15.4669 12.1771 15.4222 12.1964 15.3615 12.2047C15.3837 12.2152 15.4005 12.2256 15.412 12.2358C15.4364 12.258 15.4596 12.2858 15.4812 12.3191L15.5907 12.4895H15.4861L15.4024 12.3593C15.3781 12.3216 15.3579 12.2929 15.3422 12.273C15.3262 12.253 15.3121 12.2392 15.2996 12.2312C15.2872 12.2233 15.2744 12.2178 15.2614 12.2146C15.252 12.2127 15.2365 12.2117 15.2149 12.2117H15.118V12.4895L15.034 12.4895ZM15.1179 12.14H15.2977C15.336 12.14 15.3657 12.1361 15.3872 12.1282C15.4088 12.1205 15.4251 12.108 15.4361 12.0907C15.4473 12.0735 15.4529 12.0549 15.4529 12.0346C15.4529 12.0051 15.4422 11.9806 15.4205 11.9615C15.3989 11.9425 15.3647 11.933 15.318 11.933H15.118L15.1179 12.14ZM16.4302 12.4895L16.1856 11.864H16.2764L16.4408 12.3185C16.4539 12.3549 16.4651 12.389 16.4739 12.4209C16.4836 12.3867 16.495 12.3526 16.5079 12.3185L16.6785 11.864H16.764L16.5172 12.4895H16.4302ZM17.4488 12.4895V11.864H17.585V12.4895H17.4488ZM18.7262 12.2701L18.8102 12.291C18.7927 12.359 18.7611 12.4107 18.7156 12.4464C18.6701 12.4821 18.6144 12.5 18.5486 12.5C18.4805 12.5 18.4251 12.4863 18.3824 12.4588C18.3397 12.4314 18.3073 12.3916 18.285 12.3397C18.2628 12.2875 18.2516 12.2318 18.2516 12.1721C18.2516 12.107 18.2641 12.0502 18.2893 12.0017C18.3145 11.9533 18.3503 11.9164 18.3967 11.8912C18.4431 11.8661 18.4942 11.8535 18.5499 11.8535C18.6132 11.8535 18.6664 11.8694 18.7094 11.9013C18.7526 11.9332 18.7826 11.9779 18.7996 12.0355L18.7174 12.0547C18.7028 12.0093 18.6814 11.9761 18.6536 11.9554C18.6257 11.9346 18.5907 11.9243 18.5484 11.9243C18.4999 11.9243 18.4593 11.9358 18.4267 11.9588C18.3942 11.9818 18.3712 12.0128 18.3581 12.0515C18.3448 12.0904 18.3382 12.1304 18.3382 12.1716C18.3382 12.2248 18.346 12.2712 18.3616 12.3108C18.3772 12.3506 18.4015 12.3801 18.4345 12.3998C18.4675 12.4194 18.5032 12.4292 18.5416 12.4292C18.5885 12.4292 18.6279 12.4158 18.6604 12.3891C18.6928 12.3624 18.7147 12.3227 18.7262 12.27L18.7262 12.2701ZM19.5108 12.4895V11.864H19.9677V11.9374H19.5947V12.1296H19.9439V12.2029H19.5947V12.4161H19.9827V12.4895H19.5108Z" fill="#4B4B4D"/>
<path d="M3.5863 17.9997H5.45636C6.48712 17.9997 7.34114 17.5714 7.34114 16.5819C7.34114 15.9468 7.00248 15.5923 6.32514 15.4594V15.4299C6.88469 15.2822 7.12028 14.8096 7.12028 14.396C7.12028 13.4508 6.31042 13.1997 5.30912 13.1997H3.5863V17.9997ZM4.85265 15.0902V14.1745H5.27966C5.69197 14.1745 5.88339 14.2926 5.88339 14.588C5.88339 14.8834 5.69197 15.0902 5.27966 15.0902H4.85265ZM4.85265 17.0249V15.9763H5.36803C5.86867 15.9763 6.10425 16.124 6.10425 16.4785C6.10425 16.8329 5.86866 17.0249 5.36803 17.0249H4.85265ZM8.97852 15.9985L9.05951 15.6662C9.17145 15.2068 9.2951 14.6323 9.39817 14.1449H9.42763C9.54543 14.6249 9.6691 15.2069 9.78102 15.6662L9.86201 15.9985H8.97852ZM10.3258 17.9997H11.6658L10.208 13.1997H8.67664L7.21888 17.9997H8.51466L8.75026 16.9806H10.0902L10.3258 17.9997H10.3258ZM11.9868 17.9997H13.1943V16.6114C13.1943 16.0206 13.0912 15.3265 13.0323 14.78H13.0618L13.5182 15.8508L14.5784 17.9997H15.8742V13.1997H14.6668V14.588C14.6668 15.1785 14.7698 15.9025 14.8288 16.4194H14.7993L14.3428 15.3412L13.2826 13.1997H11.9868V17.9997ZM16.2841 17.9997H17.5504V16.8034L18.0069 16.1535L19.0671 17.9997H20.4512L18.7431 15.1492L20.1714 13.1997H18.7873L17.5799 14.9868H17.5504V13.1997H16.2841V17.9997Z" fill="#005EC2"/>
</g>
<defs>
<clipPath id="clip0_1376_23754">
<rect width="24" height="24" fill="white"/>
</clipPath>
</defs>
</svg>
