<svg width="12" height="14" viewBox="0 0 12 14" fill="none" xmlns="http://www.w3.org/2000/svg">
<g id="c++">
<path id="vector" d="M11.8473 10.5C11.9415 10.3309 12 10.1404 12 9.96927V4.03065C12 3.85956 11.9416 3.66909 11.8474 3.5L6 6.99998L11.8473 10.5Z" fill="#00599C"/>
<path id="vector_2" d="M6.51977 13.8717L11.4806 10.9024C11.6235 10.8168 11.7533 10.6691 11.8475 10.5L6.00016 7L0.152832 10.5C0.246989 10.6691 0.37691 10.8169 0.519773 10.9024L5.48056 13.8717C5.76632 14.0427 6.23401 14.0427 6.51977 13.8717Z" fill="#004482"/>
<path id="vector_3" d="M11.8474 3.49998C11.7532 3.33085 11.6233 3.18314 11.4804 3.0976L6.51961 0.128311C6.23384 -0.0427704 5.76616 -0.0427704 5.48039 0.128311L0.519608 3.0976C0.233804 3.26865 0 3.68854 0 4.03067V9.96929C0 10.1404 0.0584706 10.3309 0.152667 10.5L6 7L11.8474 3.49998Z" fill="#659AD2"/>
<path id="c" d="M6.01925 11C3.80303 11 2 9.20561 2 7C2 4.79439 3.80303 3 6.01925 3C7.42289 3 8.73372 3.73784 9.45952 4.93089L7.73826 5.96323C7.37461 5.36799 6.71994 5 6.01925 5C4.91112 5 4.00963 5.89718 4.00963 7C4.00963 8.10279 4.91112 9 6.01925 9C6.71808 9 7.37105 8.63405 7.73534 8.04161L9.46026 9.06795C8.73458 10.2617 7.42337 11 6.01925 11Z" fill="white"/>
<path id="+" d="M9.5 6.74738H8.99997V6.25H8.50003V6.74738H8V7.24476H8.50003V7.74219H8.99997V7.24476H9.5V6.74738Z" fill="white"/>
<path id="+_2" d="M11.5 6.74998H11V6.25H10.5V6.74998H10V7.24997H10.5V7.75H11V7.24997H11.5V6.74998Z" fill="white"/>
</g>
</svg>
