<svg width="16" height="16" viewBox="0 0 16 16" fill="none" xmlns="http://www.w3.org/2000/svg">
<g id="go">
<g id="gp">
<path fill-rule="evenodd" clip-rule="evenodd" d="M9.05885 7.02212C8.87042 7.07483 8.6793 7.12829 8.45811 7.18842C8.35003 7.21901 8.32547 7.22594 8.22491 7.10371C8.10428 6.95971 8.01583 6.86653 7.84696 6.78182C7.34035 6.51922 6.84982 6.59545 6.39146 6.90888C5.84464 7.28161 5.56319 7.83222 5.57123 8.51837C5.57927 9.19605 6.02155 9.75514 6.65683 9.84832C7.20364 9.92456 7.66201 9.72125 8.02387 9.28923C8.09621 9.19609 8.16062 9.09433 8.24099 8.9758H6.68899C6.52012 8.9758 6.47991 8.86568 6.5362 8.72167C6.64074 8.45907 6.83374 8.01858 6.94632 7.79834C6.97044 7.74751 7.02673 7.6628 7.14735 7.6628H9.73512C9.85134 7.2748 10.04 6.90818 10.2916 6.56129C10.8786 5.74807 11.5862 5.32452 12.5432 5.14663C13.3634 4.99415 14.1354 5.07886 14.835 5.57865C15.4702 6.03608 15.8643 6.65447 15.9688 7.46768C16.1055 8.61127 15.7919 9.54308 15.044 10.3393C14.5133 10.9069 13.862 11.2627 13.1141 11.4236C12.9714 11.4515 12.8288 11.4647 12.6884 11.4777C12.6151 11.4844 12.5425 11.4912 12.4708 11.4999C11.739 11.4829 11.0716 11.2627 10.5087 10.7544C10.1128 10.394 9.84013 9.95096 9.7046 9.43523C9.61054 9.63533 9.49808 9.82696 9.36679 10.0093C8.78781 10.814 8.03191 11.3138 7.07498 11.4493C6.28692 11.5595 5.55515 11.3985 4.91183 10.8902C4.31677 10.4159 3.97903 9.78902 3.89057 9.00969C3.78603 8.08635 4.04336 7.25619 4.57409 6.52769C5.14503 5.73988 5.90093 5.2401 6.8257 5.0622C7.58159 4.9182 8.30532 5.01138 8.95668 5.47728C9.38287 5.77377 9.68845 6.18038 9.88948 6.67169C9.93773 6.74793 9.90557 6.79029 9.80907 6.8157C9.52724 6.8911 9.29513 6.95603 9.05885 7.02212ZM14.3791 7.987C14.3806 8.01545 14.3823 8.04544 14.3846 8.07759C14.3444 8.8061 13.9987 9.34824 13.3634 9.69555C12.9372 9.92427 12.4949 9.94968 12.0526 9.74638C11.4736 9.47531 11.1681 8.8061 11.3128 8.14536C11.4897 7.34909 11.9722 6.8493 12.7201 6.67141C13.484 6.48505 14.2158 6.95942 14.3605 7.79805C14.3719 7.85803 14.3752 7.918 14.3791 7.987Z" fill="#00ACD7"/>
<path d="M1.2223 6.92586C1.20622 6.95127 1.21426 6.96821 1.24643 6.96821L3.6413 6.97668C3.66542 6.97668 3.70563 6.95127 3.72171 6.92586L3.85842 6.70561C3.8745 6.6802 3.86646 6.65479 3.83429 6.65479H1.47963C1.44746 6.65479 1.40726 6.67173 1.39117 6.69714L1.2223 6.92586Z" fill="#00ACD7"/>
<path d="M0.00804144 7.70515C-0.00804144 7.73056 3.72529e-09 7.74751 0.0321658 7.74751L3.31964 7.73904C3.3518 7.73904 3.38397 7.72209 3.39201 7.68821L3.45634 7.48491C3.46438 7.45949 3.4483 7.43408 3.41614 7.43408H0.265368C0.233202 7.43408 0.192995 7.45102 0.176912 7.47643L0.00804144 7.70515Z" fill="#00ACD7"/>
<path d="M1.95406 8.47604C1.93798 8.50145 1.94602 8.52687 1.97819 8.52687L3.21509 8.53534C3.23922 8.53534 3.27138 8.50993 3.27138 8.47604L3.28747 8.27274C3.28747 8.23885 3.27138 8.21344 3.23922 8.21344H2.14706C2.11489 8.21344 2.08273 8.23885 2.06664 8.26427L1.95406 8.47604Z" fill="#00ACD7"/>
</g>
</g>
</svg>
