<svg width="16" height="16" viewBox="0 0 16 16" fill="none" xmlns="http://www.w3.org/2000/svg">
<g id="js">
<rect id="bg" x="1" y="1" width="14" height="14" fill="#FFCA28"/>
<g id="js_2">
<path d="M9.5 12.6434L10.5308 11.9614C10.6115 12.2152 11.1231 12.8179 11.7692 12.8179C12.4154 12.8179 12.7154 12.465 12.7154 12.231C12.7154 11.5934 12.0556 11.3686 11.7387 11.2607C11.687 11.2431 11.6445 11.2286 11.6154 11.2159C11.6005 11.2094 11.5779 11.2008 11.5489 11.1897C11.1965 11.055 9.89615 10.5582 9.89615 9.11818C9.89615 7.53202 11.4269 7.34961 11.7731 7.34961C11.9995 7.34961 13.0885 7.37737 13.6308 8.39648L12.6308 9.09439C12.4115 8.65027 12.0473 8.50355 11.8231 8.50355C11.2692 8.50355 11.1538 8.90958 11.1538 9.09439C11.1538 9.613 11.7556 9.84544 12.2637 10.0417C12.3966 10.0931 12.5231 10.1419 12.6308 10.1928C13.1846 10.4545 14 10.8828 14 12.231C14 12.9063 13.4336 13.9996 12.0077 13.9996C10.0923 13.9996 9.58462 12.8496 9.5 12.6434Z" fill="#3E3E3E"/>
<path d="M4.5 12.7789L5.57434 12.0972C5.65852 12.3508 5.98563 12.8185 6.46026 12.8185C6.9349 12.8185 7.17783 12.331 7.17783 12.0972V7.49961H8.4991V12.0972C8.52048 12.7313 8.16878 13.9996 6.6166 13.9996C5.1895 13.9996 4.59621 13.1514 4.5 12.7789Z" fill="#3E3E3E"/>
</g>
</g>
</svg>
