<svg width="14" height="14" viewBox="0 0 14 14" fill="none" xmlns="http://www.w3.org/2000/svg">
<g id="Airbnb">
<path id="Path" d="M7 0C3.13906 0 0 3.13906 0 7C0 10.8609 3.13906 14 7 14C10.8609 14 14 10.8609 14 7C14 3.13906 10.8609 0 7 0Z" fill="#FF5A5F"/>
<path id="vector" d="M7.00016 8.84336C6.54123 8.26608 6.27128 7.76006 6.18129 7.3271C6.0913 6.97532 6.1273 6.6957 6.28027 6.48825C6.44225 6.24471 6.68521 6.12745 7.00016 6.12745C7.31511 6.12745 7.55808 6.24471 7.72005 6.48825C7.87303 6.6957 7.90902 6.97532 7.81904 7.3271C7.72005 7.76908 7.45009 8.2742 7.00016 8.84336ZM9.51257 10.1783C8.74769 10.512 7.99091 9.97987 7.34301 9.25827C8.41474 7.9134 8.61271 6.86708 8.15288 6.18969C7.88293 5.80183 7.49599 5.61241 7.00016 5.61241C6.00132 5.61241 5.4515 6.46028 5.66747 7.44436C5.79345 7.97654 6.1264 8.58178 6.65732 9.25827C6.25909 9.7006 5.73664 10.2023 5.10956 10.2595C4.2007 10.3948 3.48891 9.51083 3.81286 8.59892L6.1174 3.81654C6.31409 3.45701 6.55685 3.14906 6.99926 3.14906C7.32321 3.14906 7.57517 3.33848 7.68316 3.49182L10.1857 8.59892C10.4309 9.216 10.1199 9.91542 9.51257 10.1783ZM10.6734 8.41852L8.53083 3.95184C8.12589 3.122 7.83793 2.625 7.00016 2.625C6.17229 2.625 5.82045 3.20228 5.4605 3.95184L3.32693 8.41852C2.868 9.68221 3.81286 10.7917 4.95658 10.7917C5.02858 10.7917 5.10004 10.7826 5.17255 10.7826C5.76645 10.7105 6.37926 10.3316 7.00016 9.65425C7.62107 10.3307 8.23387 10.7105 8.82778 10.7826C8.90029 10.7826 8.97175 10.7917 9.04375 10.7917C10.1875 10.7926 11.1323 9.68221 10.6734 8.41852Z" fill="white"/>
</g>
</svg>
