<svg width="14" height="14" viewBox="0 0 14 14" fill="none" xmlns="http://www.w3.org/2000/svg">
<g id="python">
<path id="blue" fill-rule="evenodd" clip-rule="evenodd" d="M5.50819 0C4.40966 0 3.51912 0.862266 3.51912 1.92593V3.25926H6.96174V3.62963H1.98907C0.890537 3.62963 0 4.49189 0 5.55555L2.17363e-07 8.44444C2.17363e-07 9.5081 0.890537 10.3704 1.98907 10.3704H3.13661V8.74074C3.13661 7.67708 4.02715 6.81481 5.12568 6.81481H8.79781C9.72734 6.81481 10.4809 6.0852 10.4809 5.18518V1.92593C10.4809 0.862266 9.59033 0 8.4918 0H5.50819ZM5.04918 2.37037C5.42944 2.37037 5.7377 2.07189 5.7377 1.7037C5.7377 1.33551 5.42944 1.03704 5.04918 1.03704C4.66892 1.03704 4.36065 1.33551 4.36065 1.7037C4.36065 2.07189 4.66892 2.37037 5.04918 2.37037Z" fill="url(#paint0_linear_2202_5740)"/>
<path id="yellow" fill-rule="evenodd" clip-rule="evenodd" d="M8.49172 14.0002C9.59025 14.0002 10.4808 13.138 10.4808 12.0743V10.741L7.03817 10.741L7.03817 10.3706L12.0108 10.3706C13.1094 10.3706 13.9999 9.50835 13.9999 8.4447V5.55581C13.9999 4.49215 13.1094 3.62988 12.0108 3.62988L10.8633 3.62988V5.25951C10.8633 6.32317 9.97276 7.18544 8.87423 7.18544L5.2021 7.18544C4.27258 7.18544 3.51904 7.91505 3.51904 8.81506L3.51904 12.0743C3.51904 13.138 4.40958 14.0002 5.50811 14.0002H8.49172ZM8.95073 11.6299C8.57047 11.6299 8.26221 11.9284 8.26221 12.2965C8.26221 12.6647 8.57047 12.9632 8.95073 12.9632C9.331 12.9632 9.63926 12.6647 9.63926 12.2965C9.63926 11.9284 9.331 11.6299 8.95073 11.6299Z" fill="url(#paint1_linear_2202_5740)"/>
</g>
<defs>
<linearGradient id="paint0_linear_2202_5740" x1="5.24043" y1="0" x2="5.24043" y2="10.3704" gradientUnits="userSpaceOnUse">
<stop stop-color="#327EBD"/>
<stop offset="1" stop-color="#1565A7"/>
</linearGradient>
<linearGradient id="paint1_linear_2202_5740" x1="8.75948" y1="3.62988" x2="8.75948" y2="14.0002" gradientUnits="userSpaceOnUse">
<stop stop-color="#FFDA4B"/>
<stop offset="1" stop-color="#F9C600"/>
</linearGradient>
</defs>
</svg>
