<svg width="14" height="12" viewBox="0 0 14 12" fill="none" xmlns="http://www.w3.org/2000/svg">
<g id="r_lang">
<path id="nimb" fill-rule="evenodd" clip-rule="evenodd" d="M7 10.0714C10.866 10.0714 14 7.92879 14 5.28571C14 2.64264 10.866 0.5 7 0.5C3.13401 0.5 0 2.64264 0 5.28571C0 7.92879 3.13401 10.0714 7 10.0714ZM7.945 8.85712C10.8252 8.85712 13.16 7.92855 13.16 5.60712C13.16 3.28569 10.8252 2.35712 7.945 2.35712C5.06483 2.35712 2.73 3.81219 2.73 5.60712C2.73 7.40204 5.06483 8.85712 7.945 8.85712Z" fill="url(#paint0_linear_2202_5760)"/>
<path id="r" fill-rule="evenodd" clip-rule="evenodd" d="M10.8502 7.85762H10.6402L11.1126 8.05041C11.4862 8.20292 11.7969 8.4822 11.9924 8.84118L13.4402 11.5005H10.7802L9.53601 9.08821C9.43309 8.88867 9.29407 8.71083 9.12629 8.56408L9.04752 8.49519C8.94602 8.40642 8.81676 8.35762 8.68308 8.35762H8.12023V11.5005H5.74023V3.46476L10.8502 3.43848C11.7602 3.43848 12.7402 4.40278 12.7402 5.64806C12.7402 6.89334 11.7602 7.85762 10.8502 7.85762ZM8.19025 5.21477L9.66025 5.2157C10.0112 5.23427 10.2902 5.53056 10.2902 5.89334C10.2902 6.25613 10.0112 6.55334 9.66025 6.57191H8.19025V5.21477Z" fill="url(#paint1_linear_2202_5760)"/>
</g>
<defs>
<linearGradient id="paint0_linear_2202_5760" x1="1.435" y1="2.57143" x2="14.0548" y2="6.91208" gradientUnits="userSpaceOnUse">
<stop stop-color="#C8CBCD"/>
<stop offset="1" stop-color="#88888F"/>
</linearGradient>
<linearGradient id="paint1_linear_2202_5760" x1="13.4402" y1="11.5005" x2="4.39917" y2="3.93091" gradientUnits="userSpaceOnUse">
<stop stop-color="#185DAC"/>
<stop offset="1" stop-color="#2F72C4"/>
</linearGradient>
</defs>
</svg>
