<svg width="16" height="16" viewBox="0 0 16 16" fill="none" xmlns="http://www.w3.org/2000/svg">
<g id="swift">
<path id="swift_2" d="M11.0678 12.6358C9.41749 13.585 7.14834 13.6825 4.86539 12.7083C3.01693 11.9252 1.48319 10.5545 0.5 8.98837C0.971936 9.37991 1.52252 9.69327 2.11242 9.96721C4.47005 11.0675 6.82718 10.9922 8.486 9.97002C6.12632 8.16869 4.11813 5.81632 2.62375 3.89773C2.30899 3.58444 2.07303 3.19283 1.83706 2.84042C3.64612 4.48507 6.51717 6.56034 7.53947 7.14799C5.37676 4.8766 3.44955 2.05735 3.52805 2.13552C6.94964 5.5815 10.1354 7.53952 10.1354 7.53952C10.2407 7.59868 10.3221 7.64797 10.3875 7.69198C10.4565 7.51734 10.5169 7.33601 10.5678 7.14799C11.1184 5.15089 10.4893 2.8795 9.11271 1C12.2981 2.91876 14.186 6.52126 13.3992 9.53662C13.3787 9.61796 13.3565 9.69824 13.3324 9.77711C14.9053 11.7351 14.5004 13.8442 14.3038 13.4527C13.4505 11.7901 11.8709 12.2984 11.0678 12.6358Z" fill="url(#paint0_linear_2202_6966)"/>
</g>
<defs>
<linearGradient id="paint0_linear_2202_6966" x1="7.50515" y1="1" x2="7.50515" y2="13.5007" gradientUnits="userSpaceOnUse">
<stop stop-color="#F88A36"/>
<stop offset="1" stop-color="#FD2020"/>
</linearGradient>
</defs>
</svg>
