<svg width="181" height="56" viewBox="0 0 181 56" fill="none" xmlns="http://www.w3.org/2000/svg">
<rect x="1.27741" y="0.937531" width="179.029" height="54.1249" rx="7.633" fill="black"/>
<path fill-rule="evenodd" clip-rule="evenodd" d="M36.1378 29.0491C36.1681 26.6947 37.4024 24.52 39.4083 23.2868C38.1371 21.4714 36.0844 20.3616 33.8693 20.2923C31.5388 20.0477 29.2795 21.6869 28.0919 21.6869C26.8814 21.6869 25.0529 20.3166 23.084 20.3571C20.4934 20.4408 18.1368 21.878 16.8764 24.1429C14.1923 28.7899 16.1944 35.6195 18.7655 39.3757C20.0518 41.2151 21.5552 43.2697 23.5224 43.1968C25.4474 43.117 26.1663 41.9693 28.49 41.9693C30.792 41.9693 31.4665 43.1968 33.4736 43.1505C35.5392 43.117 36.8406 41.303 38.0819 39.4462C39.0061 38.1356 39.7173 36.6871 40.1892 35.1544C37.7359 34.1167 36.1407 31.7128 36.1378 29.0491Z" fill="white"/>
<path fill-rule="evenodd" clip-rule="evenodd" d="M32.3472 17.822C33.4734 16.4699 34.0283 14.7321 33.8939 12.9776C32.1733 13.1583 30.5839 13.9807 29.4424 15.2809C28.3153 16.5636 27.7443 18.2418 27.8551 19.9459C29.5989 19.9638 31.2545 19.181 32.3472 17.822Z" fill="white"/>
<path d="M59.7914 20.1202H56.9882V11.0363H59.9156C60.7968 11.0363 61.5508 11.2182 62.1777 11.5819C62.8046 11.9427 63.2851 12.4616 63.6193 13.1388C63.9534 13.813 64.1205 14.6202 64.1205 15.5606C64.1205 16.5068 63.9519 17.3214 63.6148 18.0045C63.2777 18.6846 62.7869 19.208 62.1422 19.5747C61.4976 19.9384 60.714 20.1202 59.7914 20.1202ZM58.0882 19.1444H59.7205C60.4715 19.1444 61.094 18.9995 61.5878 18.7098C62.0816 18.42 62.4498 18.0075 62.6922 17.4723C62.9347 16.937 63.056 16.2998 63.056 15.5606C63.056 14.8272 62.9362 14.1959 62.6967 13.6666C62.4572 13.1343 62.0994 12.7263 61.6233 12.4424C61.1472 12.1556 60.5543 12.0122 59.8446 12.0122H58.0882V19.1444ZM68.8413 20.2622C68.2262 20.2622 67.6866 20.1158 67.2223 19.8231C66.761 19.5303 66.4003 19.1208 66.14 18.5944C65.8828 18.0681 65.7542 17.453 65.7542 16.7493C65.7542 16.0396 65.8828 15.4201 66.14 14.8908C66.4003 14.3615 66.761 13.9505 67.2223 13.6577C67.6866 13.365 68.2262 13.2186 68.8413 13.2186C69.4563 13.2186 69.9945 13.365 70.4558 13.6577C70.92 13.9505 71.2808 14.3615 71.538 14.8908C71.7983 15.4201 71.9284 16.0396 71.9284 16.7493C71.9284 17.453 71.7983 18.0681 71.538 18.5944C71.2808 19.1208 70.92 19.5303 70.4558 19.8231C69.9945 20.1158 69.4563 20.2622 68.8413 20.2622ZM68.8413 19.3219C69.3085 19.3219 69.6929 19.2021 69.9945 18.9626C70.2961 18.7231 70.5194 18.4081 70.6643 18.0178C70.8091 17.6275 70.8816 17.2046 70.8816 16.7493C70.8816 16.2939 70.8091 15.8696 70.6643 15.4763C70.5194 15.083 70.2961 14.7651 69.9945 14.5226C69.6929 14.2802 69.3085 14.1589 68.8413 14.1589C68.3741 14.1589 67.9896 14.2802 67.688 14.5226C67.3864 14.7651 67.1632 15.083 67.0183 15.4763C66.8734 15.8696 66.8009 16.2939 66.8009 16.7493C66.8009 17.2046 66.8734 17.6275 67.0183 18.0178C67.1632 18.4081 67.3864 18.7231 67.688 18.9626C67.9896 19.2021 68.3741 19.3219 68.8413 19.3219ZM75.0879 20.1202L73.0121 13.3073H74.1121L75.5846 18.5235H75.6556L77.1105 13.3073H78.2282L79.6653 18.5057H79.7363L81.2089 13.3073H82.3089L80.233 20.1202H79.204L77.7137 14.8864H77.6072L76.1169 20.1202H75.0879ZM84.9893 16.0218V20.1202H83.9425V13.3073H84.9538V14.3718H85.0425C85.2022 14.0259 85.4447 13.7479 85.77 13.538C86.0952 13.3251 86.5151 13.2186 87.0297 13.2186C87.4909 13.2186 87.8946 13.3132 88.2405 13.5025C88.5865 13.6888 88.8556 13.9726 89.0478 14.3541C89.24 14.7326 89.3361 15.2116 89.3361 15.7912V20.1202H88.2893V15.8622C88.2893 15.327 88.1504 14.91 87.8724 14.6114C87.5944 14.3097 87.213 14.1589 86.728 14.1589C86.3939 14.1589 86.0952 14.2314 85.8321 14.3763C85.5718 14.5212 85.3663 14.7326 85.2155 15.0106C85.0647 15.2885 84.9893 15.6256 84.9893 16.0218ZM92.5455 11.0363V20.1202H91.4987V11.0363H92.5455ZM97.4803 20.2622C96.8652 20.2622 96.3256 20.1158 95.8613 19.8231C95.4001 19.5303 95.0393 19.1208 94.7791 18.5944C94.5218 18.0681 94.3932 17.453 94.3932 16.7493C94.3932 16.0396 94.5218 15.4201 94.7791 14.8908C95.0393 14.3615 95.4001 13.9505 95.8613 13.6577C96.3256 13.365 96.8652 13.2186 97.4803 13.2186C98.0954 13.2186 98.6335 13.365 99.0948 13.6577C99.5591 13.9505 99.9198 14.3615 100.177 14.8908C100.437 15.4201 100.567 16.0396 100.567 16.7493C100.567 17.453 100.437 18.0681 100.177 18.5944C99.9198 19.1208 99.5591 19.5303 99.0948 19.8231C98.6335 20.1158 98.0954 20.2622 97.4803 20.2622ZM97.4803 19.3219C97.9475 19.3219 98.3319 19.2021 98.6335 18.9626C98.9351 18.7231 99.1584 18.4081 99.3033 18.0178C99.4482 17.6275 99.5206 17.2046 99.5206 16.7493C99.5206 16.2939 99.4482 15.8696 99.3033 15.4763C99.1584 15.083 98.9351 14.7651 98.6335 14.5226C98.3319 14.2802 97.9475 14.1589 97.4803 14.1589C97.0131 14.1589 96.6287 14.2802 96.3271 14.5226C96.0255 14.7651 95.8022 15.083 95.6573 15.4763C95.5124 15.8696 95.44 16.2939 95.44 16.7493C95.44 17.2046 95.5124 17.6275 95.6573 18.0178C95.8022 18.4081 96.0255 18.7231 96.3271 18.9626C96.6287 19.2021 97.0131 19.3219 97.4803 19.3219ZM104.42 20.2799C103.988 20.2799 103.596 20.1986 103.245 20.036C102.893 19.8704 102.613 19.6323 102.406 19.3219C102.199 19.0084 102.096 18.6299 102.096 18.1864C102.096 17.796 102.173 17.4796 102.326 17.2372C102.48 16.9917 102.686 16.7995 102.943 16.6606C103.2 16.5216 103.484 16.4181 103.795 16.3501C104.108 16.2791 104.423 16.2229 104.739 16.1815C105.153 16.1283 105.489 16.0884 105.746 16.0618C106.006 16.0322 106.196 15.9834 106.314 15.9154C106.435 15.8474 106.496 15.7291 106.496 15.5606V15.5251C106.496 15.0874 106.376 14.7474 106.136 14.5049C105.9 14.2624 105.541 14.1412 105.059 14.1412C104.559 14.1412 104.167 14.2506 103.883 14.4694C103.599 14.6882 103.4 14.9218 103.284 15.1702L102.291 14.8154C102.468 14.4014 102.705 14.0791 103.001 13.8485C103.299 13.6148 103.625 13.4522 103.976 13.3605C104.331 13.2659 104.68 13.2186 105.023 13.2186C105.242 13.2186 105.493 13.2452 105.777 13.2984C106.064 13.3487 106.341 13.4537 106.607 13.6134C106.876 13.773 107.099 14.014 107.276 14.3364C107.454 14.6587 107.543 15.0904 107.543 15.6315V20.1202H106.496V19.1977H106.443C106.372 19.3455 106.253 19.5037 106.088 19.6723C105.922 19.8408 105.702 19.9842 105.427 20.1025C105.152 20.2208 104.816 20.2799 104.42 20.2799ZM104.58 19.3396C104.994 19.3396 105.343 19.2583 105.626 19.0956C105.913 18.933 106.129 18.7231 106.274 18.4658C106.422 18.2085 106.496 17.938 106.496 17.6541V16.696C106.451 16.7493 106.354 16.7981 106.203 16.8424C106.055 16.8838 105.884 16.9208 105.689 16.9533C105.496 16.9829 105.309 17.0095 105.125 17.0331C104.945 17.0538 104.798 17.0716 104.686 17.0864C104.414 17.1218 104.16 17.1795 103.923 17.2593C103.69 17.3362 103.5 17.453 103.355 17.6098C103.214 17.7635 103.143 17.9735 103.143 18.2396C103.143 18.6033 103.277 18.8783 103.546 19.0646C103.818 19.2479 104.163 19.3396 104.58 19.3396ZM112.276 20.2622C111.708 20.2622 111.207 20.1188 110.772 19.8319C110.337 19.5422 109.997 19.1341 109.752 18.6077C109.506 18.0784 109.384 17.453 109.384 16.7315C109.384 16.0159 109.506 15.395 109.752 14.8686C109.997 14.3423 110.339 13.9357 110.776 13.6489C111.214 13.362 111.72 13.2186 112.293 13.2186C112.737 13.2186 113.087 13.2925 113.344 13.4404C113.605 13.5853 113.803 13.7509 113.939 13.9372C114.078 14.1205 114.186 14.2713 114.263 14.3896H114.351V11.0363H115.398V20.1202H114.387V19.0735H114.263C114.186 19.1977 114.076 19.3544 113.934 19.5436C113.792 19.7299 113.59 19.897 113.327 20.0448C113.064 20.1897 112.713 20.2622 112.276 20.2622ZM112.417 19.3219C112.837 19.3219 113.192 19.2124 113.482 18.9936C113.772 18.7719 113.992 18.4658 114.143 18.0755C114.294 17.6822 114.369 17.2283 114.369 16.7138C114.369 16.2052 114.295 15.7602 114.147 15.3787C113.999 14.9943 113.781 14.6956 113.491 14.4827C113.201 14.2669 112.843 14.1589 112.417 14.1589C111.974 14.1589 111.604 14.2728 111.309 14.5005C111.016 14.7252 110.796 15.0313 110.648 15.4186C110.503 15.803 110.43 16.2347 110.43 16.7138C110.43 17.1987 110.504 17.6393 110.652 18.0356C110.803 18.4288 111.025 18.7423 111.317 18.9759C111.613 19.2065 111.98 19.3219 112.417 19.3219ZM124.241 20.2622C123.626 20.2622 123.086 20.1158 122.622 19.8231C122.161 19.5303 121.8 19.1208 121.54 18.5944C121.282 18.0681 121.154 17.453 121.154 16.7493C121.154 16.0396 121.282 15.4201 121.54 14.8908C121.8 14.3615 122.161 13.9505 122.622 13.6577C123.086 13.365 123.626 13.2186 124.241 13.2186C124.856 13.2186 125.394 13.365 125.855 13.6577C126.32 13.9505 126.68 14.3615 126.938 14.8908C127.198 15.4201 127.328 16.0396 127.328 16.7493C127.328 17.453 127.198 18.0681 126.938 18.5944C126.68 19.1208 126.32 19.5303 125.855 19.8231C125.394 20.1158 124.856 20.2622 124.241 20.2622ZM124.241 19.3219C124.708 19.3219 125.093 19.2021 125.394 18.9626C125.696 18.7231 125.919 18.4081 126.064 18.0178C126.209 17.6275 126.281 17.2046 126.281 16.7493C126.281 16.2939 126.209 15.8696 126.064 15.4763C125.919 15.083 125.696 14.7651 125.394 14.5226C125.093 14.2802 124.708 14.1589 124.241 14.1589C123.774 14.1589 123.389 14.2802 123.088 14.5226C122.786 14.7651 122.563 15.083 122.418 15.4763C122.273 15.8696 122.201 16.2939 122.201 16.7493C122.201 17.2046 122.273 17.6275 122.418 18.0178C122.563 18.4081 122.786 18.7231 123.088 18.9626C123.389 19.2021 123.774 19.3219 124.241 19.3219ZM130.222 16.0218V20.1202H129.176V13.3073H130.187V14.3718H130.276C130.435 14.0259 130.678 13.7479 131.003 13.538C131.328 13.3251 131.748 13.2186 132.263 13.2186C132.724 13.2186 133.128 13.3132 133.474 13.5025C133.82 13.6888 134.089 13.9726 134.281 14.3541C134.473 14.7326 134.569 15.2116 134.569 15.7912V20.1202H133.523V15.8622C133.523 15.327 133.384 14.91 133.106 14.6114C132.828 14.3097 132.446 14.1589 131.961 14.1589C131.627 14.1589 131.328 14.2314 131.065 14.3763C130.805 14.5212 130.6 14.7326 130.449 15.0106C130.298 15.2885 130.222 15.6256 130.222 16.0218ZM143.458 13.3073V14.1944H139.927V13.3073H143.458ZM140.956 11.6751H142.003V18.1686C142.003 18.4643 142.046 18.6861 142.131 18.834C142.22 18.9788 142.332 19.0764 142.468 19.1267C142.607 19.174 142.754 19.1977 142.908 19.1977C143.023 19.1977 143.117 19.1917 143.191 19.1799C143.265 19.1651 143.324 19.1533 143.369 19.1444L143.582 20.0848C143.511 20.1114 143.412 20.138 143.285 20.1646C143.157 20.1942 142.996 20.209 142.801 20.209C142.505 20.209 142.216 20.1454 141.932 20.0182C141.651 19.8911 141.417 19.6974 141.231 19.4372C141.048 19.177 140.956 18.8487 140.956 18.4525V11.6751ZM146.475 16.0218V20.1202H145.428V11.0363H146.475V14.3718H146.564C146.723 14.02 146.963 13.7405 147.282 13.5335C147.605 13.3236 148.033 13.2186 148.569 13.2186C149.033 13.2186 149.439 13.3118 149.788 13.498C150.137 13.6814 150.408 13.9638 150.6 14.3452C150.795 14.7237 150.893 15.2057 150.893 15.7912V20.1202H149.846V15.8622C149.846 15.321 149.706 14.9026 149.425 14.6069C149.147 14.3083 148.761 14.1589 148.267 14.1589C147.924 14.1589 147.617 14.2314 147.344 14.3763C147.075 14.5212 146.862 14.7326 146.706 15.0106C146.552 15.2885 146.475 15.6256 146.475 16.0218ZM155.914 20.2622C155.258 20.2622 154.691 20.1173 154.215 19.8275C153.742 19.5348 153.377 19.1267 153.12 18.6033C152.865 18.077 152.738 17.4649 152.738 16.767C152.738 16.0692 152.865 15.4541 153.12 14.9218C153.377 14.3866 153.735 13.9697 154.193 13.671C154.654 13.3694 155.193 13.2186 155.808 13.2186C156.163 13.2186 156.513 13.2777 156.859 13.396C157.205 13.5143 157.52 13.7065 157.804 13.9726C158.088 14.2358 158.314 14.5847 158.482 15.0194C158.651 15.4541 158.735 15.9893 158.735 16.6251V17.0686H153.484V16.1638H157.671C157.671 15.7794 157.594 15.4364 157.44 15.1347C157.289 14.8331 157.073 14.5951 156.792 14.4206C156.514 14.2462 156.186 14.1589 155.808 14.1589C155.391 14.1589 155.03 14.2624 154.725 14.4694C154.424 14.6735 154.192 14.9396 154.029 15.2678C153.866 15.596 153.785 15.9479 153.785 16.3235V16.9267C153.785 17.4412 153.874 17.8774 154.051 18.2352C154.232 18.59 154.481 18.8606 154.801 19.0469C155.12 19.2302 155.491 19.3219 155.914 19.3219C156.189 19.3219 156.438 19.2834 156.659 19.2065C156.884 19.1267 157.078 19.0084 157.24 18.8517C157.403 18.692 157.529 18.4939 157.617 18.2573L158.629 18.5412C158.522 18.8842 158.343 19.1858 158.092 19.4461C157.841 19.7033 157.53 19.9044 157.161 20.0493C156.791 20.1912 156.375 20.2622 155.914 20.2622Z" fill="white"/>
<path d="M79.37 30.9868C82.5589 30.9868 84.661 33.5076 84.661 37.4014C84.661 41.306 82.5712 43.8146 79.4174 43.8146C77.7872 43.8999 76.2517 43.0461 75.464 41.6163H75.4043V47.8398H72.8252V31.1183H75.3217V33.2081H75.3691C76.1919 31.7873 77.729 30.9339 79.37 30.9868ZM93.1993 30.9868C96.3884 30.9868 98.4904 33.5076 98.4904 37.4014C98.4904 41.306 96.4006 43.8146 93.2468 43.8146C91.6166 43.8999 90.0811 43.0461 89.2934 41.6163H89.2337V47.8398H86.6546V31.1183H89.151V33.2081H89.1985C90.0212 31.7873 91.5584 30.9339 93.1993 30.9868ZM111.715 26.1619C115.357 26.1619 117.853 28.2043 117.937 31.1778H115.334C115.178 29.458 113.756 28.4198 111.679 28.4198C109.601 28.4198 108.179 29.4702 108.179 30.9989C108.179 32.2173 109.087 32.9343 111.309 33.4831L113.207 33.9494C116.743 34.7856 118.213 36.206 118.213 38.7268C118.213 41.951 115.644 43.9704 111.559 43.9704C107.738 43.9704 105.157 41.9984 104.99 38.8813L107.631 38.8814C107.822 40.5904 109.482 41.7125 111.751 41.7125C113.924 41.7125 115.488 40.5904 115.488 39.0494C115.488 37.7117 114.545 36.9107 112.312 36.3618L110.078 35.8238C106.914 35.0594 105.444 33.5794 105.444 31.1778C105.444 28.2043 108.036 26.1619 111.715 26.1619ZM133.511 30.9638C137.154 30.9638 139.472 33.448 139.472 37.4014C139.472 41.3656 137.166 43.839 133.511 43.839C129.857 43.839 127.552 41.3656 127.552 37.4014C127.552 33.448 129.88 30.9638 133.511 30.9638ZM154.396 30.9638C157.873 30.9638 160.059 33.3518 160.059 37.1615V38.0452H151.184V38.201C151.101 39.1364 151.424 40.0624 152.071 40.7433C152.718 41.4243 153.626 41.7946 154.564 41.76C155.816 41.8773 156.996 41.1586 157.466 39.9927L159.915 39.9927C159.568 42.2737 157.347 43.839 154.505 43.839C150.849 43.839 148.581 41.39 148.581 37.461C148.581 33.5198 150.862 30.9638 154.396 30.9638ZM123.779 28.1448V31.1183H126.168V33.1607H123.779V40.0876C123.779 41.1637 124.257 41.6651 125.308 41.6651C125.591 41.6602 125.874 41.6403 126.156 41.6055V43.6357C125.684 43.7239 125.204 43.7639 124.723 43.755C122.18 43.755 121.187 42.7995 121.187 40.3627V33.1607H119.361V31.1183H121.187V28.1448H123.779ZM65.0012 26.4493L71.2233 43.6832H68.3934L66.8173 39.025H60.2482L58.6706 43.6832H55.8882L62.1103 26.4493H65.0012ZM147.14 30.9868C147.437 30.9857 147.734 31.018 148.024 31.083V33.4954C147.648 33.3808 147.257 33.3281 146.865 33.3396C146.107 33.3088 145.373 33.611 144.856 34.1668C144.339 34.7226 144.091 35.4764 144.177 36.2304V43.6832H141.598V31.1183H144.058V33.2569H144.118C144.461 31.8802 145.722 30.9326 147.14 30.9868ZM133.511 33.0889C131.421 33.0889 130.18 34.7017 130.18 37.4014C130.18 40.1242 131.421 41.7126 133.511 41.7126C135.601 41.7126 136.844 40.1242 136.844 37.4014C136.844 34.6895 135.601 33.0889 133.511 33.0889ZM78.6896 33.1851C76.719 33.1851 75.3935 34.8928 75.3935 37.4014C75.3935 39.9331 76.719 41.6286 78.6896 41.6286C80.6954 41.6286 82.0101 39.9683 82.0101 37.4014C82.0101 34.8575 80.6954 33.1851 78.6896 33.1851ZM92.519 33.1851C90.5484 33.1851 89.2229 34.8928 89.2229 37.4014C89.2229 39.9331 90.5484 41.6286 92.519 41.6286C94.5248 41.6286 95.8395 39.9683 95.8395 37.4014C95.8395 34.8575 94.5248 33.1851 92.519 33.1851ZM63.5687 29.3157H63.4968L60.9285 36.8755H66.1356L63.5687 29.3157ZM154.396 33.0536C153.548 33.0486 152.733 33.3826 152.132 33.9814C151.531 34.5803 151.194 35.3943 151.196 36.2426H157.478C157.525 35.4021 157.219 34.5801 156.634 33.9747C156.049 33.3694 155.238 33.0355 154.396 33.0536Z" fill="white"/>
<rect x="1.27741" y="0.937531" width="179.029" height="54.1249" rx="7.633" stroke="#A6A6A6" stroke-width="1.38782"/>
</svg>
