<svg width="24" height="24" viewBox="0 0 24 24" fill="none" xmlns="http://www.w3.org/2000/svg">
<path d="M20.1176 7.57528C20.1176 10.1021 18.3795 12.1506 16.2353 12.1506C14.0911 12.1506 12.3529 10.1021 12.3529 7.57528C12.3529 5.04842 14.0911 3 16.2353 3C18.3795 3 20.1176 5.04842 20.1176 7.57528Z" fill="#909090"/>
<path d="M24 19.0135C24 21.793 20.0471 20.8436 16.2353 20.8436C12.4234 20.8436 8.47059 21.793 8.47059 19.0135C8.47059 16.2339 12.4234 13.9807 16.2353 13.9807C20.0471 13.9807 24 16.2339 24 19.0135Z" fill="#909090"/>
<path d="M14.3293 6.83783C14.3293 9.78583 12.3383 12.1757 9.88228 12.1757C7.42624 12.1757 5.43523 9.78583 5.43523 6.83783C5.43523 3.88983 7.42624 1.5 9.88228 1.5C12.3383 1.5 14.3293 3.88983 14.3293 6.83783Z" fill="#909090"/>
<path d="M18.7764 20.1824C18.7764 23.4252 14.2486 22.3175 9.88228 22.3175C5.51599 22.3175 0.988167 23.4252 0.988167 20.1824C0.988167 16.9396 5.51599 14.3108 9.88228 14.3108C14.2486 14.3108 18.7764 16.9396 18.7764 20.1824Z" fill="#909090"/>
<path d="M14.3293 6.83783C14.3293 9.78583 12.3383 12.1757 9.88228 12.1757C7.42624 12.1757 5.43523 9.78583 5.43523 6.83783C5.43523 3.88983 7.42624 1.5 9.88228 1.5C12.3383 1.5 14.3293 3.88983 14.3293 6.83783Z" stroke="#FAFAFA" stroke-width="0.588235"/>
<path d="M18.7764 20.1824C18.7764 23.4252 14.2486 22.3175 9.88228 22.3175C5.51599 22.3175 0.988167 23.4252 0.988167 20.1824C0.988167 16.9396 5.51599 14.3108 9.88228 14.3108C14.2486 14.3108 18.7764 16.9396 18.7764 20.1824Z" stroke="#FAFAFA" stroke-width="0.588235"/>
</svg>
