<svg width="359" height="148" viewBox="0 0 359 148" fill="none" xmlns="http://www.w3.org/2000/svg">
<g clip-path="url(#clip0_1_14)">
<rect width="359" height="148" rx="5" fill="#121212"/>
<g clip-path="url(#clip1_1_14)">
<path d="M344 7.32497C335.449 7.32497 328.52 0.346198 328.52 -8.2625C328.52 -16.8712 335.449 -23.85 344 -23.85" stroke="white" stroke-opacity="0.02" stroke-width="12.1986" stroke-linecap="round" stroke-linejoin="round"/>
<path d="M120.83 -11.1851C120.83 -4.04958 126.606 1.73504 133.73 1.73504C140.854 1.73504 146.63 -4.04958 146.63 -11.1851V-25.7849" stroke="white" stroke-opacity="0.02" stroke-width="12.1986" stroke-linecap="round" stroke-linejoin="round"/>
<path d="M344 73.3299V37.1414C344 30.0547 338.224 24.31 331.1 24.31C323.977 24.31 318.2 30.0547 318.2 37.1414V42.7428" stroke="white" stroke-opacity="0.02" stroke-width="12.1986" stroke-linecap="round" stroke-linejoin="round"/>
<path d="M144.695 187.689C148.063 187.689 150.794 184.958 150.794 181.59C150.794 178.221 148.063 175.491 144.695 175.491V187.689ZM106.116 216.618V210.518V216.618ZM122.039 222.717C125.407 222.717 128.138 219.986 128.138 216.618C128.138 213.249 125.407 210.518 122.039 210.518L122.039 222.717ZM78.8708 283.679C82.2393 283.679 84.9701 280.948 84.9701 277.579C84.9701 274.211 82.2393 271.48 78.8708 271.48V283.679ZM128.253 234.805C128.253 231.437 125.522 228.706 122.153 228.706C118.785 228.706 116.054 231.437 116.054 234.805H128.253ZM89.8991 100.42C89.8991 97.0511 87.1684 94.3204 83.7998 94.3204C80.4313 94.3204 77.7005 97.0511 77.7005 100.42L89.8991 100.42ZM114.248 144.724V138.625V144.724ZM126.375 144.724V150.823V144.724ZM138.597 163.065C138.597 166.434 141.327 169.165 144.696 169.165C148.065 169.165 150.795 166.434 150.795 163.065H138.597ZM144.695 175.491L106.116 175.491V187.689L144.695 187.689V175.491ZM106.116 175.491C93.0538 175.491 82.4095 186.032 82.4095 199.104H94.608C94.608 192.83 99.7298 187.689 106.116 187.689V175.491ZM82.4095 199.104C82.4095 212.175 93.0538 222.717 106.116 222.717V210.518C99.7298 210.518 94.608 205.377 94.608 199.104H82.4095ZM106.116 222.717L122.039 222.717L122.039 210.518L106.116 210.518L106.116 222.717ZM78.8708 271.48H76.571V283.679H78.8708V271.48ZM76.571 271.48C73.1609 271.48 70.3845 268.71 70.3845 265.281H58.1859C58.1859 275.434 66.4107 283.679 76.571 283.679V271.48ZM70.3845 265.281C70.3845 261.848 73.1617 259.078 76.571 259.078V246.88C66.4099 246.88 58.1859 255.126 58.1859 265.281H70.3845ZM76.571 259.078H104.001V246.88L76.571 246.88V259.078ZM104.001 259.078C117.401 259.078 128.253 248.205 128.253 234.805H116.054C116.054 241.481 110.651 246.88 104.001 246.88V259.078ZM77.7005 100.42V114.241L89.8991 114.241V100.42L77.7005 100.42ZM77.7005 114.241C77.7005 134.438 94.0567 150.823 114.248 150.823V138.625C100.807 138.625 89.8991 127.714 89.8991 114.241L77.7005 114.241ZM114.248 150.823L126.375 150.823V138.625L114.248 138.625V150.823ZM126.375 150.823C133.118 150.823 138.597 156.298 138.597 163.065H150.795C150.795 149.574 139.868 138.625 126.375 138.625V150.823Z" fill="white" fill-opacity="0.02"/>
<path fill-rule="evenodd" clip-rule="evenodd" d="M126.42 67.0949C131.17 67.0949 135.02 63.2446 135.02 58.4949C135.02 53.7453 131.17 49.895 126.42 49.895C121.671 49.895 117.82 53.7453 117.82 58.4949C117.82 63.2446 121.671 67.0949 126.42 67.0949Z" stroke="white" stroke-opacity="0.02" stroke-width="12.1986" stroke-linecap="round" stroke-linejoin="round"/>
<path fill-rule="evenodd" clip-rule="evenodd" d="M39.5595 42.7998C47.0402 42.7998 53.1045 36.7355 53.1045 29.2548C53.1045 21.7741 47.0402 15.7098 39.5595 15.7098C32.0788 15.7098 26.0145 21.7741 26.0145 29.2548C26.0145 36.7355 32.0788 42.7998 39.5595 42.7998Z" stroke="white" stroke-opacity="0.02" stroke-width="12.1986" stroke-linecap="round" stroke-linejoin="round"/>
<path d="M39.6673 58.7098C56.3503 58.7098 69.8747 45.378 69.8747 28.9324C69.8747 12.4867 56.3503 -0.84507 39.6673 -0.84507C22.9843 -0.84507 9.45984 12.4867 9.45984 28.9324" stroke="white" stroke-opacity="0.02" stroke-width="12.1986" stroke-linecap="round" stroke-linejoin="round"/>
<path d="M70.627 63.0099C63.7993 63.0099 58.2645 68.5447 58.2645 75.3724C58.2645 82.2001 63.7993 87.7349 70.627 87.7349C77.4547 87.7349 82.9895 82.2001 82.9895 75.3724V63.0099" stroke="white" stroke-opacity="0.02" stroke-width="12.1986" stroke-linecap="round" stroke-linejoin="round"/>
<path d="M74.3895 -9.33741C74.3895 -0.25378 81.7052 7.11006 90.7295 7.11006C99.7538 7.11006 107.069 -0.25378 107.069 -9.33741C107.069 -18.4211 99.7538 -25.7849 90.7295 -25.7849L74.3895 -25.7849" stroke="white" stroke-opacity="0.02" stroke-width="12.1986" stroke-linecap="round" stroke-linejoin="round"/>
<path d="M15.3727 160.315C7.47639 160.315 1.0752 153.982 1.0752 146.17C1.0752 138.358 7.47639 132.025 15.3727 132.025C23.269 132.025 29.6701 138.358 29.6701 146.17V189.43" stroke="white" stroke-opacity="0.02" stroke-width="12.1986" stroke-linecap="round" stroke-linejoin="round"/>
<path d="M314.327 161.05C314.327 168.293 320.104 174.165 327.23 174.165C334.355 174.165 340.129 168.293 340.129 161.05C340.129 153.807 334.355 147.935 327.23 147.935H284.015" stroke="white" stroke-opacity="0.02" stroke-width="12.1986" stroke-linecap="round" stroke-linejoin="round"/>
<path d="M207.689 4.05497C200.089 4.05497 193.929 10.1293 193.929 17.6224C193.929 25.1156 200.089 31.1899 207.689 31.1899C215.288 31.1899 221.449 25.1156 221.449 17.6224V-26" stroke="white" stroke-opacity="0.02" stroke-width="12.1986" stroke-linecap="round" stroke-linejoin="round"/>
<path d="M234.242 94.954C241.07 94.954 246.605 100.461 246.605 107.254C246.605 114.048 241.07 119.555 234.242 119.555C227.415 119.555 221.88 114.048 221.88 107.254V61.2899" stroke="white" stroke-opacity="0.02" stroke-width="12.1986" stroke-linecap="round" stroke-linejoin="round"/>
<path d="M13.4377 96.2719C6.61006 96.2719 1.0752 101.724 1.0752 108.451C1.0752 115.177 6.61006 120.63 13.4377 120.63C20.2653 120.63 25.8001 115.177 25.8001 108.451V58.7098" stroke="white" stroke-opacity="0.02" stroke-width="12.1986" stroke-linecap="round" stroke-linejoin="round"/>
<path d="M148.072 58.7098C148.072 46.4796 138.315 36.5649 126.281 36.5649C114.246 36.5649 104.49 46.4796 104.49 58.7098C104.49 70.9401 114.246 80.8548 126.281 80.8548L183.395 80.8548" stroke="white" stroke-opacity="0.02" stroke-width="12.1986" stroke-linecap="round" stroke-linejoin="round"/>
<path d="M322.207 130.305C334.244 130.305 343.999 120.39 343.999 108.16C343.999 95.9295 334.244 86.0148 322.207 86.0148L265.094 86.0148" stroke="white" stroke-opacity="0.02" stroke-width="12.1986" stroke-linecap="round" stroke-linejoin="round"/>
<path fill-rule="evenodd" clip-rule="evenodd" d="M238.005 11.7324C238.005 0.273819 247.194 -9.01508 258.529 -9.01508L279.616 -9.01508C290.952 -9.01508 300.14 0.273819 300.14 11.7324V11.7324C300.14 23.191 290.952 32.4799 279.616 32.4799L258.529 32.4799C247.194 32.4799 238.005 23.191 238.005 11.7324V11.7324Z" stroke="white" stroke-opacity="0.02" stroke-width="12.1986" stroke-linecap="round" stroke-linejoin="round"/>
<path fill-rule="evenodd" clip-rule="evenodd" d="M57.2983 161.265C50.2333 161.265 44.5059 155.547 44.5059 148.494V112.116C44.5059 105.063 50.2333 99.3447 57.2983 99.3447V99.3447C64.3634 99.3447 70.0908 105.063 70.0908 112.116V148.494C70.0908 155.547 64.3634 161.265 57.2983 161.265V161.265Z" stroke="white" stroke-opacity="0.02" stroke-width="12.1986" stroke-linecap="round" stroke-linejoin="round"/>
<path d="M178.02 145.032V125.825C178.02 120.344 182.496 115.9 188.017 115.9V115.9C193.538 115.9 198.014 120.344 198.014 125.825V164.239C198.014 169.721 193.538 174.165 188.017 174.165V174.165V174.165C182.496 174.165 178.02 169.721 178.02 164.239V159.598" stroke="white" stroke-opacity="0.02" stroke-width="12.1986" stroke-linecap="round" stroke-linejoin="round"/>
<path d="M196.509 42.355V44.0295C196.509 53.5622 188.761 61.2899 179.202 61.2899V61.2899C169.643 61.2899 161.895 53.5622 161.895 44.0295V-8.52451C161.895 -18.0572 169.643 -25.7849 179.202 -25.7849V-25.7849C188.761 -25.7849 196.509 -18.0572 196.509 -8.52451V-8.00928" stroke="white" stroke-opacity="0.02" stroke-width="12.1986" stroke-linecap="round" stroke-linejoin="round"/>
<path d="M161.464 115.9V165.702C161.464 180.587 173.641 192.655 188.661 192.655C203.682 192.655 215.859 180.587 215.859 165.702V153.935" stroke="white" stroke-opacity="0.02" stroke-width="12.1986" stroke-linecap="round" stroke-linejoin="round"/>
<path d="M125.99 124.715H115.415C108.312 124.715 102.555 118.939 102.555 111.815C102.555 104.69 108.312 98.9148 115.415 98.9148H136.565C143.667 98.9148 149.425 104.69 149.425 111.815V112.961C149.425 119.452 144.179 124.715 137.707 124.715" stroke="white" stroke-opacity="0.02" stroke-width="12.1986" stroke-linecap="round" stroke-linejoin="round"/>
<path d="M234.242 75.4798H246.321C254.433 75.4798 261.009 69.271 261.009 61.6123C261.009 53.9536 254.433 47.7449 246.321 47.7449L222.163 47.7449C214.051 47.7449 207.474 53.9536 207.474 61.6123" stroke="white" stroke-opacity="0.02" stroke-width="12.1986" stroke-linecap="round" stroke-linejoin="round"/>
<path d="M145.126 17.645L116.169 17.645C97.8455 17.645 82.991 32.565 82.991 50.97" stroke="white" stroke-opacity="0.02" stroke-width="12.1986" stroke-linecap="round" stroke-linejoin="round"/>
<path d="M160.605 98.9148H181.756C195.96 98.9148 207.475 87.3636 207.475 73.1148" stroke="white" stroke-opacity="0.02" stroke-width="12.1986" stroke-linecap="round" stroke-linejoin="round"/>
<path d="M324.004 108.59H305.942C292.881 108.59 282.294 119.274 282.294 132.455" stroke="white" stroke-opacity="0.02" stroke-width="12.1986" stroke-linecap="round" stroke-linejoin="round"/>
<path d="M9.56734 44.0899C9.56734 46.0922 9.56734 71.2975 9.56734 83.6498" stroke="white" stroke-opacity="0.02" stroke-width="12.1986" stroke-linecap="round" stroke-linejoin="round"/>
<path d="M234.027 135.035C234.027 136.689 234.027 157.511 234.027 167.715" stroke="white" stroke-opacity="0.02" stroke-width="12.1986" stroke-linecap="round" stroke-linejoin="round"/>
<path d="M271.193 100.205C271.193 96.8363 268.462 94.1056 265.094 94.1056C261.725 94.1056 258.994 96.8363 258.994 100.205H271.193ZM240.493 174.108C237.125 174.108 234.394 176.839 234.394 180.207C234.394 183.576 237.125 186.307 240.493 186.307V174.108ZM205.108 202.68C201.74 202.68 199.009 205.411 199.009 208.78C199.009 212.148 201.74 214.879 205.108 214.879V202.68ZM238.504 187.266C238.504 183.898 235.773 181.167 232.405 181.167C229.036 181.167 226.306 183.898 226.306 187.266H238.504ZM258.994 100.205V130.806H271.193V100.205H258.994ZM258.994 130.806C258.994 132.205 257.839 133.422 256.308 133.422V145.62C264.481 145.62 271.193 139.037 271.193 130.806H258.994ZM256.308 133.422C248.131 133.422 241.423 140.012 241.423 148.24H253.621C253.621 146.837 254.78 145.62 256.308 145.62V133.422ZM241.423 148.24V150.048H253.621V148.24H241.423ZM241.423 150.048C241.423 158.275 248.131 164.866 256.308 164.866V152.667C254.78 152.667 253.621 151.45 253.621 150.048H241.423ZM256.308 164.866C257.836 164.866 258.994 166.082 258.994 167.485H271.193C271.193 159.257 264.484 152.667 256.308 152.667V164.866ZM258.994 167.485V169.487H271.193V167.485H258.994ZM258.994 169.487C258.994 171.995 256.933 174.108 254.29 174.108V186.307C263.581 186.307 271.193 178.82 271.193 169.487H258.994ZM254.29 174.108H248.693V186.307H254.29V174.108ZM248.693 174.108H240.493V186.307H248.693V174.108ZM205.108 214.879H210.865V202.68H205.108V214.879ZM210.865 214.879C226.123 214.879 238.504 202.523 238.504 187.266H226.306C226.306 195.772 219.4 202.68 210.865 202.68V214.879Z" fill="white" fill-opacity="0.02"/>
<path d="M318.414 57.8327V62.1934C318.414 68.3439 313.412 73.3297 307.246 73.3297V73.3297C301.078 73.3297 296.076 68.3439 296.076 62.1934V58.5815C296.076 52.4777 291.113 47.5298 284.994 47.5298V47.5298C278.872 47.5298 273.909 52.4777 273.909 58.5815V63.0268" stroke="white" stroke-opacity="0.02" stroke-width="12.1986" stroke-linecap="round" stroke-linejoin="round"/>
</g>
</g>
<defs>
<clipPath id="clip0_1_14">
<rect width="359" height="148" rx="5" fill="white"/>
</clipPath>
<clipPath id="clip1_1_14">
<rect width="360.047" height="303.58" fill="white" transform="translate(0 -26)"/>
</clipPath>
</defs>
</svg>
