<svg width="221" height="181" viewBox="0 0 221 181" fill="none" xmlns="http://www.w3.org/2000/svg">
<path d="M65.1418 2.06982C56.8645 1.27817 48.2921 4.73404 42.8789 11.0454C38.9379 15.6407 36.6993 21.4772 32.9089 26.1978C25.7159 35.1563 13.7152 39.2079 6.54452 48.1846C-0.851812 57.4438 -1.74199 70.8875 2.68081 81.8817C7.1036 92.876 16.2156 101.523 26.5929 107.245C30.2315 109.251 34.133 111.004 36.9771 114.033C41.5036 118.854 42.506 126.06 41.8478 132.64C41.1902 139.221 39.1189 145.594 38.3897 152.168C37.8724 156.829 38.1611 161.926 41.051 165.619C43.7078 169.015 48.0618 170.584 52.2778 171.488C64.9001 174.193 78.4623 172.267 89.8318 166.154C99.0285 161.208 106.738 153.691 116.275 149.44C127.718 144.339 140.798 144.392 153.221 146.014C160.829 147.007 168.406 148.555 176.078 148.525C183.751 148.495 191.718 146.713 197.607 141.796C203.255 137.08 206.405 130.005 208.357 122.91C213.131 105.564 211.671 86.5697 204.301 70.1571C202.02 65.0784 199.13 60.163 194.994 56.4368C190.715 52.5817 185.344 50.2016 180.071 47.8839C163.654 40.6686 145.462 29.2229 127.4 27.4649C122.064 26.9454 116.647 27.7519 111.395 26.451C103.329 24.4542 96.4405 19.0759 89.8851 14.2418C82.4887 8.78736 74.5917 2.97374 65.1418 2.06982Z" fill="url(#paint0_linear_148_20000)"/>
<path d="M154.725 136.818C154.296 136.818 153.868 136.815 153.44 136.808C153.282 136.805 153.156 136.675 153.159 136.517C153.161 136.359 153.296 136.233 153.45 136.235C154.209 136.247 154.969 136.247 155.732 136.239C155.868 136.228 156.02 136.364 156.022 136.522C156.024 136.68 155.897 136.81 155.739 136.812C155.401 136.816 155.062 136.818 154.725 136.818ZM159.171 136.699C159.019 136.699 158.893 136.581 158.885 136.428C158.876 136.27 158.997 136.135 159.156 136.127C159.916 136.086 160.676 136.035 161.435 135.975C161.591 135.966 161.731 136.08 161.743 136.237C161.755 136.395 161.638 136.533 161.481 136.545C160.716 136.607 159.952 136.658 159.186 136.699C159.181 136.699 159.176 136.699 159.171 136.699ZM150.01 136.684C150.005 136.684 149.999 136.684 149.994 136.683C149.229 136.64 148.464 136.585 147.701 136.521C147.544 136.507 147.427 136.369 147.44 136.211C147.453 136.054 147.596 135.94 147.749 135.95C148.508 136.014 149.267 136.068 150.027 136.112C150.185 136.121 150.305 136.256 150.297 136.414C150.288 136.566 150.161 136.684 150.01 136.684ZM164.875 136.202C164.732 136.202 164.609 136.096 164.592 135.95C164.573 135.794 164.684 135.651 164.841 135.632C165.597 135.54 166.351 135.438 167.105 135.326C167.259 135.303 167.406 135.411 167.429 135.567C167.453 135.724 167.345 135.869 167.188 135.892C166.43 136.005 165.671 136.108 164.909 136.2C164.899 136.202 164.887 136.202 164.875 136.202ZM144.308 136.157C144.296 136.157 144.283 136.157 144.271 136.155C143.511 136.058 142.752 135.95 141.995 135.831C141.839 135.806 141.732 135.66 141.756 135.503C141.781 135.347 141.931 135.242 142.084 135.265C142.836 135.383 143.589 135.491 144.343 135.588C144.5 135.608 144.611 135.751 144.591 135.908C144.573 136.052 144.45 136.157 144.308 136.157ZM170.535 135.322C170.4 135.322 170.28 135.226 170.254 135.089C170.224 134.934 170.327 134.784 170.481 134.754C171.23 134.612 171.975 134.46 172.719 134.298C172.877 134.263 173.026 134.361 173.06 134.516C173.094 134.671 172.996 134.823 172.841 134.857C172.093 135.02 171.342 135.174 170.588 135.317C170.57 135.32 170.552 135.322 170.535 135.322ZM176.123 134.063C175.995 134.063 175.879 133.978 175.846 133.849C175.806 133.696 175.897 133.54 176.05 133.5C176.786 133.308 177.521 133.105 178.252 132.894C178.406 132.849 178.563 132.936 178.607 133.089C178.65 133.241 178.563 133.4 178.412 133.444C177.675 133.657 176.937 133.86 176.195 134.054C176.171 134.06 176.147 134.063 176.123 134.063ZM181.613 132.433C181.493 132.433 181.381 132.357 181.34 132.237C181.291 132.087 181.371 131.925 181.521 131.874C182.243 131.633 182.962 131.382 183.678 131.122C183.827 131.068 183.99 131.145 184.045 131.294C184.099 131.443 184.022 131.606 183.873 131.661C183.153 131.923 182.431 132.175 181.703 132.419C181.673 132.428 181.643 132.433 181.613 132.433ZM186.98 130.435C186.868 130.435 186.761 130.368 186.715 130.257C186.655 130.111 186.725 129.943 186.871 129.883C187.575 129.594 188.275 129.295 188.97 128.986C189.115 128.923 189.284 128.986 189.349 129.132C189.413 129.277 189.347 129.446 189.203 129.51C188.502 129.821 187.797 130.122 187.089 130.414C187.053 130.429 187.016 130.435 186.98 130.435ZM192.198 128.075C192.093 128.075 191.992 128.016 191.942 127.916C191.872 127.774 191.93 127.602 192.072 127.532C192.754 127.196 193.432 126.849 194.105 126.493C194.245 126.42 194.418 126.472 194.492 126.612C194.566 126.752 194.513 126.925 194.373 126.999C193.695 127.358 193.013 127.707 192.326 128.046C192.284 128.066 192.241 128.075 192.198 128.075ZM197.242 125.361C197.143 125.361 197.047 125.31 196.994 125.219C196.914 125.082 196.96 124.907 197.097 124.827C197.754 124.443 198.406 124.05 199.052 123.647C199.186 123.565 199.363 123.605 199.446 123.739C199.53 123.873 199.489 124.05 199.355 124.133C198.704 124.538 198.047 124.935 197.385 125.321C197.341 125.349 197.291 125.361 197.242 125.361ZM202.081 122.297C201.99 122.297 201.9 122.254 201.844 122.173C201.755 122.041 201.789 121.864 201.919 121.774C202.546 121.346 203.168 120.907 203.781 120.457C203.908 120.363 204.088 120.39 204.182 120.518C204.275 120.646 204.248 120.825 204.121 120.919C203.501 121.372 202.875 121.815 202.243 122.247C202.193 122.281 202.137 122.297 202.081 122.297ZM206.66 118.86C206.578 118.86 206.497 118.825 206.44 118.757C206.339 118.635 206.355 118.455 206.477 118.353C207.071 117.856 207.646 117.35 208.185 116.85C208.301 116.742 208.482 116.748 208.59 116.865C208.697 116.981 208.691 117.162 208.575 117.27C208.029 117.777 207.446 118.289 206.843 118.793C206.791 118.838 206.725 118.86 206.66 118.86ZM210.789 114.897C210.721 114.897 210.653 114.873 210.599 114.825C210.48 114.719 210.47 114.538 210.575 114.42C210.914 114.039 211.245 113.649 211.567 113.251C211.721 113.06 211.874 112.867 212.023 112.672C212.12 112.547 212.3 112.524 212.425 112.619C212.55 112.716 212.574 112.896 212.478 113.021C212.325 113.219 212.17 113.416 212.012 113.61C211.685 114.016 211.348 114.412 211.003 114.8C210.946 114.865 210.868 114.897 210.789 114.897ZM214.195 110.305C214.143 110.305 214.092 110.292 214.045 110.263C213.91 110.18 213.868 110.005 213.95 109.869C214.339 109.236 214.716 108.571 215.07 107.894C215.145 107.754 215.319 107.701 215.457 107.773C215.597 107.847 215.652 108.02 215.578 108.16C215.217 108.848 214.834 109.524 214.439 110.169C214.385 110.257 214.291 110.305 214.195 110.305ZM216.773 105.199C216.736 105.199 216.699 105.192 216.664 105.178C216.518 105.118 216.448 104.95 216.508 104.804C216.79 104.118 217.061 103.402 217.312 102.676C217.364 102.527 217.527 102.448 217.677 102.499C217.827 102.551 217.906 102.715 217.854 102.864C217.599 103.599 217.325 104.325 217.038 105.022C216.992 105.133 216.885 105.199 216.773 105.199ZM218.583 99.767C218.559 99.767 218.534 99.7641 218.509 99.7572C218.356 99.7171 218.265 99.5596 218.305 99.4072C218.496 98.6883 218.675 97.9425 218.838 97.1927C218.871 97.038 219.026 96.9412 219.178 96.9733C219.333 97.0071 219.431 97.1589 219.397 97.3135C219.233 98.0725 219.052 98.827 218.86 99.5539C218.825 99.6822 218.709 99.767 218.583 99.767ZM219.746 94.159C219.731 94.159 219.716 94.1578 219.701 94.1556C219.545 94.1309 219.438 93.9849 219.462 93.8285C219.578 93.0878 219.683 92.3271 219.775 91.5681C219.794 91.4117 219.941 91.2994 220.094 91.3183C220.251 91.3372 220.363 91.4799 220.344 91.6374C220.251 92.4027 220.145 93.1697 220.029 93.9167C220.006 94.0588 219.884 94.159 219.746 94.159ZM220.396 88.4674C220.388 88.4674 220.381 88.4674 220.374 88.4668C220.216 88.4548 220.098 88.3173 220.11 88.1592C220.168 87.4002 220.216 86.6401 220.255 85.8794C220.263 85.7218 220.381 85.6004 220.556 85.6078C220.714 85.6159 220.835 85.751 220.827 85.9086C220.788 86.6739 220.74 87.4392 220.682 88.2027C220.67 88.3534 220.544 88.4674 220.396 88.4674ZM168.104 83.5279C167.956 83.5279 167.831 83.4139 167.819 83.2644C167.807 83.1069 167.925 82.9688 168.082 82.9562C168.787 82.9001 169.517 82.7924 170.312 82.6269C170.464 82.5936 170.618 82.6939 170.65 82.8485C170.683 83.0032 170.583 83.155 170.428 83.1871C169.61 83.3578 168.857 83.4689 168.127 83.5273C168.12 83.5279 168.112 83.5279 168.104 83.5279ZM164.687 83.3309C164.667 83.3309 164.645 83.3286 164.625 83.324C164.507 83.2982 164.39 83.2696 164.272 83.2392C163.629 83.0714 163.001 82.8308 162.407 82.5237C162.266 82.4516 162.211 82.2786 162.284 82.1382C162.356 81.9973 162.529 81.9423 162.67 82.0151C163.227 82.3026 163.815 82.5283 164.417 82.6853C164.527 82.7139 164.639 82.7408 164.749 82.7655C164.904 82.7998 165.001 82.9528 164.967 83.1074C164.936 83.2398 164.818 83.3309 164.687 83.3309ZM220.66 82.7454C220.658 82.7454 220.656 82.7454 220.654 82.7454C220.497 82.7426 220.371 82.612 220.373 82.4539C220.388 81.6903 220.395 80.9279 220.396 80.1677C220.396 80.0096 220.524 79.8813 220.682 79.8813C220.84 79.8813 220.969 80.0096 220.969 80.1683C220.968 80.9319 220.961 81.6977 220.946 82.4647C220.943 82.6206 220.815 82.7454 220.66 82.7454ZM173.684 82.2889C173.564 82.2889 173.452 82.2127 173.412 82.0924C173.362 81.9423 173.444 81.7802 173.594 81.7304C174.284 81.5018 175.003 81.2395 175.73 80.9513C175.877 80.8929 176.044 80.9651 176.102 81.1117C176.16 81.2589 176.089 81.4251 175.942 81.4835C175.204 81.7762 174.475 82.042 173.774 82.274C173.744 82.2843 173.714 82.2889 173.684 82.2889ZM159.833 80.4662C159.756 80.4662 159.678 80.4346 159.622 80.3734C159.106 79.8097 158.634 79.1779 158.221 78.4951C158.139 78.3599 158.183 78.1834 158.318 78.1021C158.453 78.0208 158.63 78.0637 158.711 78.1989C159.104 78.8491 159.554 79.4505 160.044 79.9867C160.151 80.1035 160.144 80.2846 160.027 80.3917C159.972 80.4415 159.902 80.4662 159.833 80.4662ZM178.986 80.1299C178.878 80.1299 178.776 80.0692 178.727 79.9655C178.66 79.8229 178.721 79.6516 178.864 79.5846C179.551 79.2598 180.235 78.9241 180.915 78.581C181.055 78.5088 181.228 78.5661 181.3 78.7076C181.371 78.8491 181.314 79.0209 181.173 79.0919C180.489 79.4368 179.801 79.7753 179.109 80.1024C179.069 80.1213 179.027 80.1299 178.986 80.1299ZM184.095 77.5413C183.993 77.5413 183.894 77.4857 183.842 77.3889C183.768 77.2492 183.822 77.0756 183.962 77.0017C184.635 76.646 185.308 76.2857 185.979 75.9208C186.117 75.8463 186.291 75.8961 186.368 76.0359C186.443 76.1751 186.392 76.3487 186.253 76.4243C185.58 76.7903 184.905 77.1512 184.23 77.5081C184.187 77.5304 184.141 77.5413 184.095 77.5413ZM220.646 77.0172C220.49 77.0172 220.363 76.8929 220.359 76.7365C220.344 75.9752 220.324 75.2128 220.297 74.4503C220.291 74.2922 220.415 74.1593 220.573 74.1542C220.73 74.1421 220.864 74.2722 220.87 74.4303C220.897 75.1956 220.917 75.9609 220.932 76.725C220.935 76.8831 220.809 77.0137 220.651 77.0172C220.65 77.0172 220.647 77.0172 220.646 77.0172ZM157.096 75.4917C156.971 75.4917 156.857 75.4104 156.821 75.2855C156.603 74.5391 156.447 73.7687 156.354 72.9959C156.335 72.839 156.448 72.6963 156.605 72.6774C156.759 72.6574 156.905 72.7714 156.923 72.9283C157.011 73.6701 157.162 74.4091 157.371 75.1251C157.415 75.2769 157.328 75.4362 157.176 75.4803C157.149 75.4883 157.122 75.4917 157.096 75.4917ZM189.116 74.7826C189.017 74.7826 188.921 74.731 188.867 74.6388C188.788 74.5013 188.836 74.3266 188.973 74.2475C189.634 73.8678 190.291 73.4811 190.943 73.0881C191.076 73.0068 191.254 73.0498 191.336 73.1855C191.418 73.3207 191.375 73.4971 191.239 73.5791C190.583 73.9743 189.923 74.3627 189.259 74.7448C189.214 74.77 189.165 74.7826 189.116 74.7826ZM194.001 71.7918C193.908 71.7918 193.817 71.746 193.762 71.6624C193.675 71.5301 193.712 71.3525 193.844 71.266C194.482 70.8484 195.112 70.4222 195.734 69.9869C195.864 69.8969 196.043 69.9273 196.134 70.0573C196.224 70.1868 196.193 70.3655 196.063 70.456C195.435 70.8948 194.801 71.3244 194.159 71.7454C194.11 71.7769 194.055 71.7918 194.001 71.7918ZM220.408 71.2946C220.259 71.2946 220.133 71.1789 220.122 71.0283C220.07 70.2687 220.006 69.5103 219.93 68.7541C219.914 68.5966 220.029 68.4563 220.186 68.4402C220.331 68.4271 220.484 68.5388 220.499 68.6963C220.577 69.4587 220.64 70.2229 220.694 70.9882C220.705 71.1457 220.586 71.2826 220.428 71.2941C220.422 71.2941 220.415 71.2946 220.408 71.2946ZM156.676 69.8213C156.662 69.8213 156.649 69.8207 156.635 69.8185C156.479 69.7961 156.37 69.6506 156.392 69.4942C156.502 68.7352 156.668 67.9694 156.885 67.2184C156.929 67.0666 157.086 66.9772 157.24 67.0231C157.392 67.0672 157.48 67.2258 157.436 67.3776C157.225 68.1034 157.065 68.8429 156.959 69.5756C156.939 69.7182 156.816 69.8213 156.676 69.8213ZM198.663 68.4672C198.579 68.4672 198.494 68.4293 198.437 68.3572C198.34 68.2323 198.362 68.0524 198.487 67.955C199.091 67.4842 199.686 67.0007 200.256 66.5184C200.377 66.417 200.558 66.4313 200.66 66.5522C200.762 66.6731 200.747 66.8535 200.626 66.956C200.05 67.4435 199.449 67.9321 198.839 68.4076C198.787 68.4477 198.725 68.4672 198.663 68.4672ZM219.774 65.6036C219.636 65.6036 219.514 65.5033 219.491 65.3624C219.37 64.6034 219.231 63.8496 219.078 63.1233C219.045 62.968 219.144 62.8162 219.299 62.7841C219.452 62.7526 219.605 62.8506 219.638 63.0053C219.794 63.7408 219.935 64.5032 220.057 65.2714C220.082 65.4277 219.975 65.5744 219.819 65.5996C219.804 65.6024 219.789 65.6036 219.774 65.6036ZM202.989 64.7174C202.914 64.7174 202.84 64.6882 202.784 64.6304C202.674 64.5169 202.677 64.3354 202.79 64.2254C203.341 63.6909 203.877 63.1445 204.384 62.6003C204.492 62.4846 204.673 62.4788 204.789 62.5859C204.905 62.6936 204.911 62.8746 204.803 62.9909C204.29 63.542 203.746 64.0959 203.189 64.6367C203.133 64.6905 203.061 64.7174 202.989 64.7174ZM158.42 64.3921C158.377 64.3921 158.333 64.3823 158.292 64.3617C158.15 64.2907 158.093 64.1188 158.163 63.9773C158.498 63.3071 158.883 62.6283 159.306 61.9598C159.391 61.8264 159.568 61.7868 159.701 61.8711C159.834 61.9558 159.874 62.1323 159.79 62.2657C159.377 62.9188 159.002 63.5804 158.675 64.234C158.626 64.3342 158.525 64.3921 158.42 64.3921ZM206.833 60.4768C206.771 60.4768 206.709 60.4567 206.656 60.4161C206.532 60.3187 206.51 60.1383 206.607 60.014L206.837 59.7195C207.219 59.2275 207.596 58.7108 207.957 58.1849C208.046 58.0537 208.224 58.0211 208.355 58.111C208.486 58.2004 208.518 58.3785 208.429 58.5091C208.062 59.0447 207.678 59.57 207.289 60.0712L207.058 60.368C207.002 60.439 206.918 60.4768 206.833 60.4768ZM218.513 60.0202C218.39 60.0202 218.276 59.9401 218.24 59.8158C218.122 59.4234 217.997 59.0327 217.866 58.6437C217.756 58.3149 217.639 57.9879 217.517 57.6619C217.461 57.5136 217.537 57.3486 217.685 57.293C217.835 57.2375 217.998 57.3125 218.053 57.4609C218.178 57.7925 218.296 58.1259 218.409 58.4599C218.543 58.8551 218.669 59.2521 218.788 59.6508C218.834 59.8026 218.748 59.9618 218.596 60.0077C218.568 60.0162 218.54 60.0202 218.513 60.0202ZM161.564 59.6181C161.501 59.6181 161.436 59.5969 161.383 59.5534C161.261 59.4532 161.243 59.2727 161.343 59.1501C161.814 58.5739 162.327 57.989 162.864 57.4122C162.972 57.2965 163.154 57.2902 163.269 57.3979C163.385 57.5061 163.391 57.6871 163.283 57.8028C162.753 58.3705 162.249 58.9456 161.786 59.5122C161.73 59.582 161.647 59.6181 161.564 59.6181ZM209.991 55.7046C209.945 55.7046 209.898 55.6931 209.854 55.6696C209.715 55.594 209.664 55.4199 209.74 55.2807C210.101 54.6191 210.445 53.9363 210.76 53.2512C210.826 53.1068 210.999 53.0449 211.14 53.1108C211.284 53.1773 211.346 53.3474 211.28 53.4912C210.959 54.1877 210.61 54.8826 210.242 55.5551C210.19 55.6502 210.092 55.7046 209.991 55.7046ZM165.519 55.48C165.442 55.48 165.365 55.4485 165.308 55.3872C165.201 55.2709 165.208 55.0894 165.325 54.9828C165.888 54.4656 166.47 53.9534 167.054 53.4608C167.174 53.3589 167.356 53.3737 167.457 53.4946C167.56 53.6155 167.544 53.7965 167.423 53.8985C166.846 54.3865 166.27 54.8929 165.713 55.4044C165.658 55.4548 165.588 55.48 165.519 55.48ZM216.406 54.7016C216.302 54.7016 216.202 54.6443 216.151 54.5446C215.806 53.8652 215.435 53.1985 215.047 52.5626C214.965 52.4274 215.008 52.2516 215.142 52.1691C215.278 52.086 215.454 52.129 215.536 52.2648C215.932 52.9132 216.311 53.5937 216.662 54.2863C216.734 54.4272 216.677 54.5996 216.536 54.6712C216.494 54.6918 216.45 54.7016 216.406 54.7016ZM169.932 51.8323C169.845 51.8323 169.758 51.7922 169.702 51.7166C169.608 51.5894 169.635 51.4101 169.761 51.3156C170.371 50.8619 171.003 50.4128 171.637 49.9809C171.767 49.8927 171.946 49.9253 172.035 50.0559C172.124 50.1871 172.09 50.3653 171.959 50.454C171.331 50.882 170.706 51.3265 170.102 51.7756C170.052 51.8139 169.991 51.8323 169.932 51.8323ZM212.294 50.4672C212.264 50.4672 212.233 50.4626 212.203 50.4523C212.053 50.4014 211.972 50.2392 212.023 50.0892C212.153 49.7088 212.274 49.3239 212.389 48.9384C212.13 48.6451 211.866 48.3604 211.598 48.0866C211.488 47.9731 211.491 47.7921 211.604 47.6816C211.717 47.5716 211.898 47.5733 212.009 47.6867C212.199 47.8821 212.388 48.0826 212.574 48.2871C212.608 48.1627 212.64 48.039 212.672 47.9153C212.712 47.7623 212.867 47.6678 213.021 47.7096C213.175 47.7492 213.267 47.9055 213.227 48.0585C213.163 48.3048 213.096 48.5517 213.025 48.7986C213.202 49.0031 213.374 49.211 213.544 49.4224C213.643 49.5455 213.624 49.726 213.501 49.8251C213.377 49.9236 213.197 49.9047 213.098 49.7816C213.01 49.6721 212.92 49.5627 212.83 49.455C212.746 49.7294 212.657 50.0027 212.565 50.2742C212.525 50.3922 212.413 50.4672 212.294 50.4672ZM174.698 48.6582C174.601 48.6582 174.505 48.6084 174.452 48.5179C174.37 48.3821 174.416 48.2063 174.551 48.1255C175.207 47.736 175.881 47.3539 176.555 46.9902C176.692 46.9151 176.868 46.9667 176.943 47.1059C177.018 47.2451 176.966 47.4186 176.827 47.4943C176.16 47.8546 175.493 48.2326 174.845 48.6176C174.799 48.6456 174.748 48.6582 174.698 48.6582ZM179.765 45.9912C179.656 45.9912 179.553 45.9299 179.505 45.825C179.439 45.6813 179.501 45.5111 179.644 45.4447C180.338 45.1239 181.048 44.8134 181.755 44.5219C181.902 44.4623 182.069 44.531 182.129 44.6777C182.189 44.8237 182.119 44.991 181.973 45.0517C181.273 45.3399 180.571 45.6475 179.884 45.9648C179.846 45.9831 179.805 45.9912 179.765 45.9912ZM209.22 45.9092C209.161 45.9092 209.101 45.8909 209.05 45.8525C208.442 45.4017 207.808 44.9847 207.164 44.6141C207.027 44.535 206.98 44.3603 207.058 44.2228C207.137 44.0848 207.312 44.0384 207.449 44.1174C208.113 44.4995 208.766 44.928 209.391 45.3926C209.518 45.4871 209.545 45.6658 209.45 45.793C209.395 45.8692 209.308 45.9092 209.22 45.9092ZM213.614 44.9022C213.601 44.9022 213.588 44.9016 213.575 44.8999C213.419 44.8787 213.309 44.7344 213.33 44.5774C213.432 43.8242 213.502 43.0652 213.539 42.3216C213.546 42.1641 213.686 42.0404 213.839 42.0495C213.997 42.0576 214.118 42.1922 214.111 42.3497C214.073 43.1098 214.002 43.8849 213.897 44.6548C213.878 44.798 213.755 44.9022 213.614 44.9022ZM141.691 44.6124C141.63 44.6124 141.569 44.5929 141.516 44.5534C141.39 44.4577 141.366 44.2778 141.463 44.1518C141.917 43.5572 142.411 42.9575 142.932 42.368C143.037 42.2489 143.219 42.2386 143.336 42.3434C143.455 42.4482 143.466 42.6292 143.361 42.7478C142.85 43.3269 142.364 43.917 141.917 44.5007C141.862 44.5734 141.777 44.6124 141.691 44.6124ZM185.082 43.8694C184.961 43.8694 184.85 43.7938 184.809 43.6735C184.76 43.5234 184.841 43.3613 184.99 43.3115C185.727 43.0669 186.469 42.8412 187.197 42.6413C187.352 42.6 187.507 42.6888 187.549 42.8418C187.591 42.9941 187.501 43.1522 187.349 43.1935C186.629 43.3911 185.897 43.6134 185.171 43.8551C185.142 43.8648 185.112 43.8694 185.082 43.8694ZM204.192 43.2101C204.16 43.2101 204.127 43.2049 204.095 43.1929C203.399 42.9414 202.672 42.7243 201.932 42.5462C201.778 42.5089 201.683 42.3543 201.72 42.2002C201.757 42.0467 201.905 41.9516 202.066 41.9888C202.826 42.1716 203.574 42.3955 204.29 42.6539C204.439 42.7077 204.516 42.8715 204.462 43.0205C204.419 43.1379 204.31 43.2101 204.192 43.2101ZM190.623 42.4379C190.488 42.4379 190.367 42.3411 190.342 42.2025C190.314 42.0467 190.417 41.8977 190.573 41.8691C191.34 41.7299 192.109 41.6165 192.858 41.5317C193.011 41.5099 193.157 41.6262 193.175 41.7837C193.193 41.9407 193.08 42.0828 192.923 42.1005C192.186 42.1842 191.43 42.2959 190.675 42.4328C190.657 42.4362 190.64 42.4379 190.623 42.4379ZM198.608 42.0066C198.599 42.0066 198.591 42.0066 198.583 42.0054C197.849 41.9401 197.087 41.9069 196.319 41.9063C196.162 41.9058 196.033 41.7775 196.033 41.6194C196.033 41.4613 196.162 41.3335 196.32 41.3335C197.104 41.3341 197.883 41.3685 198.633 41.4349C198.79 41.4492 198.907 41.5878 198.893 41.7454C198.88 41.8943 198.755 42.0066 198.608 42.0066ZM145.539 40.3775C145.463 40.3775 145.387 40.3477 145.331 40.2881C145.222 40.1735 145.227 39.9919 145.342 39.8831C145.877 39.3762 146.452 38.8566 147.052 38.3388C147.171 38.2362 147.352 38.2477 147.457 38.3686C147.56 38.4883 147.547 38.6693 147.427 38.7724C146.833 39.2845 146.265 39.7983 145.736 40.299C145.68 40.3517 145.609 40.3775 145.539 40.3775ZM213.758 39.1877C213.612 39.1877 213.487 39.076 213.474 38.9271C213.406 38.1721 213.3 37.4182 213.159 36.6879C213.129 36.5326 213.231 36.382 213.385 36.3522C213.539 36.3241 213.691 36.4232 213.721 36.579C213.866 37.3289 213.974 38.101 214.044 38.8755C214.057 39.033 213.942 39.1722 213.784 39.1866C213.776 39.1877 213.767 39.1877 213.758 39.1877ZM149.9 36.6684C149.815 36.6684 149.731 36.6306 149.674 36.5578C149.577 36.433 149.599 36.2531 149.724 36.1557C150.328 35.6854 150.939 35.2232 151.553 34.7655C151.679 34.671 151.859 34.6967 151.954 34.8245C152.049 34.9511 152.022 35.1309 151.895 35.2255C151.284 35.6803 150.676 36.1403 150.075 36.6077C150.024 36.6484 149.962 36.6684 149.9 36.6684ZM212.525 33.6112C212.408 33.6112 212.298 33.5391 212.255 33.4228C212.058 32.8832 211.836 32.3459 211.595 31.8263C211.52 31.6665 211.443 31.5067 211.365 31.348C211.294 31.2065 211.352 31.0347 211.493 30.9636C211.634 30.8932 211.807 30.9504 211.877 31.0925C211.959 31.2552 212.037 31.419 212.114 31.5834C212.364 32.1184 212.592 32.6707 212.794 33.2257C212.849 33.3747 212.772 33.5385 212.623 33.5929C212.59 33.6055 212.557 33.6112 212.525 33.6112ZM154.501 33.2555C154.412 33.2555 154.324 33.2143 154.269 33.1364C154.176 33.008 154.205 32.8288 154.333 32.7365L156.194 31.3978C156.322 31.3062 156.501 31.3348 156.593 31.4643C156.685 31.5932 156.656 31.7719 156.527 31.8641L154.668 33.2017C154.618 33.2383 154.559 33.2555 154.501 33.2555ZM159.176 29.9457C159.085 29.9457 158.995 29.9016 158.939 29.8203C158.851 29.6891 158.884 29.5109 159.015 29.4222C159.65 28.9914 160.288 28.5675 160.935 28.1556C161.066 28.0709 161.245 28.1092 161.33 28.2427C161.415 28.3762 161.376 28.5532 161.242 28.638C160.602 29.047 159.967 29.4674 159.338 29.8959C159.288 29.9297 159.232 29.9457 159.176 29.9457ZM209.778 28.6145C209.695 28.6145 209.613 28.5784 209.557 28.5096C209.067 27.9128 208.537 27.3823 207.98 26.9338C207.857 26.8341 207.838 26.6543 207.938 26.5311C208.038 26.4079 208.217 26.389 208.341 26.4881C208.927 26.9619 209.485 27.5192 210 28.1465C210.1 28.2685 210.081 28.4495 209.96 28.5497C209.907 28.5927 209.843 28.6145 209.778 28.6145ZM164.039 26.9223C163.939 26.9223 163.841 26.8691 163.788 26.774C163.712 26.6354 163.762 26.4612 163.901 26.385C164.592 26.0041 165.281 25.6478 165.95 25.3259C166.093 25.2577 166.264 25.3173 166.332 25.4599C166.401 25.6025 166.341 25.7738 166.198 25.842C165.539 26.1588 164.859 26.5105 164.177 26.8863C164.134 26.9109 164.086 26.9223 164.039 26.9223ZM205.199 25.276C205.162 25.276 205.124 25.2692 205.088 25.2537C204.457 24.989 203.76 24.7427 202.957 24.5004C202.805 24.4552 202.719 24.2954 202.765 24.1441C202.811 23.9923 202.969 23.9064 203.122 23.9522C203.945 24.2003 204.66 24.4529 205.309 24.7256C205.455 24.7868 205.524 24.9547 205.463 25.1002C205.417 25.2102 205.311 25.276 205.199 25.276ZM169.236 24.5256C169.12 24.5256 169.01 24.4546 168.967 24.3395C168.912 24.1911 168.987 24.0261 169.136 23.9706C169.848 23.7053 170.583 23.4556 171.321 23.2282C171.474 23.1818 171.633 23.2666 171.679 23.4178C171.726 23.569 171.641 23.7288 171.49 23.7758C170.761 23.9998 170.037 24.2461 169.336 24.5073C169.303 24.5199 169.269 24.5256 169.236 24.5256ZM199.716 23.6406C199.695 23.6406 199.673 23.6383 199.651 23.6332C198.911 23.459 198.167 23.2963 197.42 23.1451C197.265 23.1136 197.165 22.9624 197.196 22.8077C197.228 22.6525 197.377 22.5557 197.534 22.5838C198.286 22.7367 199.036 22.9005 199.781 23.0758C199.936 23.1119 200.031 23.2666 199.995 23.4201C199.964 23.5518 199.847 23.6406 199.716 23.6406ZM174.728 22.9171C174.597 22.9171 174.478 22.8261 174.449 22.692C174.415 22.5374 174.513 22.3844 174.668 22.3512C175.413 22.1879 176.175 22.0419 176.933 21.9176C177.087 21.8889 177.236 21.9972 177.262 22.1536C177.288 22.3094 177.182 22.4572 177.026 22.4824C176.278 22.6055 175.526 22.7493 174.79 22.9103C174.77 22.9148 174.749 22.9171 174.728 22.9171ZM194.094 22.5517C194.08 22.5517 194.065 22.5505 194.051 22.5488C193.296 22.4348 192.535 22.3334 191.789 22.2469C191.632 22.2286 191.52 22.0865 191.538 21.9296C191.556 21.7726 191.703 21.6575 191.856 21.6781C192.608 21.7646 193.375 21.8671 194.137 21.9823C194.293 22.0063 194.401 22.1518 194.377 22.3082C194.355 22.4497 194.233 22.5517 194.094 22.5517ZM180.387 22.0533C180.24 22.0533 180.115 21.9416 180.102 21.7927C180.088 21.6352 180.204 21.4959 180.361 21.4816C181.115 21.4135 181.889 21.3613 182.66 21.327C182.831 21.3109 182.952 21.4427 182.959 21.6002C182.966 21.7583 182.844 21.8923 182.685 21.8992C181.922 21.9336 181.158 21.9846 180.412 22.0522C180.404 22.0533 180.395 22.0533 180.387 22.0533ZM188.399 21.9479C188.393 21.9479 188.387 21.9479 188.382 21.9473C187.621 21.9027 186.855 21.8723 186.103 21.858C185.945 21.8551 185.82 21.7245 185.823 21.5658C185.826 21.4077 185.939 21.288 186.115 21.2852C186.873 21.3 187.648 21.3304 188.416 21.3757C188.574 21.3848 188.694 21.5206 188.685 21.6781C188.676 21.8305 188.549 21.9479 188.399 21.9479Z" fill="#50448C"/>
<path d="M142.976 175.357H69.0348C66.3036 175.357 64.0896 173.143 64.0896 170.411V25.162C64.0896 22.4308 66.3036 20.2168 69.0348 20.2168H142.976C145.708 20.2168 147.922 22.4308 147.922 25.162V170.411C147.922 173.143 145.708 175.357 142.976 175.357Z" fill="url(#paint1_linear_148_20000)"/>
<path d="M69.0354 171.918C68.2037 171.918 67.5266 171.242 67.5266 170.41V25.1616C67.5266 24.3298 68.2037 23.6533 69.0354 23.6533H142.976C143.808 23.6533 144.485 24.3298 144.485 25.1616V170.41C144.485 171.242 143.808 171.919 142.976 171.919L69.0354 171.918Z" fill="url(#paint2_linear_148_20000)"/>
<path d="M49.009 144.638C48.9666 144.638 48.923 144.628 48.8818 144.608C48.1973 144.268 47.5133 143.898 46.8506 143.505C46.7142 143.425 46.6695 143.249 46.7497 143.113C46.8305 142.978 47.0064 142.932 47.1421 143.012C47.7934 143.398 48.4642 143.762 49.1367 144.095C49.2782 144.165 49.3366 144.337 49.2662 144.479C49.2163 144.579 49.1144 144.638 49.009 144.638ZM44.1376 141.639C44.0781 141.639 44.0179 141.621 43.9664 141.582C43.3523 141.123 42.7468 140.636 42.1654 140.135C42.0457 140.031 42.0325 139.851 42.1356 139.73C42.2387 139.611 42.4197 139.597 42.5395 139.701C43.1106 140.193 43.7057 140.672 44.3089 141.123C44.4355 141.217 44.4619 141.397 44.3668 141.524C44.3112 141.6 44.2247 141.639 44.1376 141.639ZM39.8735 137.826C39.7973 137.826 39.7212 137.796 39.6644 137.736C39.1392 137.176 38.6271 136.591 38.143 135.997C38.0433 135.874 38.0617 135.694 38.1843 135.594C38.3068 135.494 38.4873 135.513 38.5875 135.635C39.0636 136.219 39.5665 136.794 40.0826 137.344C40.1909 137.459 40.1851 137.641 40.07 137.748C40.0144 137.801 39.944 137.826 39.8735 137.826ZM36.3375 133.329C36.2441 133.329 36.1524 133.283 36.0975 133.199C35.6759 132.553 35.2737 131.888 34.9031 131.221C34.8264 131.083 34.8762 130.908 35.0142 130.832C35.1534 130.754 35.327 130.805 35.4038 130.942C35.7681 131.597 36.1628 132.251 36.5769 132.886C36.6634 133.019 36.6262 133.196 36.4939 133.282C36.4452 133.314 36.3907 133.329 36.3375 133.329ZM33.6492 128.28C33.5375 128.28 33.4315 128.214 33.3851 128.104C33.2373 127.753 33.0958 127.398 32.9601 127.04C32.8226 126.676 32.6914 126.31 32.5666 125.942C32.5161 125.792 32.5963 125.63 32.7458 125.579C32.8959 125.53 33.0586 125.608 33.109 125.758C33.2316 126.119 33.3599 126.479 33.4957 126.837C33.6286 127.188 33.7678 127.536 33.9127 127.881C33.974 128.027 33.9052 128.195 33.7597 128.256C33.7237 128.272 33.6864 128.28 33.6492 128.28ZM31.8941 122.834C31.7646 122.834 31.6472 122.746 31.6157 122.614C31.4438 121.89 31.2846 121.131 31.1437 120.357C31.115 120.202 31.2181 120.053 31.3739 120.024C31.5297 120.001 31.6787 120.099 31.7073 120.254C31.8465 121.018 32.0035 121.768 32.173 122.482C32.2097 122.636 32.1146 122.79 31.9605 122.827C31.9382 122.832 31.9158 122.834 31.8941 122.834ZM30.9231 117.192C30.7799 117.192 30.6562 117.084 30.639 116.939C30.5536 116.209 30.4775 115.439 30.4127 114.649C30.3996 114.492 30.517 114.353 30.6745 114.34C30.8366 114.329 30.9707 114.445 30.9838 114.602C31.048 115.385 31.1236 116.149 31.2078 116.873C31.2261 117.03 31.1133 117.172 30.9569 117.191C30.9455 117.191 30.9346 117.192 30.9231 117.192ZM30.4838 111.482C30.3314 111.482 30.2048 111.362 30.1979 111.208C30.163 110.443 30.1361 109.678 30.1131 108.913C30.1086 108.756 30.2329 108.624 30.391 108.618C30.5416 108.617 30.6808 108.738 30.686 108.896C30.7083 109.657 30.7358 110.419 30.7702 111.182C30.7776 111.339 30.655 111.474 30.4969 111.48C30.4929 111.482 30.4883 111.482 30.4838 111.482ZM30.3285 105.756C30.1716 105.756 30.0438 105.629 30.0421 105.472C30.0381 105.09 30.0364 104.707 30.0364 104.323C30.0364 103.94 30.0381 103.558 30.0427 103.175C30.0438 103.017 30.1756 102.862 30.332 102.892C30.4901 102.894 30.6172 103.023 30.6155 103.182C30.6115 103.562 30.6092 103.942 30.6092 104.323C30.6092 104.704 30.6109 105.086 30.6149 105.467C30.6167 105.625 30.4895 105.754 30.3314 105.756C30.3314 105.756 30.3297 105.756 30.3285 105.756ZM30.4396 100.03C30.4345 100.03 30.4288 100.03 30.4236 100.029C30.2655 100.02 30.1446 99.8852 30.1538 99.7276C30.1979 98.9388 30.2546 98.1661 30.3234 97.4312C30.3383 97.2742 30.4797 97.1608 30.635 97.1728C30.7925 97.1877 30.9082 97.3275 30.8939 97.485C30.8257 98.2131 30.769 98.9784 30.7255 99.7591C30.7169 99.9115 30.5903 100.03 30.4396 100.03ZM31.0451 94.3362C31.0297 94.3362 31.0142 94.335 30.9982 94.3322C30.8423 94.3064 30.7364 94.1586 30.7622 94.0028C30.8893 93.2335 31.0365 92.4716 31.2004 91.7384C31.2347 91.5849 31.3888 91.4898 31.5423 91.5213C31.697 91.5563 31.7938 91.7092 31.7594 91.8639C31.5985 92.5862 31.453 93.3372 31.3275 94.0962C31.304 94.2365 31.1826 94.3362 31.0451 94.3362ZM32.3861 88.7729C32.3563 88.7729 32.3265 88.7683 32.2962 88.7586C32.1461 88.7087 32.0642 88.5466 32.114 88.3965C32.3558 87.6645 32.6267 86.9353 32.92 86.229C32.9807 86.0829 33.148 86.0136 33.2946 86.0743C33.4407 86.135 33.51 86.3029 33.4493 86.4489C33.1611 87.1421 32.8954 87.8575 32.6582 88.5764C32.6181 88.6967 32.5064 88.7729 32.3861 88.7729ZM62.3764 87.3941C62.3684 87.3941 62.361 87.3935 62.353 87.3935C61.5911 87.3311 60.8161 87.2005 60.0485 87.0051C59.895 86.9662 59.8027 86.8104 59.8417 86.6569C59.8806 86.5033 60.0359 86.4094 60.19 86.4501C60.9261 86.6374 61.6696 86.7628 62.3994 86.8224C62.5569 86.835 62.6743 86.9736 62.6617 87.1312C62.6491 87.2812 62.5237 87.3941 62.3764 87.3941ZM65.7928 87.1856C65.6645 87.1856 65.5482 87.0991 65.5155 86.9691C65.4772 86.8155 65.5699 86.6597 65.7235 86.6214C66.1405 86.5165 66.4779 86.3716 66.7568 86.1791C67.0118 86.0027 67.2329 85.7747 67.4133 85.5021C67.5004 85.3703 67.678 85.3336 67.8103 85.4213C67.942 85.5089 67.9781 85.6865 67.891 85.8183C67.6699 86.1516 67.3984 86.4312 67.0828 86.6494C66.7465 86.882 66.3473 87.055 65.8632 87.1764C65.8398 87.1827 65.8163 87.1856 65.7928 87.1856ZM56.91 85.8028C56.867 85.8028 56.8229 85.793 56.7817 85.7724C56.1011 85.4305 55.4258 85.0352 54.7745 84.597C54.6427 84.5088 54.6083 84.3306 54.6966 84.1994C54.7848 84.0683 54.9629 84.0333 55.0941 84.1215C55.7259 84.546 56.3807 84.9292 57.0394 85.2603C57.1809 85.3314 57.2376 85.5032 57.1666 85.6447C57.1156 85.7455 57.0148 85.8028 56.91 85.8028ZM34.6872 83.5367C34.639 83.5367 34.5909 83.5247 34.5462 83.5C34.4088 83.4221 34.3601 83.2474 34.438 83.1094C34.8212 82.4306 35.2336 81.7695 35.6627 81.144C35.752 81.0128 35.9308 80.9802 36.0608 81.0701C36.1914 81.1595 36.2246 81.3376 36.1347 81.4682C35.7148 82.08 35.3121 82.7273 34.9369 83.3918C34.8842 83.4846 34.7874 83.5367 34.6872 83.5367ZM68.2324 82.6305C68.091 82.6305 67.9678 82.5256 67.9489 82.3813C67.8527 81.6509 67.6613 80.9326 67.3801 80.2464C67.3199 80.0997 67.3898 79.9325 67.5365 79.8729C67.682 79.8127 67.8498 79.8826 67.9099 80.0287C68.2101 80.7602 68.414 81.5266 68.5171 82.3063C68.5378 82.4632 68.4272 82.607 68.2708 82.6276C68.2577 82.6293 68.2451 82.6305 68.2324 82.6305ZM52.2632 82.4878C52.1916 82.4878 52.12 82.4615 52.0644 82.4076C51.8868 82.2369 51.7127 82.0634 51.542 81.8869C51.1817 81.5146 50.8248 81.1199 50.48 80.7144C50.3774 80.5935 50.3923 80.4131 50.5132 80.3105C50.6346 80.208 50.8145 80.2235 50.9171 80.3437C51.2533 80.7401 51.6021 81.1251 51.9539 81.4888C52.1194 81.6601 52.289 81.8285 52.4614 81.9946C52.5754 82.104 52.5788 82.2856 52.4694 82.3996C52.4133 82.4586 52.3382 82.4878 52.2632 82.4878ZM38.0359 78.9048C37.966 78.9048 37.8967 78.8796 37.8417 78.8286C37.7254 78.7209 37.7186 78.5399 37.8257 78.4236C38.3567 77.8491 38.9158 77.3043 39.4886 76.8048C39.6066 76.7 39.7887 76.7126 39.8924 76.8323C39.9967 76.9515 39.9841 77.1325 39.8649 77.2362C39.3081 77.7225 38.7634 78.2529 38.2461 78.8126C38.19 78.8739 38.1127 78.9048 38.0359 78.9048ZM48.6429 78.0645C48.5501 78.0645 48.4591 78.0192 48.4041 77.9362C47.9979 77.3227 47.5906 76.661 47.1925 75.9708C47.1135 75.8339 47.1605 75.6586 47.2979 75.5795C47.4354 75.5005 47.6101 75.548 47.6892 75.685C48.081 76.3655 48.4825 77.0162 48.8824 77.62C48.9694 77.7517 48.9334 77.9299 48.8016 78.0169C48.7518 78.049 48.6973 78.0645 48.6429 78.0645ZM65.8077 77.5415C65.7292 77.5415 65.6513 77.5094 65.5946 77.4464C65.1134 76.9108 64.5601 76.401 63.95 75.9313C63.8246 75.8345 63.8016 75.6552 63.8979 75.5297C63.9941 75.4043 64.1734 75.3802 64.2994 75.4776C64.9364 75.9679 65.5155 76.5018 66.0202 77.0637C66.1262 77.1812 66.1159 77.3622 65.9984 77.4682C65.9446 77.5174 65.8758 77.5415 65.8077 77.5415ZM42.4484 75.2834C42.351 75.2834 42.2559 75.2341 42.2026 75.1442C42.1213 75.009 42.1648 74.8332 42.3006 74.7512C42.5962 74.5737 42.8969 74.4041 43.2034 74.2426C43.5791 74.0444 43.9698 73.8553 44.3656 73.6806C44.5117 73.617 44.6801 73.6824 44.7437 73.8267C44.8073 73.9711 44.742 74.1406 44.5976 74.2048C44.2144 74.3738 43.8352 74.5576 43.4709 74.7495C43.1736 74.9059 42.8826 75.0703 42.5962 75.2422C42.5492 75.2702 42.4982 75.2834 42.4484 75.2834ZM61.1855 74.222C61.1454 74.222 61.1042 74.2134 61.0652 74.195C60.3933 73.8828 59.6864 73.6079 58.9647 73.3788C58.814 73.3306 58.7304 73.1697 58.7785 73.019C58.8261 72.8684 58.9865 72.7842 59.1383 72.8328C59.8829 73.0694 60.6127 73.353 61.307 73.6761C61.4508 73.7425 61.5126 73.9126 61.4456 74.0564C61.3969 74.1607 61.2932 74.222 61.1855 74.222ZM47.7316 73.1261C47.6027 73.1261 47.4858 73.0385 47.4537 72.9079C47.4159 72.7544 47.5099 72.5991 47.6634 72.5619C48.4052 72.3797 49.1728 72.2354 49.9438 72.1317C50.1002 72.1099 50.2446 72.2211 50.2658 72.3775C50.2869 72.5344 50.1764 72.6782 50.02 72.6994C49.269 72.7996 48.5215 72.9405 47.7997 73.1175C47.7768 73.1238 47.7539 73.1261 47.7316 73.1261ZM45.8326 73.0769C45.7267 73.0769 45.6253 73.0179 45.5754 72.9171C45.2375 72.2291 44.911 71.5348 44.5919 70.8388C44.526 70.6951 44.589 70.5249 44.7334 70.4591C44.8772 70.392 45.0467 70.4568 45.1132 70.6C45.4299 71.2914 45.7542 71.9811 46.0898 72.6639C46.1597 72.8059 46.1013 72.9772 45.9592 73.0471C45.918 73.0671 45.875 73.0769 45.8326 73.0769ZM55.6956 72.6656C55.6847 72.6656 55.6738 72.665 55.6629 72.6639L55.5673 72.653C54.8484 72.5716 54.1209 72.5241 53.4054 72.5109C53.2473 72.5081 53.1213 72.3775 53.1241 72.2194C53.127 72.0613 53.2422 71.9215 53.4157 71.9381C54.1489 71.9518 54.8948 72.0011 55.632 72.0842L55.7276 72.0956C55.8846 72.1134 55.9974 72.2554 55.9797 72.4124C55.9631 72.5579 55.8393 72.6656 55.6956 72.6656ZM43.4583 67.8642C43.3472 67.8642 43.2418 67.7994 43.1954 67.6906C42.8935 66.9872 42.5979 66.2791 42.3149 65.5665C42.2565 65.4193 42.3287 65.2532 42.4753 65.1948C42.6214 65.1369 42.7886 65.208 42.8471 65.3552C43.1278 66.0626 43.4216 66.766 43.7212 67.4649C43.7836 67.6104 43.7166 67.7788 43.5711 67.8412C43.5345 67.8561 43.4961 67.8642 43.4583 67.8642ZM41.4133 62.5151C41.2918 62.5151 41.1796 62.4378 41.1406 62.3158C40.8977 61.5573 40.6841 60.8104 40.5054 60.0961C40.467 59.9425 40.5603 59.7873 40.7133 59.7489C40.8685 59.7105 41.0226 59.8033 41.0604 59.9569C41.2363 60.6597 41.4465 61.3947 41.6859 62.141C41.7341 62.2917 41.651 62.4532 41.5004 62.5014C41.4717 62.5105 41.4419 62.5151 41.4133 62.5151ZM40.1508 56.9369C40.0076 56.9369 39.8838 56.8304 39.8667 56.6843C39.7739 55.903 39.7206 55.1245 39.7086 54.3701C39.7063 54.212 39.8323 54.0819 39.9904 54.0791C40.1514 54.0533 40.2785 54.2028 40.2814 54.3609C40.2928 55.0953 40.3444 55.8543 40.4355 56.6161C40.4544 56.7731 40.3421 56.9157 40.1851 56.9346C40.1737 56.9363 40.1622 56.9369 40.1508 56.9369Z" fill="#50448C"/>
<mask id="mask0_148_20000" style="mask-type:luminance" maskUnits="userSpaceOnUse" x="32" y="9" width="113" height="172">
<path d="M40.5823 169.095L32.71 11.1857C63.1941 2.66779 142.976 23.6533 142.976 23.6533C143.807 23.6533 144.484 24.3298 144.484 25.1615V170.41C144.484 171.242 143.807 171.919 142.976 171.919C142.976 171.919 84.1143 192.972 40.5823 169.095Z" fill="white"/>
</mask>
<g mask="url(#mask0_148_20000)">
<path d="M131.931 111.136L121.324 138.321C119.768 142.307 122.073 146.751 126.226 147.776C129.628 148.616 133.134 146.842 134.472 143.603L146.633 114.184C146.633 114.184 135.782 106.591 131.931 111.136Z" fill="url(#paint3_linear_148_20000)"/>
<path d="M80.8833 42.5244L103.321 63.5242C116.072 75.4574 131.67 83.9214 148.625 88.1065L152.815 89.141C154.481 97.9901 152.225 107.127 146.633 114.184L142.443 113.15C125.488 108.965 107.743 109.198 90.9038 113.828L61.2715 121.974L80.8833 42.5244Z" fill="url(#paint4_linear_148_20000)"/>
<path d="M63.4599 80.3701C58.0444 102.309 57.0648 120.937 61.2722 121.975C65.4791 123.014 73.2798 106.07 78.6953 84.1307C84.1108 62.1915 85.0904 43.5643 80.8835 42.5258C76.6761 41.4872 68.8754 58.4303 63.4599 80.3701Z" fill="url(#paint5_linear_148_20000)"/>
<mask id="mask1_148_20000" style="mask-type:luminance" maskUnits="userSpaceOnUse" x="58" y="42" width="26" height="81">
<path d="M78.696 84.1226C84.1104 62.1824 85.0889 43.5546 80.8814 42.5163C76.674 41.478 68.8739 58.4223 63.4595 80.3626C58.045 102.303 57.0666 120.931 61.274 121.969C65.4814 123.007 73.2815 106.063 78.696 84.1226Z" fill="white"/>
</mask>
<g mask="url(#mask1_148_20000)">
<path d="M72.6279 91.9507L76.8301 92.988C81.6803 94.1852 86.5819 91.2243 87.7791 86.3742C88.9763 81.5241 86.0154 76.6224 81.1653 75.4252L76.963 74.3878C72.1129 73.1906 67.2112 76.1515 66.014 81.0016C64.8168 85.8512 67.7778 90.7534 72.6279 91.9507Z" fill="url(#paint6_radial_148_20000)"/>
</g>
</g>
<path d="M112.384 44.7969C112.233 44.7969 112.106 44.6778 112.099 44.5249C112.061 43.7676 112.006 43.0023 111.936 42.2513C111.922 42.0938 112.037 41.954 112.195 41.9397C112.349 41.9242 112.492 42.0405 112.506 42.1986C112.577 42.9576 112.632 43.7309 112.67 44.4968C112.679 44.6549 112.557 44.7889 112.399 44.7969C112.394 44.7969 112.389 44.7969 112.384 44.7969ZM111.792 39.1013C111.654 39.1013 111.532 39.0011 111.51 38.8602C111.39 38.1035 111.253 37.3496 111.102 36.6187C111.07 36.464 111.17 36.3122 111.325 36.2802C111.472 36.2504 111.631 36.3477 111.663 36.503C111.816 37.2425 111.954 38.0049 112.076 38.7702C112.101 38.9266 111.995 39.0733 111.838 39.0979C111.822 39.1002 111.807 39.1013 111.792 39.1013ZM41.6638 33.9705C41.6421 33.9705 41.6203 33.9682 41.5985 33.9631C41.4444 33.927 41.3482 33.7735 41.3843 33.6194C41.4232 33.4515 41.4645 33.2843 41.5069 33.1176C41.5458 32.9641 41.7011 32.8707 41.8551 32.9108C42.0087 32.9497 42.1009 33.1056 42.0619 33.2591C42.0207 33.4218 41.9806 33.585 41.9422 33.7488C41.9119 33.8812 41.7939 33.9705 41.6638 33.9705ZM110.573 33.506C110.448 33.506 110.333 33.4229 110.298 33.2969C110.093 32.5642 109.867 31.8316 109.629 31.1201C109.579 30.9701 109.659 30.8079 109.81 30.7575C109.96 30.7077 110.122 30.7879 110.172 30.938C110.413 31.6586 110.641 32.4004 110.849 33.1422C110.892 33.2946 110.803 33.4527 110.65 33.4951C110.625 33.5025 110.599 33.506 110.573 33.506ZM42.8335 30.2042C42.7986 30.2042 42.7637 30.1979 42.7299 30.1847C42.5826 30.1274 42.5093 29.9613 42.5666 29.8141C42.8427 29.1032 43.1526 28.3895 43.4877 27.6923C43.5564 27.5497 43.7272 27.4896 43.8698 27.5583C44.0124 27.627 44.0726 27.7977 44.0038 27.9404C43.6756 28.6238 43.3714 29.3238 43.1005 30.0209C43.0564 30.1343 42.9481 30.2042 42.8335 30.2042ZM108.679 28.1019C108.568 28.1019 108.463 28.0366 108.416 27.9283C108.117 27.2284 107.796 26.5335 107.462 25.8639C107.391 25.7224 107.449 25.5505 107.59 25.4801C107.733 25.4091 107.904 25.4675 107.974 25.6084C108.313 26.2883 108.639 26.9929 108.943 27.7032C109.005 27.8487 108.938 28.0171 108.792 28.0796C108.755 28.0945 108.717 28.1019 108.679 28.1019ZM45.4061 25.0957C45.354 25.0957 45.3013 25.082 45.2543 25.0522C45.1203 24.968 45.0796 24.791 45.1638 24.6575C45.5694 24.0108 46.0064 23.3669 46.4618 22.7448C46.5552 22.6171 46.7345 22.5896 46.8622 22.683C46.99 22.7763 47.0175 22.9556 46.9241 23.0834C46.4767 23.6946 46.0477 24.3264 45.6496 24.9623C45.5946 25.0487 45.5018 25.0957 45.4061 25.0957ZM106.04 23.0215C105.945 23.0215 105.851 22.974 105.797 22.8869C105.394 22.2419 104.967 21.6084 104.529 21.004C104.436 20.8757 104.465 20.6964 104.592 20.6036C104.721 20.5102 104.899 20.5395 104.993 20.6672C105.439 21.2824 105.874 21.9274 106.283 22.5839C106.367 22.7179 106.326 22.8949 106.192 22.9785C106.145 23.0078 106.092 23.0215 106.04 23.0215ZM48.8643 20.5383C48.7955 20.5383 48.7268 20.5143 48.6724 20.4644C48.5549 20.3579 48.5458 20.1774 48.6523 20.06C49.165 19.494 49.7057 18.9361 50.2608 18.4011C50.3748 18.2917 50.5564 18.2951 50.6658 18.4085C50.7758 18.5225 50.7723 18.7035 50.6584 18.8135C50.113 19.3394 49.5809 19.8882 49.0768 20.4449C49.0201 20.5068 48.9427 20.5383 48.8643 20.5383ZM102.591 18.459C102.513 18.459 102.436 18.4274 102.379 18.3662C101.866 17.8054 101.329 17.2646 100.782 16.7577C100.666 16.65 100.66 16.469 100.767 16.3532C100.874 16.237 101.056 16.2295 101.172 16.3378C101.73 16.855 102.278 17.4078 102.802 17.9795C102.909 18.0964 102.901 18.2774 102.784 18.3839C102.729 18.4337 102.66 18.459 102.591 18.459ZM53.0493 16.6356C52.9646 16.6356 52.8809 16.5984 52.8242 16.5268C52.7263 16.4025 52.7475 16.2221 52.8718 16.1247C53.4732 15.651 54.0999 15.191 54.7334 14.7562C54.8646 14.6674 55.0422 14.7001 55.1316 14.8307C55.2209 14.9613 55.1877 15.1394 55.0571 15.2288C54.4339 15.6561 53.8175 16.1086 53.2263 16.5744C53.1736 16.6156 53.1112 16.6356 53.0493 16.6356ZM98.3187 14.6663C98.2614 14.6663 98.203 14.6491 98.1526 14.613C97.5385 14.1754 96.8992 13.7618 96.2525 13.3831C96.1162 13.3029 96.0703 13.1277 96.1499 12.9913C96.2301 12.8544 96.4049 12.8092 96.5423 12.8888C97.2034 13.276 97.8575 13.6999 98.4854 14.1467C98.6142 14.2384 98.644 14.4171 98.5524 14.546C98.4962 14.6245 98.4086 14.6663 98.3187 14.6663ZM57.8238 13.4822C57.7225 13.4822 57.6239 13.4284 57.5718 13.3333C57.4962 13.1947 57.5472 13.0205 57.6858 12.9444C57.9235 12.8143 58.1618 12.6877 58.4024 12.564C58.8463 12.3349 59.2954 12.1149 59.7485 11.9047C59.8929 11.8382 60.0624 11.9007 60.1289 12.0439C60.1953 12.1871 60.1329 12.3572 59.9897 12.4242C59.544 12.631 59.1024 12.8475 58.6647 13.0727C58.4287 13.1941 58.1945 13.3196 57.9607 13.4467C57.9172 13.4708 57.8702 13.4822 57.8238 13.4822ZM93.3271 11.8818C93.2892 11.8818 93.2514 11.8743 93.2148 11.8588C92.5354 11.569 91.8222 11.2958 91.0953 11.0466C90.9458 10.995 90.8662 10.8323 90.9172 10.6828C90.9687 10.5333 91.1314 10.4548 91.2809 10.5047C92.021 10.7584 92.7474 11.0368 93.4399 11.3318C93.5854 11.3937 93.653 11.5621 93.5911 11.7076C93.5442 11.8165 93.4382 11.8818 93.3271 11.8818ZM63.0486 11.1514C62.9306 11.1514 62.8206 11.0787 62.7788 10.9612C62.7261 10.8123 62.8034 10.6485 62.9524 10.5952C63.6701 10.3397 64.4091 10.1014 65.1491 9.8866C65.3015 9.84192 65.4602 9.93014 65.5037 10.0819C65.5478 10.2337 65.4602 10.393 65.3084 10.4365C64.5798 10.6479 63.8517 10.8827 63.1448 11.1348C63.1133 11.1457 63.0807 11.1514 63.0486 11.1514ZM87.8886 10.1049C87.8663 10.1049 87.8434 10.1026 87.821 10.0968C87.1039 9.92326 86.3552 9.76287 85.595 9.61967C85.4398 9.59045 85.3373 9.44037 85.3671 9.28514C85.3963 9.1299 85.5441 9.02794 85.7016 9.05715C86.4703 9.20207 87.2287 9.36476 87.9562 9.54062C88.1103 9.57785 88.2043 9.73251 88.167 9.8866C88.135 10.0166 88.0181 10.1049 87.8886 10.1049ZM68.5672 9.63342C68.4332 9.63342 68.314 9.53947 68.2865 9.40314C68.2556 9.2479 68.3564 9.09725 68.5116 9.06631C69.2592 8.91738 70.0239 8.78677 70.7852 8.67794C70.9416 8.65388 71.0871 8.76444 71.1094 8.92082C71.1317 9.0772 71.0229 9.2227 70.8665 9.24504C70.115 9.35216 69.3606 9.48104 68.6239 9.62769C68.6044 9.6317 68.5855 9.63342 68.5672 9.63342ZM82.2509 9.11157C82.24 9.11157 82.2291 9.111 82.2182 9.10985C81.465 9.02393 80.7014 8.95576 79.9498 8.90764C79.7923 8.89733 79.6726 8.76157 79.6823 8.60347C79.6926 8.44537 79.825 8.32966 79.9865 8.33596C80.7472 8.38465 81.5194 8.45396 82.2824 8.54046C82.4393 8.55822 82.5522 8.70028 82.5344 8.85723C82.5184 9.0033 82.3947 9.11157 82.2509 9.11157ZM74.2433 8.89905C74.0933 8.89905 73.9672 8.78219 73.9575 8.63039C73.9478 8.47286 74.0675 8.33653 74.2256 8.32679C74.9869 8.27925 75.7619 8.25118 76.5301 8.24316C76.6784 8.25061 76.8176 8.36804 76.8193 8.52671C76.8211 8.68481 76.6945 8.81427 76.5358 8.81599C75.7779 8.82458 75.0126 8.85208 74.2605 8.89905C74.2554 8.89905 74.2496 8.89905 74.2433 8.89905Z" fill="#50448C"/>
<path d="M142.176 66.2355C150.098 66.2355 156.521 59.8129 156.521 51.8902C156.521 43.9675 150.098 37.5449 142.176 37.5449C134.253 37.5449 127.83 43.9675 127.83 51.8902C127.83 59.8129 134.253 66.2355 142.176 66.2355Z" fill="url(#paint7_linear_148_20000)"/>
<path d="M142.176 63.5461C148.613 63.5461 153.832 58.3276 153.832 51.8903C153.832 45.4529 148.613 40.2344 142.176 40.2344C135.738 40.2344 130.52 45.4529 130.52 51.8903C130.52 58.3276 135.738 63.5461 142.176 63.5461Z" fill="url(#paint8_linear_148_20000)"/>
<path d="M142.176 45.6855L144.191 49.7704L148.699 50.4251L145.437 53.6049L146.207 58.0941L142.176 55.9747L138.143 58.0941L138.914 53.6049L135.652 50.4251L140.16 49.7704L142.176 45.6855Z" fill="url(#paint9_linear_148_20000)"/>
<path d="M111.542 53.1222C115.648 53.1222 118.976 49.7938 118.976 45.688C118.976 41.5823 115.648 38.2539 111.542 38.2539C107.436 38.2539 104.108 41.5823 104.108 45.688C104.108 49.7938 107.436 53.1222 111.542 53.1222Z" fill="url(#paint10_linear_148_20000)"/>
<path d="M111.542 47.0462C110.973 47.0462 110.513 46.585 110.513 46.0168V42.1221C110.513 41.5533 110.974 41.0928 111.542 41.0928C112.111 41.0928 112.571 41.5539 112.571 42.1221V46.0168C112.571 46.5856 112.11 47.0462 111.542 47.0462Z" fill="url(#paint11_linear_148_20000)"/>
<path d="M112.571 49.251C112.571 49.8199 112.11 50.2804 111.542 50.2804C110.973 50.2804 110.513 49.8193 110.513 49.251C110.513 48.6828 110.974 48.2217 111.542 48.2217C112.11 48.2217 112.571 48.6822 112.571 49.251Z" fill="url(#paint12_linear_148_20000)"/>
<path d="M173.111 141.85C178.189 141.85 182.305 137.734 182.305 132.657C182.305 127.58 178.189 123.464 173.111 123.464C168.034 123.464 163.918 127.58 163.918 132.657C163.918 137.734 168.034 141.85 173.111 141.85Z" fill="url(#paint13_linear_148_20000)"/>
<path d="M173.111 140.386C177.381 140.386 180.842 136.925 180.842 132.656C180.842 128.387 177.381 124.926 173.111 124.926C168.842 124.926 165.381 128.387 165.381 132.656C165.381 136.925 168.842 140.386 173.111 140.386Z" fill="url(#paint14_linear_148_20000)"/>
<path d="M175.131 133.856L174.619 134.726C174.506 134.815 174.386 134.802 173.755 134.567C173.602 134.512 173.43 134.439 173.248 134.388C173.277 133.987 173.268 133.581 173.221 133.178C173.207 133.082 173.186 132.987 173.157 132.894L174.104 132.862L174.005 131.433L172.305 131.491C172.201 131.341 172.111 131.182 172.034 131.016C171.96 130.82 171.926 130.611 171.933 130.404C171.941 130.196 171.99 129.994 172.077 129.811C172.25 129.504 172.589 129.34 173.081 129.324C173.23 129.308 173.382 129.324 173.528 129.373C173.673 129.421 173.809 129.499 173.927 129.604C174.349 130.008 174.412 130.749 174.413 130.759L174.426 130.944L175.77 130.912L175.758 130.721C175.754 130.668 175.67 129.394 174.816 128.571C174.565 128.333 174.272 128.151 173.957 128.035C173.641 127.919 173.31 127.872 172.982 127.896C171.784 127.937 171.196 128.54 170.914 129.04C170.717 129.413 170.604 129.833 170.583 130.267C170.563 130.701 170.636 131.139 170.796 131.547L170.284 131.564L170.39 132.985L171.684 132.941C171.774 133.055 171.844 133.186 171.891 133.326C171.922 133.601 171.928 133.878 171.909 134.152C171.525 134.187 171.166 134.349 170.883 134.616C170.6 134.883 170.407 135.241 170.331 135.64L170.297 135.822L171.616 136.156L171.653 135.975C171.701 135.725 171.875 135.476 172.405 135.606C172.729 135.689 173.049 135.792 173.364 135.914C173.761 136.092 174.183 136.193 174.608 136.212C174.846 136.206 175.077 136.138 175.28 136.015C175.483 135.891 175.652 135.716 175.773 135.503L176.291 134.643L175.131 133.856Z" fill="#FFC431"/>
<path d="M194.854 78.9865C201.955 78.9865 207.711 73.2304 207.711 66.13C207.711 59.0295 201.955 53.2734 194.854 53.2734C187.754 53.2734 181.998 59.0295 181.998 66.13C181.998 73.2304 187.754 78.9865 194.854 78.9865Z" fill="url(#paint15_linear_148_20000)"/>
<path d="M194.854 76.9399C200.824 76.9399 205.664 72.1002 205.664 66.1301C205.664 60.16 200.824 55.3203 194.854 55.3203C188.884 55.3203 184.044 60.16 184.044 66.1301C184.044 72.1002 188.884 76.9399 194.854 76.9399Z" fill="url(#paint16_linear_148_20000)"/>
<path d="M197.402 69.7776L195.996 70.9335C195.745 71.0183 195.541 70.9335 194.562 70.2091C194.323 70.0358 194.061 69.8238 193.769 69.6427C194.051 68.9981 194.269 68.3269 194.42 67.6391C194.45 67.4739 194.467 67.3063 194.47 67.1382L196.161 67.5929L196.809 65.1924L193.772 64.3756C193.676 64.0741 193.608 63.7646 193.568 63.4508C193.551 63.0886 193.61 62.7267 193.743 62.3893C193.876 62.0518 194.079 61.7465 194.339 61.4935C194.82 61.0812 195.514 60.9926 196.392 61.2314C196.665 61.2845 196.924 61.3929 197.154 61.55C197.383 61.7071 197.578 61.9094 197.726 62.1446C198.238 63.0347 197.922 64.2869 197.918 64.3024L197.834 64.6145L200.226 65.281L200.315 64.9612C200.338 64.8726 200.924 62.7342 199.891 60.9232C199.584 60.3983 199.172 59.9418 198.682 59.582C198.192 59.2221 197.633 58.9666 197.04 58.831C194.901 58.2569 193.514 58.9312 192.728 59.6016C192.165 60.1099 191.724 60.7387 191.438 61.4412C191.152 62.1437 191.028 62.9018 191.075 63.6589L190.162 63.4123L189.53 65.8051L191.842 66.4254C191.935 66.6624 191.983 66.9145 191.985 67.1691C191.881 67.638 191.732 68.096 191.541 68.5369C190.843 68.3882 190.115 68.4625 189.461 68.7494C188.807 69.0363 188.26 69.5213 187.896 70.1359L187.731 70.4172L189.869 71.6733L190.039 71.3959C190.266 71.0106 190.717 70.6946 191.58 71.1917C192.104 71.5026 192.61 71.8435 193.094 72.2128C193.694 72.7179 194.381 73.1096 195.121 73.3687C195.545 73.4867 195.991 73.4993 196.421 73.4053C196.851 73.3112 197.251 73.1135 197.587 72.8293L198.997 71.6926L197.402 69.7776Z" fill="#FFC431"/>
<path d="M29.7725 121.029C36.873 121.029 42.6291 115.273 42.6291 108.173C42.6291 101.072 36.873 95.3164 29.7725 95.3164C22.6721 95.3164 16.916 101.072 16.916 108.173C16.916 115.273 22.6721 121.029 29.7725 121.029Z" fill="url(#paint17_linear_148_20000)"/>
<path d="M29.7725 118.984C35.7426 118.984 40.5823 114.144 40.5823 108.174C40.5823 102.204 35.7426 97.3643 29.7725 97.3643C23.8024 97.3643 18.9626 102.204 18.9626 108.174C18.9626 114.144 23.8024 118.984 29.7725 118.984Z" fill="url(#paint18_linear_148_20000)"/>
<path d="M22.8213 105.228C22.8213 103.303 23.9962 102.079 25.6608 102.079C27.3249 102.079 28.4837 103.287 28.4837 105.228C28.4837 107.171 27.3254 108.378 25.6608 108.378C23.9962 108.378 22.8213 107.154 22.8213 105.228ZM26.8517 105.228C26.8517 104.004 26.3785 103.417 25.6608 103.417C24.9585 103.417 24.4693 104.022 24.4693 105.228C24.4693 106.436 24.9585 107.04 25.6608 107.04C26.3785 107.04 26.8517 106.452 26.8517 105.228ZM32.4654 102.209H34.4079L26.6077 113.632H24.6652L32.4654 102.209ZM30.5888 110.614C30.5888 108.688 31.7643 107.464 33.4123 107.464C35.0769 107.464 36.2518 108.688 36.2518 110.614C36.2518 112.539 35.0769 113.763 33.4123 113.763C31.7637 113.763 30.5888 112.539 30.5888 110.614ZM34.6032 110.614C34.6032 109.406 34.13 108.802 33.4117 108.802C32.71 108.802 32.2208 109.39 32.2208 110.614C32.2208 111.838 32.71 112.425 33.4117 112.425C34.13 112.425 34.6032 111.821 34.6032 110.614Z" fill="#FFC431"/>
<path d="M171.539 29.0205C172.187 32.5136 174.92 35.2466 178.413 35.8944C174.92 36.5423 172.187 39.2752 171.539 42.7683C170.891 39.2752 168.158 36.5423 164.665 35.8944C168.158 35.2466 170.891 32.5136 171.539 29.0205Z" fill="url(#paint19_linear_148_20000)"/>
<path d="M25.8368 67.8096C26.4847 71.3027 29.2176 74.0356 32.7107 74.6835C29.2176 75.3314 26.4847 78.0643 25.8368 81.5574C25.1889 78.0643 22.456 75.3314 18.9629 74.6835C22.456 74.0362 25.1889 71.3032 25.8368 67.8096Z" fill="url(#paint20_linear_148_20000)"/>
<path d="M160.706 157.485C161.146 159.861 163.005 161.721 165.382 162.161C163.005 162.602 161.146 164.461 160.706 166.837C160.265 164.461 158.406 162.602 156.03 162.161C158.406 161.721 160.265 159.862 160.706 157.485Z" fill="url(#paint21_linear_148_20000)"/>
<path d="M52.0202 0C52.4607 2.37608 54.3201 4.23548 56.6962 4.67598C54.3201 5.11648 52.4607 6.97588 52.0202 9.35196C51.5797 6.97588 49.7203 5.11648 47.3442 4.67598C49.7203 4.23605 51.5797 2.37666 52.0202 0Z" fill="url(#paint22_linear_148_20000)"/>
<path d="M176.215 97.7529C176.656 100.129 178.515 101.988 180.891 102.429C178.515 102.869 176.656 104.729 176.215 107.105C175.775 104.729 173.915 102.869 171.539 102.429C173.915 101.988 175.775 100.129 176.215 97.7529Z" fill="url(#paint23_linear_148_20000)"/>
<path d="M71.3958 67.8097L63.2645 58.2269H28.1267C23.7967 58.2269 20.2859 54.7166 20.2859 50.386V34.124C20.2859 29.7941 23.7962 26.2832 28.1267 26.2832H63.5549C67.8855 26.2832 71.3958 29.7935 71.3958 34.124V67.8097Z" fill="url(#paint24_linear_148_20000)"/>
<path d="M61.9099 33.53H29.7726C29.2977 33.53 28.9133 33.1456 28.9133 32.6708C28.9133 32.1959 29.2977 31.8115 29.7726 31.8115H61.9099C62.3847 31.8115 62.7691 32.1959 62.7691 32.6708C62.7691 33.1456 62.3847 33.53 61.9099 33.53Z" fill="#F0EBFF"/>
<path d="M61.9099 40.0163H29.7726C29.2977 40.0163 28.9133 39.632 28.9133 39.1571C28.9133 38.6822 29.2977 38.2979 29.7726 38.2979H61.9099C62.3847 38.2979 62.7691 38.6822 62.7691 39.1571C62.7691 39.632 62.3847 40.0163 61.9099 40.0163Z" fill="#F0EBFF"/>
<path d="M61.9099 46.5007H29.7726C29.2977 46.5007 28.9133 46.1163 28.9133 45.6415C28.9133 45.1666 29.2977 44.7822 29.7726 44.7822H61.9099C62.3847 44.7822 62.7691 45.1666 62.7691 45.6415C62.7691 46.1163 62.3847 46.5007 61.9099 46.5007Z" fill="#F0EBFF"/>
<path d="M61.9099 52.987H29.7726C29.2977 52.987 28.9133 52.6027 28.9133 52.1278C28.9133 51.6529 29.2977 51.2686 29.7726 51.2686H61.9099C62.3847 51.2686 62.7691 51.6529 62.7691 52.1278C62.7691 52.6021 62.3847 52.987 61.9099 52.987Z" fill="#F0EBFF"/>
<path d="M66.0651 167.61C77.3584 167.61 86.5133 158.455 86.5133 147.162C86.5133 135.869 77.3584 126.714 66.0651 126.714C54.7719 126.714 45.6169 135.869 45.6169 147.162C45.6169 158.455 54.7719 167.61 66.0651 167.61Z" fill="url(#paint25_linear_148_20000)"/>
<path d="M66.0654 163.776C75.2412 163.776 82.6797 156.338 82.6797 147.162C82.6797 137.986 75.2412 130.548 66.0654 130.548C56.8896 130.548 49.4512 137.986 49.4512 147.162C49.4512 156.338 56.8896 163.776 66.0654 163.776Z" fill="url(#paint26_linear_148_20000)"/>
<path d="M71.17 145.221C66.8561 144.443 65.1319 141.332 65.0013 139.258C64.8706 137.185 64.0716 135.683 62.5713 136.43C61.0711 137.177 60.7165 141.491 61.601 143.759C57.763 143.162 54.1817 143.615 53.8306 145.505C57.5809 148.817 56.2765 152.603 54.88 154.461C56.7027 155.742 64.7704 156.405 66.7415 156.108C68.7126 155.809 70.352 153.049 72.1444 153.124C73.9368 153.199 75.7291 153.275 75.7291 153.275L76.0505 145.617C76.0505 145.617 73.3296 145.611 71.17 145.221Z" fill="url(#paint27_linear_148_20000)"/>
<path d="M67.2877 150.515C65.2714 149.899 63.6222 147.669 63.2722 146.804C63.29 148.635 65.6288 150.553 67.2877 150.515Z" fill="#F9E6E1"/>
<path d="M57.2966 155.269C60.0302 155.622 61.8729 155.212 62.5661 154.234C63.2586 153.256 62.6886 152.399 61.9085 151.85L57.2966 155.269Z" fill="#F9E6E1"/>
<path d="M61.5239 152.109C62.4359 152.327 63.1233 153.937 61.2811 154.682C59.4389 155.427 56.4166 155.659 54.7205 154.43C53.9712 153.888 53.7776 152.527 55.9544 152.033C58.1311 151.538 60.2391 151.803 61.5239 152.109Z" fill="url(#paint28_linear_148_20000)"/>
<path d="M55.344 152.807C57.1169 153.295 60.6741 153.688 62.081 152.445C63.4879 151.201 61.5614 149.497 61.5614 149.497L55.344 152.807Z" fill="#F9E6E1"/>
<path d="M61.0912 149.54C62.0031 149.758 63.0864 151.775 61.2447 152.52C59.4025 153.266 54.4619 153.061 53.9635 152.281C53.4652 151.502 53.4503 150.096 55.627 149.602C57.8032 149.108 59.8058 149.234 61.0912 149.54Z" fill="url(#paint29_linear_148_20000)"/>
<path d="M61.5443 146.788C62.7673 147.995 62.5765 149.133 62.2455 149.602C61.9144 150.07 60.8947 150.976 56.2188 150.327C56.5241 150.289 61.5443 146.788 61.5443 146.788Z" fill="#F9E6E1"/>
<path d="M60.9014 146.812C61.8827 147.046 63.1206 149.425 61.0664 150.018C59.195 150.558 53.9004 150.528 53.3642 149.69C52.828 148.851 52.812 147.338 55.1543 146.806C57.4966 146.274 59.5181 146.481 60.9014 146.812Z" fill="url(#paint30_linear_148_20000)"/>
<path d="M61.901 144.756C62.5758 145.73 62.617 146.475 62.2447 146.98C61.8718 147.484 57.6483 147.847 55.5747 147.276L61.901 144.756Z" fill="#F9E6E1"/>
<path d="M60.1551 143.542C61.9262 143.797 63.3153 146.572 61.1833 147.04C59.2592 147.463 54.4211 147.569 53.8849 146.73C53.3487 145.891 53.0617 144.308 55.404 143.776C57.7469 143.244 58.9699 143.371 60.1551 143.542Z" fill="url(#paint31_linear_148_20000)"/>
<path d="M73.2704 145.441C73.1329 145.766 72.485 152.72 72.9748 153.17C73.464 153.621 76.5321 153.254 76.5321 153.254C76.5321 153.254 77.1834 146.109 76.996 145.595C76.8087 145.082 73.6702 145.263 73.2704 145.441Z" fill="url(#paint32_linear_148_20000)"/>
<path d="M74.4762 144.992C74.3193 145.363 73.7407 153.382 74.3479 153.917C74.9551 154.453 78.6676 154.119 78.6676 154.119C78.6676 154.119 79.2444 145.882 79.0021 145.282C78.7593 144.683 74.9557 144.798 74.4762 144.992Z" fill="url(#paint33_linear_148_20000)"/>
<defs>
<linearGradient id="paint0_linear_148_20000" x1="146.326" y1="-51.5136" x2="87.5989" y2="149.773" gradientUnits="userSpaceOnUse">
<stop stop-color="#F5F0FF"/>
<stop offset="0.9959" stop-color="#D2C1F7"/>
</linearGradient>
<linearGradient id="paint1_linear_148_20000" x1="104.005" y1="18.8295" x2="107.89" y2="172.148" gradientUnits="userSpaceOnUse">
<stop stop-color="#263681"/>
<stop offset="0.9959" stop-color="#1A1248"/>
</linearGradient>
<linearGradient id="paint2_linear_148_20000" x1="55.3347" y1="68.0818" x2="133.339" y2="113.808" gradientUnits="userSpaceOnUse">
<stop stop-color="#9571CB"/>
<stop offset="0.2434" stop-color="#8E69CA"/>
<stop offset="0.6169" stop-color="#7B54C5"/>
<stop offset="1" stop-color="#6237C0"/>
</linearGradient>
<linearGradient id="paint3_linear_148_20000" x1="138.693" y1="131.455" x2="127.037" y2="126.859" gradientUnits="userSpaceOnUse">
<stop stop-color="#F5F0FF"/>
<stop offset="0.6951" stop-color="#D2C1F7"/>
<stop offset="1" stop-color="#DCCEF9"/>
</linearGradient>
<linearGradient id="paint4_linear_148_20000" x1="117.557" y1="70.443" x2="99.3575" y2="117.81" gradientUnits="userSpaceOnUse">
<stop stop-color="#F59513"/>
<stop offset="0.3699" stop-color="#FAAD1E"/>
<stop offset="0.9959" stop-color="#F2830B"/>
</linearGradient>
<linearGradient id="paint5_linear_148_20000" x1="62.6131" y1="80.1614" x2="78.2721" y2="84.0258" gradientUnits="userSpaceOnUse">
<stop stop-color="#E6971C"/>
<stop offset="0.9959" stop-color="#DE6D0A"/>
</linearGradient>
<radialGradient id="paint6_radial_148_20000" cx="0" cy="0" r="1" gradientUnits="userSpaceOnUse" gradientTransform="translate(69.1279 82.742) rotate(-166.137) scale(13.2188 13.2188)">
<stop stop-color="#FFD042"/>
<stop offset="1" stop-color="#F2830B"/>
</radialGradient>
<linearGradient id="paint7_linear_148_20000" x1="136.938" y1="40.2505" x2="147.417" y2="63.537" gradientUnits="userSpaceOnUse">
<stop stop-color="#9571CB"/>
<stop offset="0.9959" stop-color="#6237C0"/>
</linearGradient>
<linearGradient id="paint8_linear_148_20000" x1="137.92" y1="42.4329" x2="146.434" y2="61.3532" gradientUnits="userSpaceOnUse">
<stop stop-color="#F5F0FF"/>
<stop offset="0.9959" stop-color="#D2C1F7"/>
</linearGradient>
<linearGradient id="paint9_linear_148_20000" x1="140.297" y1="47.3163" x2="145.033" y2="57.841" gradientUnits="userSpaceOnUse">
<stop stop-color="#FAAD1E"/>
<stop offset="0.9959" stop-color="#F2830B"/>
</linearGradient>
<linearGradient id="paint10_linear_148_20000" x1="108.827" y1="39.6558" x2="114.258" y2="51.7236" gradientUnits="userSpaceOnUse">
<stop stop-color="#F5F0FF"/>
<stop offset="0.9959" stop-color="#D2C1F7"/>
</linearGradient>
<linearGradient id="paint11_linear_148_20000" x1="110.518" y1="41.7939" x2="112.567" y2="46.3468" gradientUnits="userSpaceOnUse">
<stop stop-color="#FAAD1E"/>
<stop offset="0.9959" stop-color="#F2830B"/>
</linearGradient>
<linearGradient id="paint12_linear_148_20000" x1="111.166" y1="48.4157" x2="111.918" y2="50.0869" gradientUnits="userSpaceOnUse">
<stop stop-color="#FAAD1E"/>
<stop offset="0.9959" stop-color="#F2830B"/>
</linearGradient>
<linearGradient id="paint13_linear_148_20000" x1="177.962" y1="116.032" x2="171.488" y2="138.221" gradientUnits="userSpaceOnUse">
<stop stop-color="#FFE14D"/>
<stop offset="1" stop-color="#F7A523"/>
</linearGradient>
<linearGradient id="paint14_linear_148_20000" x1="177.19" y1="118.677" x2="171.747" y2="137.334" gradientUnits="userSpaceOnUse">
<stop stop-color="#FAAD1E"/>
<stop offset="0.9959" stop-color="#F2830B"/>
</linearGradient>
<linearGradient id="paint15_linear_148_20000" x1="201.637" y1="42.8806" x2="192.584" y2="73.9105" gradientUnits="userSpaceOnUse">
<stop stop-color="#FFE14D"/>
<stop offset="1" stop-color="#F7A523"/>
</linearGradient>
<linearGradient id="paint16_linear_148_20000" x1="200.557" y1="46.5813" x2="192.945" y2="72.6723" gradientUnits="userSpaceOnUse">
<stop stop-color="#FAAD1E"/>
<stop offset="0.9959" stop-color="#F2830B"/>
</linearGradient>
<linearGradient id="paint17_linear_148_20000" x1="36.5558" y1="84.9239" x2="27.5026" y2="115.954" gradientUnits="userSpaceOnUse">
<stop stop-color="#FFE14D"/>
<stop offset="1" stop-color="#F7A523"/>
</linearGradient>
<linearGradient id="paint18_linear_148_20000" x1="35.4761" y1="88.6255" x2="27.8639" y2="114.716" gradientUnits="userSpaceOnUse">
<stop stop-color="#FAAD1E"/>
<stop offset="0.9959" stop-color="#F2830B"/>
</linearGradient>
<linearGradient id="paint19_linear_148_20000" x1="169.251" y1="30.8096" x2="173.829" y2="40.9824" gradientUnits="userSpaceOnUse">
<stop stop-color="#9571CB"/>
<stop offset="0.9959" stop-color="#6237C0"/>
</linearGradient>
<linearGradient id="paint20_linear_148_20000" x1="23.5486" y1="69.5989" x2="28.1264" y2="79.7717" gradientUnits="userSpaceOnUse">
<stop stop-color="#9571CB"/>
<stop offset="0.9959" stop-color="#6237C0"/>
</linearGradient>
<linearGradient id="paint21_linear_148_20000" x1="159.149" y1="158.702" x2="162.263" y2="165.623" gradientUnits="userSpaceOnUse">
<stop stop-color="#263681"/>
<stop offset="0.9959" stop-color="#1A1248"/>
</linearGradient>
<linearGradient id="paint22_linear_148_20000" x1="50.4637" y1="1.21731" x2="53.5777" y2="8.13752" gradientUnits="userSpaceOnUse">
<stop stop-color="#263681"/>
<stop offset="0.9959" stop-color="#1A1248"/>
</linearGradient>
<linearGradient id="paint23_linear_148_20000" x1="174.659" y1="98.97" x2="177.773" y2="105.89" gradientUnits="userSpaceOnUse">
<stop stop-color="#263681"/>
<stop offset="0.9959" stop-color="#1A1248"/>
</linearGradient>
<linearGradient id="paint24_linear_148_20000" x1="37.8735" y1="24.5491" x2="58.4374" y2="70.2467" gradientUnits="userSpaceOnUse">
<stop offset="0.0041" stop-color="white"/>
<stop offset="1" stop-color="#F5F0FF"/>
</linearGradient>
<linearGradient id="paint25_linear_148_20000" x1="58.5989" y1="130.571" x2="74.1471" y2="165.123" gradientUnits="userSpaceOnUse">
<stop stop-color="#9571CB"/>
<stop offset="0.0962" stop-color="#8A64C9"/>
<stop offset="0.3212" stop-color="#744BC4"/>
<stop offset="0.5271" stop-color="#673CC1"/>
<stop offset="0.6948" stop-color="#6237C0"/>
</linearGradient>
<linearGradient id="paint26_linear_148_20000" x1="59.9991" y1="133.682" x2="72.1352" y2="160.651" gradientUnits="userSpaceOnUse">
<stop stop-color="#F5F0FF"/>
<stop offset="0.9959" stop-color="#D2C1F7"/>
</linearGradient>
<linearGradient id="paint27_linear_148_20000" x1="66.7212" y1="137.633" x2="63.7125" y2="155.852" gradientUnits="userSpaceOnUse">
<stop stop-color="#FFC085"/>
<stop offset="1" stop-color="#FA976E"/>
</linearGradient>
<linearGradient id="paint28_linear_148_20000" x1="56.9465" y1="155.709" x2="59.2472" y2="151.884" gradientUnits="userSpaceOnUse">
<stop stop-color="#FFC085"/>
<stop offset="1" stop-color="#FA976E"/>
</linearGradient>
<linearGradient id="paint29_linear_148_20000" x1="56.472" y1="153.763" x2="59.0033" y2="149.555" gradientUnits="userSpaceOnUse">
<stop stop-color="#FFC085"/>
<stop offset="1" stop-color="#FA976E"/>
</linearGradient>
<linearGradient id="paint30_linear_148_20000" x1="56.0609" y1="151.28" x2="58.7285" y2="146.845" gradientUnits="userSpaceOnUse">
<stop stop-color="#FFC085"/>
<stop offset="1" stop-color="#FA976E"/>
</linearGradient>
<linearGradient id="paint31_linear_148_20000" x1="54.0741" y1="143.904" x2="61.8102" y2="147.184" gradientUnits="userSpaceOnUse">
<stop stop-color="#FFC085"/>
<stop offset="1" stop-color="#FA976E"/>
</linearGradient>
<linearGradient id="paint32_linear_148_20000" x1="75.1393" y1="145.752" x2="74.4917" y2="154.251" gradientUnits="userSpaceOnUse">
<stop stop-color="#F5F0FF"/>
<stop offset="0.9959" stop-color="#D2C1F7"/>
</linearGradient>
<linearGradient id="paint33_linear_148_20000" x1="76.7487" y1="145.083" x2="76.3042" y2="154.192" gradientUnits="userSpaceOnUse">
<stop stop-color="#263681"/>
<stop offset="0.9959" stop-color="#1A1248"/>
</linearGradient>
</defs>
</svg>
