<svg width="181" height="56" viewBox="0 0 181 56" fill="none" xmlns="http://www.w3.org/2000/svg">
<rect x="0.693909" y="0.937531" width="179.029" height="54.1249" rx="7.633" fill="black"/>
<path fill-rule="evenodd" clip-rule="evenodd" d="M12.8856 10.9611C12.4817 11.3886 12.2444 12.0506 12.2444 12.9096V43.5776C12.2444 44.4367 12.4817 45.0987 12.8856 45.5261L12.9883 45.626L30.1681 28.4462V28.041L12.9883 10.8612L12.8856 10.9611Z" fill="#00D7FE"/>
<mask id="mask0_12_604" style="mask-type:alpha" maskUnits="userSpaceOnUse" x="30" y="22" width="15" height="13">
<path d="M35.893 34.1751L30.1682 28.4462V28.041L35.8957 22.3135L42.8099 26.241C44.7472 27.3429 44.7472 29.1443 42.8099 30.2448L36.0248 34.1002L35.893 34.1751Z" fill="white"/>
</mask>
<g mask="url(#mask0_12_604)">
<path fill-rule="evenodd" clip-rule="evenodd" d="M35.893 34.1751L30.1682 28.4462V28.041L35.8957 22.3135L42.8099 26.241C44.7472 27.3429 44.7472 29.1443 42.8099 30.2448L36.0248 34.1002L35.893 34.1751Z" fill="url(#paint0_linear_12_604)"/>
</g>
<mask id="mask1_12_604" style="mask-type:alpha" maskUnits="userSpaceOnUse" x="12" y="28" width="25" height="19">
<path d="M36.0246 34.1002L30.168 28.2436L12.8855 45.5261C13.5253 46.202 14.58 46.2853 15.768 45.6108L36.0246 34.1002Z" fill="white"/>
</mask>
<g mask="url(#mask1_12_604)">
<path fill-rule="evenodd" clip-rule="evenodd" d="M36.0246 34.1002L30.168 28.2436L12.8855 45.5261C13.5253 46.202 14.58 46.2853 15.768 45.6108L36.0246 34.1002Z" fill="url(#paint1_linear_12_604)"/>
</g>
<mask id="mask2_12_604" style="mask-type:alpha" maskUnits="userSpaceOnUse" x="12" y="10" width="25" height="19">
<path d="M36.0246 22.387L15.768 10.8765C14.58 10.202 13.5253 10.2852 12.8855 10.9611L30.168 28.2436L36.0246 22.387Z" fill="white"/>
</mask>
<g mask="url(#mask2_12_604)">
<path fill-rule="evenodd" clip-rule="evenodd" d="M36.0246 22.387L15.768 10.8765C14.58 10.202 13.5253 10.2852 12.8855 10.9611L30.168 28.2436L36.0246 22.387Z" fill="url(#paint2_linear_12_604)"/>
</g>
<path fill-rule="evenodd" clip-rule="evenodd" d="M143.978 43.4444H146.568V26.0953H143.978V43.4444ZM167.303 32.3446L164.334 39.8666H164.246L161.165 32.3446H158.375L162.995 42.8574L160.361 48.7056H163.063L170.183 32.3446H167.303ZM152.617 41.4737C151.768 41.4737 150.585 41.0504 150.585 40.0012C150.585 38.662 152.059 38.1485 153.33 38.1485C154.47 38.1485 155.004 38.3941 155.697 38.7286C155.495 40.3357 154.112 41.4737 152.617 41.4737ZM152.929 31.9658C151.054 31.9658 149.113 32.7915 148.309 34.622L150.608 35.581C151.099 34.622 152.013 34.3084 152.974 34.3084C154.313 34.3084 155.674 35.1119 155.697 36.5414V36.719C155.228 36.4512 154.224 36.0501 152.996 36.0501C150.519 36.0501 147.996 37.4116 147.996 39.9554C147.996 42.2772 150.027 43.7733 152.303 43.7733C154.045 43.7733 155.004 42.992 155.608 42.076H155.697V43.4153H158.196V36.7648C158.196 33.6839 155.898 31.9658 152.929 31.9658ZM136.925 34.4569H133.242V28.5101H136.925C138.861 28.5101 139.96 30.113 139.96 31.4828C139.96 32.8276 138.861 34.4569 136.925 34.4569ZM136.858 26.0953H130.654V43.4444H133.242V36.8717H136.858C139.728 36.8717 142.55 34.7927 142.55 31.4828C142.55 28.1728 139.728 26.0953 136.858 26.0953ZM103.022 41.4765C101.233 41.4765 99.7357 39.979 99.7357 37.9223C99.7357 35.8433 101.233 34.3223 103.022 34.3223C104.789 34.3223 106.174 35.8433 106.174 37.9223C106.174 39.979 104.789 41.4765 103.022 41.4765ZM105.995 33.3161H105.906C105.324 32.6236 104.207 31.9977 102.799 31.9977C99.8467 31.9977 97.1419 34.5901 97.1419 37.9223C97.1419 41.2308 99.8467 43.8025 102.799 43.8025C104.207 43.8025 105.324 43.1766 105.906 42.4604H105.995V43.3098C105.995 45.5692 104.789 46.7766 102.843 46.7766C101.255 46.7766 100.271 45.6358 99.8689 44.674L97.611 45.6136C98.2591 47.179 99.9813 49.1011 102.843 49.1011C105.884 49.1011 108.455 47.3123 108.455 42.9531V32.3543H105.995V33.3161ZM110.244 43.4444H112.838V26.0939H110.244V43.4444ZM116.66 37.721C116.594 35.4409 118.427 34.2779 119.745 34.2779C120.775 34.2779 121.647 34.7914 121.937 35.5297L116.66 37.721ZM124.709 35.7531C124.218 34.4347 122.719 31.9977 119.656 31.9977C116.616 31.9977 114.09 34.3889 114.09 37.9001C114.09 41.2086 116.594 43.8025 119.947 43.8025C122.653 43.8025 124.218 42.1482 124.866 41.1864L122.854 39.8444C122.184 40.8284 121.266 41.4765 119.947 41.4765C118.628 41.4765 117.689 40.8728 117.085 39.689L124.977 36.4248L124.709 35.7531ZM61.8302 33.8088V36.3124H67.8214C67.6424 37.721 67.1733 38.7494 66.4586 39.4655C65.5856 40.3371 64.2214 41.2974 61.8302 41.2974C58.1414 41.2974 55.2561 38.3247 55.2561 34.6359C55.2561 30.9457 58.1414 27.973 61.8302 27.973C63.8203 27.973 65.2734 28.7557 66.3462 29.7619L68.1129 27.9952C66.614 26.5644 64.6253 25.468 61.8302 25.468C56.7772 25.468 52.5291 29.5829 52.5291 34.6359C52.5291 39.689 56.7772 43.8025 61.8302 43.8025C64.5573 43.8025 66.614 42.9087 68.2239 41.2308C69.8782 39.5766 70.3931 37.252 70.3931 35.3728C70.3931 34.7914 70.3486 34.2557 70.2584 33.8088H61.8302ZM77.2059 41.4765C75.417 41.4765 73.8737 40.0012 73.8737 37.9001C73.8737 35.7753 75.417 34.3223 77.2059 34.3223C78.9934 34.3223 80.5366 35.7753 80.5366 37.9001C80.5366 40.0012 78.9934 41.4765 77.2059 41.4765ZM77.2059 31.9977C73.9403 31.9977 71.2799 34.4791 71.2799 37.9001C71.2799 41.2974 73.9403 43.8025 77.2059 43.8025C80.47 43.8025 83.1305 41.2974 83.1305 37.9001C83.1305 34.4791 80.47 31.9977 77.2059 31.9977ZM90.1306 41.4765C88.3417 41.4765 86.7985 40.0012 86.7985 37.9001C86.7985 35.7753 88.3417 34.3223 90.1306 34.3223C91.9195 34.3223 93.4614 35.7753 93.4614 37.9001C93.4614 40.0012 91.9195 41.4765 90.1306 41.4765ZM90.1306 31.9977C86.8665 31.9977 84.206 34.4791 84.206 37.9001C84.206 41.2974 86.8665 43.8025 90.1306 43.8025C93.3948 43.8025 96.0552 41.2974 96.0552 37.9001C96.0552 34.4791 93.3948 31.9977 90.1306 31.9977Z" fill="#FFFFFE"/>
<path d="M60.1221 15.0047V18.2554C60.0123 18.418 59.8375 18.601 59.5976 18.8043C59.3577 19.0035 59.0263 19.1783 58.6035 19.3288C58.1847 19.4751 57.6439 19.5483 56.9812 19.5483C56.4404 19.5483 55.9424 19.4548 55.487 19.2678C55.0357 19.0767 54.6433 18.8002 54.3099 18.4383C53.9806 18.0724 53.7244 17.6292 53.5415 17.1088C53.3626 16.5843 53.2731 15.9907 53.2731 15.3279V14.6388C53.2731 13.976 53.3504 13.3844 53.5049 12.864C53.6634 12.3436 53.8952 11.9024 54.2001 11.5406C54.5051 11.1746 54.8791 10.8982 55.3223 10.7111C55.7655 10.52 56.2737 10.4245 56.847 10.4245C57.526 10.4245 58.0932 10.5424 58.5486 10.7782C59.008 11.01 59.3658 11.3312 59.622 11.7418C59.8822 12.1525 60.0489 12.6201 60.1221 13.1446H58.945C58.8921 12.8234 58.7864 12.5306 58.6279 12.2663C58.4734 12.0021 58.2518 11.7906 57.9631 11.6321C57.6744 11.4694 57.3024 11.3881 56.847 11.3881C56.4364 11.3881 56.0806 11.4633 55.7797 11.6138C55.4788 11.7642 55.2308 11.9797 55.0357 12.2602C54.8405 12.5408 54.6941 12.8803 54.5965 13.2787C54.503 13.6772 54.4563 14.1265 54.4563 14.6266V15.3279C54.4563 15.8402 54.5152 16.2976 54.6331 16.7002C54.7551 17.1027 54.9279 17.4463 55.1515 17.7309C55.3752 18.0114 55.6415 18.2249 55.9505 18.3712C56.2636 18.5176 56.6092 18.5908 56.9873 18.5908C57.4061 18.5908 57.7456 18.5562 58.0058 18.4871C58.266 18.4139 58.4693 18.3286 58.6157 18.231C58.762 18.1293 58.8739 18.0338 58.9511 17.9443V15.9561H56.8958V15.0047H60.1221ZM67.3404 18.4688V19.4263H62.6382V18.4688H67.3404ZM62.8761 10.5465V19.4263H61.699V10.5465H62.8761ZM66.7183 14.3643V15.3218H62.6382V14.3643H66.7183ZM67.2794 10.5465V11.5101H62.6382V10.5465H67.2794ZM71.8264 10.5465V19.4263H70.6677V10.5465H71.8264ZM74.6807 10.5465V11.5101H67.8195V10.5465H74.6807ZM79.3653 10.5465V19.4263H78.1882V10.5465H79.3653ZM84.2295 10.5465V19.4263H83.0707V10.5465H84.2295ZM87.0837 10.5465V11.5101H80.2225V10.5465H87.0837ZM97.3426 14.7059V15.2669C97.3426 15.9338 97.2593 16.5314 97.0926 17.06C96.9259 17.5886 96.686 18.0378 96.3729 18.4078C96.0599 18.7778 95.6838 19.0604 95.2446 19.2556C94.8096 19.4507 94.3217 19.5483 93.7809 19.5483C93.2564 19.5483 92.7746 19.4507 92.3355 19.2556C91.9005 19.0604 91.5223 18.7778 91.2011 18.4078C90.884 18.0378 90.638 17.5886 90.4632 17.06C90.2883 16.5314 90.2009 15.9338 90.2009 15.2669V14.7059C90.2009 14.0391 90.2863 13.4434 90.4571 12.9189C90.6319 12.3903 90.8779 11.9411 91.195 11.5711C91.5122 11.197 91.8883 10.9124 92.3233 10.7172C92.7624 10.5221 93.2442 10.4245 93.7687 10.4245C94.3095 10.4245 94.7974 10.5221 95.2324 10.7172C95.6716 10.9124 96.0477 11.197 96.3607 11.5711C96.6779 11.9411 96.9198 12.3903 97.0865 12.9189C97.2573 13.4434 97.3426 14.0391 97.3426 14.7059ZM96.1778 15.2669V14.6937C96.1778 14.1651 96.1229 13.6975 96.0131 13.2909C95.9074 12.8843 95.7508 12.5428 95.5435 12.2663C95.3361 11.9899 95.082 11.7805 94.7811 11.6382C94.4843 11.4958 94.1469 11.4247 93.7687 11.4247C93.4028 11.4247 93.0714 11.4958 92.7746 11.6382C92.4819 11.7805 92.2298 11.9899 92.0184 12.2663C91.811 12.5428 91.6504 12.8843 91.5366 13.2909C91.4227 13.6975 91.3658 14.1651 91.3658 14.6937V15.2669C91.3658 15.7996 91.4227 16.2712 91.5366 16.6819C91.6504 17.0885 91.813 17.432 92.0245 17.7126C92.24 17.9891 92.4941 18.1984 92.7868 18.3407C93.0836 18.4831 93.415 18.5542 93.7809 18.5542C94.1631 18.5542 94.5026 18.4831 94.7994 18.3407C95.0962 18.1984 95.3463 17.9891 95.5496 17.7126C95.7569 17.432 95.9135 17.0885 96.0192 16.6819C96.1249 16.2712 96.1778 15.7996 96.1778 15.2669ZM105.561 10.5465V19.4263H104.378L99.9076 12.5774V19.4263H98.7305V10.5465H99.9076L104.396 17.4137V10.5465H105.561Z" fill="white"/>
<rect x="0.693909" y="0.937531" width="179.029" height="54.1249" rx="7.633" stroke="#A6A6A6" stroke-width="1.38782"/>
<defs>
<linearGradient id="paint0_linear_12_604" x1="41.5494" y1="28.244" x2="30.1682" y2="28.244" gradientUnits="userSpaceOnUse">
<stop stop-color="#FFBC00"/>
<stop offset="1" stop-color="#FFDA03"/>
</linearGradient>
<linearGradient id="paint1_linear_12_604" x1="32.8418" y1="33.7544" x2="17.9873" y2="45.9984" gradientUnits="userSpaceOnUse">
<stop stop-color="#E22652"/>
<stop offset="1" stop-color="#FF3A44"/>
</linearGradient>
<linearGradient id="paint2_linear_12_604" x1="15.5025" y1="13.0417" x2="25.4063" y2="21.7501" gradientUnits="userSpaceOnUse">
<stop stop-color="#0ED574"/>
<stop offset="1" stop-color="#07F076"/>
</linearGradient>
</defs>
</svg>
