<svg width="72" height="71" viewBox="0 0 72 71" fill="none" xmlns="http://www.w3.org/2000/svg">
<rect x="16" y="-2" width="60" height="60" rx="10" transform="rotate(16.6535 16 -2)" fill="#5631A1"/>
<g filter="url(#filter0_b_12_1180)">
<rect y="11" width="60" height="60" rx="10" fill="white" fill-opacity="0.4"/>
<path d="M27.4286 37.7172V37.9654H32.5714V37.7172C32.5314 34.3627 27.4686 34.3627 27.4286 37.7172Z" fill="white"/>
<path d="M41.9857 31.8524C37.1628 31.8993 32.5228 29.022 30.7485 27.7806C30.5307 27.6287 30.2687 27.5469 30 27.5469C29.7312 27.5469 29.4693 27.6287 29.2514 27.7806C27.4771 29.022 22.8257 31.8882 18.0143 31.8524C17.8434 31.8507 17.6739 31.8817 17.5155 31.9436C17.357 32.0055 17.2129 32.097 17.0912 32.2129C16.9696 32.3288 16.8729 32.4668 16.8068 32.6189C16.7406 32.771 16.7062 32.9343 16.7057 33.0993C16.7085 39.4689 18.0285 48.5806 29.42 54.1475C29.5996 54.2359 29.7984 54.282 30 54.282C30.2016 54.282 30.4003 54.2359 30.58 54.1475C41.9714 48.5806 43.2914 39.4689 43.2943 33.0993C43.2917 32.7665 43.1525 32.4482 42.9071 32.2145C42.6618 31.9807 42.3304 31.8505 41.9857 31.8524ZM34.7143 44.4482C34.7143 44.9969 34.4885 45.5232 34.0866 45.9112C33.6848 46.2992 33.1397 46.5172 32.5714 46.5172H27.4285C26.8602 46.5172 26.3152 46.2992 25.9133 45.9112C25.5115 45.5232 25.2857 44.9969 25.2857 44.4482V40.0344C25.2859 39.632 25.4076 39.2384 25.636 38.9018C25.8644 38.5652 26.1894 38.3002 26.5714 38.1393V37.7117C26.6228 33.2841 33.3771 33.2841 33.4285 37.7117V38.1393C33.8105 38.3002 34.1356 38.5652 34.3639 38.9018C34.5923 39.2384 34.714 39.632 34.7143 40.0344V44.4482Z" fill="white"/>
<path d="M30.7017 41.7663C30.6954 41.7293 30.6972 41.6914 30.707 41.655C30.7169 41.6187 30.7345 41.5848 30.7589 41.5555C30.8546 41.4219 30.9106 41.2656 30.9209 41.1034C30.9311 40.9412 30.8952 40.7795 30.8171 40.6356C30.739 40.4917 30.6216 40.3712 30.4776 40.2871C30.3336 40.203 30.1686 40.1586 30.0003 40.1586C29.832 40.1586 29.667 40.203 29.523 40.2871C29.379 40.3712 29.2616 40.4917 29.1835 40.6356C29.1053 40.7795 29.0695 40.9412 29.0797 41.1034C29.09 41.2656 29.146 41.4219 29.2417 41.5555C29.2659 41.5845 29.2835 41.6181 29.2934 41.6541C29.3032 41.69 29.3051 41.7276 29.2989 41.7644C29.2317 42.0874 29.0417 43.011 28.9077 43.6521C28.8914 43.7321 28.8937 43.8145 28.9143 43.8935C28.935 43.9725 28.9735 44.0462 29.0271 44.1091C29.0807 44.172 29.1481 44.2227 29.2245 44.2575C29.3008 44.2923 29.3842 44.3103 29.4686 44.3103H30.5314C30.616 44.3103 30.6995 44.2922 30.7759 44.2573C30.8524 44.2224 30.9198 44.1716 30.9735 44.1085C31.0271 44.0453 31.0655 43.9715 31.086 43.8923C31.1065 43.8131 31.1086 43.7305 31.092 43.6504L30.7017 41.7663Z" fill="white"/>
<rect x="0.5" y="11.5" width="59" height="59" rx="9.5" stroke="url(#paint0_linear_12_1180)" stroke-opacity="0.7"/>
</g>
<defs>
<filter id="filter0_b_12_1180" x="-20" y="-9" width="100" height="100" filterUnits="userSpaceOnUse" color-interpolation-filters="sRGB">
<feFlood flood-opacity="0" result="BackgroundImageFix"/>
<feGaussianBlur in="BackgroundImageFix" stdDeviation="10"/>
<feComposite in2="SourceAlpha" operator="in" result="effect1_backgroundBlur_12_1180"/>
<feBlend mode="normal" in="SourceGraphic" in2="effect1_backgroundBlur_12_1180" result="shape"/>
</filter>
<linearGradient id="paint0_linear_12_1180" x1="63.5" y1="11" x2="2" y2="69" gradientUnits="userSpaceOnUse">
<stop stop-color="white" stop-opacity="0.5"/>
<stop offset="1" stop-color="white" stop-opacity="0.1"/>
</linearGradient>
</defs>
</svg>
