<svg width="113" height="73" viewBox="0 0 113 73" fill="none" xmlns="http://www.w3.org/2000/svg">
<path d="M101.621 85.2199C101.792 85.1006 101.929 84.9369 102.015 84.7464C102.102 84.5559 102.135 84.3455 102.112 84.1376V37.2383C102.091 36.6553 101.922 36.0871 101.621 35.5878L104.527 33.9102C104.829 34.4083 104.998 34.9751 105.018 35.5568V82.46C105.042 82.6679 105.008 82.8783 104.922 83.0688C104.836 83.2593 104.699 83.423 104.527 83.5423L101.621 85.2199Z" fill="#263238"/>
<path d="M101.621 35.5883C101.34 35.078 100.932 34.6482 100.438 34.3398L47.3617 3.69468C45.514 2.62782 42.5145 2.62782 40.6668 3.69468L39.5071 4.36339C39.0332 4.60763 38.6336 4.97468 38.35 5.42619C38.0665 5.87769 37.9094 6.39707 37.8953 6.93004V57.6986C37.91 57.1653 38.0672 56.6456 38.3507 56.1935C38.6341 55.7415 39.0334 55.3736 39.5071 55.1281L40.6668 54.4594C42.5145 53.3925 45.514 53.3925 47.3617 54.4594L100.43 85.1045C100.591 85.2451 100.791 85.332 101.003 85.3529C101.215 85.3738 101.429 85.3277 101.613 85.2211C101.798 85.1144 101.945 84.9527 102.033 84.7584C102.121 84.5642 102.146 84.3473 102.104 84.1382V37.2389C102.086 36.6565 101.92 36.0884 101.621 35.5883Z" fill="#37474F"/>
<path d="M38.0421 7.79948C37.6208 6.52002 38.1426 5.15165 39.511 4.36311L40.6706 3.69439C42.5183 2.62753 45.5178 2.62753 47.3655 3.69439L100.43 34.3395C100.924 34.6483 101.331 35.078 101.613 35.5881L104.52 33.9105C104.237 33.4004 103.83 32.9698 103.337 32.6581L48.8112 1.18572C46.0783 -0.39524 41.9539 -0.39524 39.2172 1.18572L38.0576 1.85058C37.2623 2.2921 36.5786 2.90965 36.0587 3.65599C35.5388 4.40234 35.1965 5.25771 35.058 6.15667C35.0201 6.41263 35.0007 6.671 35 6.92975C35.0196 8.49055 35.6414 9.98343 36.7356 11.0967L38.8345 9.0944C38.4767 8.72908 38.2058 8.28778 38.0421 7.80334" fill="url(#paint0_linear_138_15610)"/>
<path d="M98.2423 43.2652V36.837L44.9342 6.06816C44.4177 5.79759 43.8434 5.65625 43.2604 5.65625C42.6774 5.65625 42.1031 5.79759 41.5867 6.06816L41.0069 6.40059C40.7703 6.52296 40.5709 6.7066 40.4294 6.93233C40.288 7.15807 40.2098 7.41762 40.2029 7.68391V18.8048L98.2423 43.2652Z" fill="#00A656"/>
<path opacity="0.2" d="M98.2423 43.2652V36.837L44.9342 6.06816C44.4177 5.79759 43.8434 5.65625 43.2604 5.65625C42.6774 5.65625 42.1031 5.79759 41.5867 6.06816L41.0069 6.40059C40.7703 6.52296 40.5709 6.7066 40.4294 6.93233C40.288 7.15807 40.2098 7.41762 40.2029 7.68391V18.8048L98.2423 43.2652Z" fill="black"/>
<path d="M45.6571 4.81101C44.9172 4.42263 44.0942 4.21973 43.2586 4.21973C42.423 4.21973 41.5999 4.42263 40.8601 4.81101L40.2841 5.14343C39.8871 5.36247 39.5453 5.66922 39.2847 6.04031C39.0241 6.41141 38.8517 6.83707 38.7805 7.28488C38.7622 7.41292 38.7532 7.5421 38.7534 7.67142V9.41087L40.203 10.9261V7.70235C40.2094 7.43597 40.2875 7.17624 40.429 6.95044C40.5705 6.72463 40.7701 6.54107 41.007 6.41902L41.5868 6.0866C42.1055 5.82344 42.6789 5.6863 43.2605 5.6863C43.8421 5.6863 44.4156 5.82344 44.9342 6.0866L98.2424 36.8554L99.6958 36.0166L45.6571 4.81101Z" fill="#00A656"/>
<path opacity="0.3" d="M45.6571 4.81101C44.9172 4.42263 44.0942 4.21973 43.2586 4.21973C42.423 4.21973 41.5999 4.42263 40.8601 4.81101L40.2841 5.14343C39.8871 5.36247 39.5453 5.66922 39.2847 6.04031C39.0241 6.41141 38.8517 6.83707 38.7805 7.28488C38.7622 7.41292 38.7532 7.5421 38.7534 7.67142V9.41087L40.203 10.9261V7.70235C40.2094 7.43597 40.2875 7.17624 40.429 6.95044C40.5705 6.72463 40.7701 6.54107 41.007 6.41902L41.5868 6.0866C42.1055 5.82344 42.6789 5.6863 43.2605 5.6863C43.8421 5.6863 44.4156 5.82344 44.9342 6.0866L98.2424 36.8554L99.6958 36.0166L45.6571 4.81101Z" fill="black"/>
<path d="M98.2424 36.8368L99.6958 35.998V43.9995L98.2424 43.1375V36.8368Z" fill="#00A656"/>
<path opacity="0.4" d="M98.2424 36.8368L99.6958 35.998V43.9995L98.2424 43.1375V36.8368Z" fill="black"/>
<path d="M100.105 79.3445V43.2336L46.9442 12.5112C46.3981 12.1967 45.7789 12.0312 45.1487 12.0312C44.5185 12.0312 43.8994 12.1967 43.3532 12.5112L42.0081 13.2842V47.733L98.4433 80.3108C98.6127 80.4055 98.8038 80.4544 98.9979 80.4528C99.1919 80.4511 99.3821 80.399 99.5499 80.3015C99.7176 80.2039 99.8571 80.0644 99.9545 79.8966C100.052 79.7288 100.104 79.5385 100.105 79.3445Z" fill="#263238"/>
<path d="M94.9373 77.9961L95.8495 77.4704C95.9999 77.3709 96.1251 77.2377 96.215 77.0814C96.3049 76.925 96.3571 76.7498 96.3675 76.5698V39.4616C96.3577 39.2809 96.3058 39.105 96.2158 38.9479C96.1259 38.7908 96.0004 38.657 95.8495 38.5571L47.7288 10.7647C47.5674 10.6837 47.3894 10.6416 47.2089 10.6416C47.0283 10.6416 46.8503 10.6837 46.689 10.7647L45.7767 11.2904C45.6256 11.3895 45.4997 11.5225 45.4091 11.6789C45.3185 11.8352 45.2657 12.0106 45.2549 12.191V49.2992C45.2652 49.4792 45.3174 49.6544 45.4074 49.8107C45.4973 49.9671 45.6224 50.1003 45.7728 50.1998L93.8975 77.9961C94.0588 78.0771 94.2369 78.1192 94.4174 78.1192C94.5979 78.1192 94.7759 78.0771 94.9373 77.9961Z" fill="#00A656"/>
<path d="M93.8975 39.678L45.7767 11.8894C45.4907 11.7232 45.2549 11.8585 45.2549 12.1909V49.2991C45.2652 49.4791 45.3174 49.6543 45.4074 49.8107C45.4973 49.967 45.6224 50.1002 45.7728 50.1997L93.8975 77.9961C94.1835 78.1623 94.4154 78.027 94.4154 77.6984V40.5903C94.4069 40.4082 94.3555 40.2307 94.2655 40.0722C94.1755 39.9137 94.0494 39.7787 93.8975 39.678Z" fill="#00A656"/>
<path d="M93.8975 39.678L45.7767 11.8894C45.4907 11.7232 45.2549 11.8585 45.2549 12.1909V49.2991C45.2652 49.4791 45.3174 49.6543 45.4074 49.8107C45.4973 49.967 45.6224 50.1002 45.7728 50.1997L93.8975 77.9961C94.1835 78.1623 94.4154 78.027 94.4154 77.6984V40.5903C94.4069 40.4082 94.3555 40.2307 94.2655 40.0722C94.1755 39.9137 94.0494 39.7787 93.8975 39.678Z" fill="#00A656"/>
<path d="M94.2454 40.0653L96.1781 38.9404C96.2748 39.0934 96.3282 39.2697 96.3327 39.4507V76.5588C96.3234 76.7392 96.272 76.9149 96.1828 77.072C96.0935 77.229 95.9688 77.363 95.8186 77.4633L94.9063 77.989C94.7617 78.0619 94.6034 78.1037 94.4416 78.1117C94.2798 78.1197 94.1182 78.0937 93.967 78.0354C94.2067 78.1127 94.3845 77.9736 94.3845 77.6837V40.5755C94.3845 40.3961 94.3365 40.2199 94.2454 40.0653Z" fill="#00A656"/>
<path d="M94.4155 44.8153L96.3676 43.6904V53.3927L94.4155 54.5059V44.8153Z" fill="#00A656"/>
<path opacity="0.2" d="M94.4155 44.8153L96.3676 43.6904V53.3927L94.4155 54.5059V44.8153Z" fill="black"/>
<path opacity="0.2" d="M45.2549 16.4238L94.4154 44.8154V54.5061L45.2549 26.1145V16.4238Z" fill="black"/>
<path d="M91.381 66.0249V72.368C91.381 72.8435 91.0485 73.0368 90.6349 72.801L83.9748 69.0051C83.7576 68.8638 83.5769 68.6732 83.4473 68.4489C83.3176 68.2245 83.2428 67.9728 83.2288 67.7141V61.3709C83.2288 60.8954 83.565 60.7022 83.9748 60.9418C85.7915 61.9894 88.8182 63.6863 90.6349 64.7338C90.8521 64.8751 91.0328 65.0657 91.1624 65.2901C91.2921 65.5144 91.3669 65.7661 91.381 66.0249Z" fill="url(#paint1_linear_138_15610)"/>
<mask id="mask0_138_15610" style="mask-type:luminance" maskUnits="userSpaceOnUse" x="83" y="60" width="9" height="13">
<path d="M91.381 66.0249V72.368C91.381 72.8435 91.0485 73.0368 90.6349 72.801L83.9748 69.0051C83.7576 68.8638 83.5769 68.6732 83.4473 68.4489C83.3176 68.2245 83.2428 67.9728 83.2288 67.7141V61.3709C83.2288 60.8954 83.565 60.7022 83.9748 60.9418C85.7915 61.9894 88.8182 63.6863 90.6349 64.7338C90.8521 64.8751 91.0328 65.0657 91.1624 65.2901C91.2921 65.5144 91.3669 65.7661 91.381 66.0249Z" fill="white"/>
</mask>
<g mask="url(#mask0_138_15610)">
<path d="M92.6913 68.5372L92.8614 68.2434L81.9184 61.9775L81.7483 62.2674L92.6913 68.5372Z" fill="white"/>
<path d="M88.7562 65.9707H88.4199V69.2022H88.7562V65.9707Z" fill="white"/>
<path d="M86.1896 64.5557H85.8533V67.7833H86.1896V64.5557Z" fill="white"/>
<path d="M92.6913 71.7764L92.8614 71.4827L81.9184 65.2168L81.7483 65.5067L92.6913 71.7764Z" fill="white"/>
</g>
<path d="M52.4135 41.7927L54.3114 42.8905C54.4422 42.9744 54.5511 43.0884 54.6291 43.2228C54.707 43.3573 54.7519 43.5083 54.7598 43.6636V44.2434C54.7598 44.5294 54.5588 44.6299 54.3114 44.5024L52.4135 43.4046C52.2831 43.3202 52.1746 43.2061 52.0966 43.0718C52.0187 42.9374 51.9736 42.7866 51.9651 42.6315V42.0517C51.9651 41.7656 52.1661 41.6497 52.4135 41.7927Z" fill="#00A656"/>
<path d="M48.2235 39.3728L50.1215 40.4706C50.2518 40.555 50.3604 40.669 50.4383 40.8034C50.5162 40.9377 50.5613 41.0886 50.5699 41.2436V41.8235C50.5699 42.1095 50.3689 42.21 50.1215 42.0824L48.2235 40.9847C48.0932 40.9002 47.9846 40.7862 47.9067 40.6519C47.8288 40.5175 47.7837 40.3667 47.7751 40.2116V39.6318C47.7751 39.3457 47.9762 39.2298 48.2235 39.3728Z" fill="#00A656"/>
<path d="M72.2123 57.2546L48.5559 43.5981C48.1461 43.3584 47.8137 43.5517 47.8137 44.0271V44.7268C47.8276 44.9851 47.902 45.2365 48.0309 45.4608C48.1598 45.685 48.3397 45.8758 48.5559 46.0178L72.2123 59.6705C72.6259 59.9102 72.9583 59.7169 72.9583 59.2415V58.5418C72.945 58.2835 72.8703 58.032 72.7406 57.8082C72.6109 57.5844 72.4298 57.3947 72.2123 57.2546Z" fill="#00A656"/>
<path d="M52.4135 41.7927L54.3114 42.8905C54.4422 42.9744 54.5511 43.0884 54.6291 43.2228C54.707 43.3573 54.7519 43.5083 54.7598 43.6636V44.2434C54.7598 44.5294 54.5588 44.6299 54.3114 44.5024L52.4135 43.4046C52.2831 43.3202 52.1746 43.2061 52.0966 43.0718C52.0187 42.9374 51.9736 42.7866 51.9651 42.6315V42.0517C51.9651 41.7656 52.1661 41.6497 52.4135 41.7927Z" fill="url(#paint2_linear_138_15610)"/>
<path d="M48.2235 39.3728L50.1215 40.4706C50.2518 40.555 50.3604 40.669 50.4383 40.8034C50.5162 40.9377 50.5613 41.0886 50.5699 41.2436V41.8235C50.5699 42.1095 50.3689 42.21 50.1215 42.0824L48.2235 40.9847C48.0932 40.9002 47.9846 40.7862 47.9067 40.6519C47.8288 40.5175 47.7837 40.3667 47.7751 40.2116V39.6318C47.7751 39.3457 47.9762 39.2298 48.2235 39.3728Z" fill="url(#paint3_linear_138_15610)"/>
<path d="M72.2123 57.2546L48.5559 43.5981C48.1461 43.3584 47.8137 43.5517 47.8137 44.0271V44.7268C47.8276 44.9851 47.902 45.2365 48.0309 45.4608C48.1598 45.685 48.3397 45.8758 48.5559 46.0178L72.2123 59.6705C72.6259 59.9102 72.9583 59.7169 72.9583 59.2415V58.5418C72.945 58.2835 72.8703 58.032 72.7406 57.8082C72.6109 57.5844 72.4298 57.3947 72.2123 57.2546Z" fill="url(#paint4_linear_138_15610)"/>
<path d="M48.2466 32.7863L48.3355 32.8365C48.4831 32.9425 48.6037 33.0817 48.6876 33.2428C48.7716 33.4039 48.8165 33.5825 48.8187 33.7642V35.6274C48.8187 35.983 48.6022 36.1531 48.3278 36.0139L48.2543 35.9752C48.1052 35.8739 47.9826 35.738 47.8972 35.5792C47.8117 35.4204 47.7658 35.2433 47.7634 35.063V33.1612C47.775 32.7979 47.9915 32.6316 48.2466 32.7863Z" fill="#FAFAFA"/>
<path d="M50.759 34.2401L50.8441 34.2903C50.9918 34.3955 51.1129 34.5339 51.1975 34.6943C51.2821 34.8548 51.3278 35.0328 51.3311 35.2142V37.0812C51.3311 37.4407 51.1108 37.6107 50.8402 37.4677L50.7629 37.4252C50.6135 37.3241 50.4908 37.1883 50.4053 37.0294C50.3198 36.8706 50.2741 36.6933 50.272 36.513V34.6073C50.272 34.2478 50.4884 34.0855 50.759 34.2401Z" fill="#FAFAFA"/>
<path d="M53.2716 35.6896L53.3605 35.7398C53.508 35.8458 53.6287 35.985 53.7126 36.1461C53.7965 36.3073 53.8414 36.4859 53.8436 36.6675V38.5307C53.8436 38.8863 53.6233 39.0564 53.3527 38.9172L53.2793 38.8786C53.1296 38.7777 53.0068 38.642 52.9213 38.483C52.8357 38.3241 52.7901 38.1468 52.7884 37.9663V36.0645C52.7729 35.7012 52.9894 35.535 53.2716 35.6896Z" fill="#FAFAFA"/>
<path d="M55.7532 37.1425L55.8421 37.1927C55.9892 37.2983 56.1095 37.4369 56.1934 37.5973C56.2773 37.7577 56.3224 37.9356 56.3253 38.1166V39.9797C56.3253 40.3392 56.1049 40.5093 55.8344 40.3663L55.7609 40.3237C55.6118 40.2224 55.4892 40.0865 55.4038 39.9277C55.3183 39.7689 55.2724 39.5918 55.27 39.4115V37.5058C55.27 37.1502 55.4865 36.9879 55.7532 37.1425Z" fill="#FAFAFA"/>
<path d="M59.9434 39.5314L60.0323 39.5816C60.1799 39.6876 60.3005 39.8268 60.3845 39.9879C60.4684 40.1491 60.5133 40.3277 60.5155 40.5093V42.3725C60.5155 42.7281 60.2952 42.8982 60.0246 42.759L59.9512 42.7204C59.802 42.619 59.6795 42.4832 59.594 42.3244C59.5085 42.1655 59.4627 41.9885 59.4603 41.8081V39.9063C59.4564 39.543 59.6767 39.3768 59.9434 39.5314Z" fill="#FAFAFA"/>
<path d="M62.4404 40.9846L62.5293 41.0348C62.6764 41.1404 62.7967 41.2789 62.8806 41.4394C62.9645 41.5998 63.0097 41.7776 63.0125 41.9586V43.8218C63.0125 44.1774 62.7922 44.3475 62.5216 44.2083L62.4443 44.1697C62.2951 44.0683 62.1726 43.9325 62.0871 43.7737C62.0017 43.6148 61.9558 43.4378 61.9534 43.2574V41.3324C61.9572 40.9923 62.1621 40.8299 62.4404 40.9846Z" fill="#FAFAFA"/>
<path d="M64.9414 42.4348L65.0264 42.4851C65.1747 42.5906 65.2961 42.7296 65.3807 42.8908C65.4653 43.0519 65.5108 43.2308 65.5135 43.4128V45.2759C65.5135 45.6315 65.2931 45.8016 65.0226 45.6625L64.9453 45.6199C64.7964 45.5192 64.674 45.384 64.5886 45.2259C64.5031 45.0677 64.4571 44.8913 64.4543 44.7116V42.802C64.4543 42.4464 64.6708 42.2802 64.9414 42.4348Z" fill="#FAFAFA"/>
<path d="M67.4385 43.8881L67.5274 43.9384C67.6745 44.044 67.7948 44.1825 67.8787 44.3429C67.9626 44.5034 68.0078 44.6812 68.0106 44.8622V46.7447C68.0106 47.1003 67.7903 47.2704 67.5197 47.1312L67.4462 47.0926C67.2971 46.9912 67.1745 46.8554 67.0891 46.6966C67.0036 46.5378 66.9577 46.3607 66.9553 46.1803V44.2785C66.9553 43.8959 67.1872 43.7335 67.4385 43.8881Z" fill="#FAFAFA"/>
<path d="M71.6287 46.2771L71.7176 46.3273C71.8652 46.4333 71.9858 46.5724 72.0697 46.7336C72.1537 46.8947 72.1985 47.0733 72.2008 47.255V49.1182C72.2008 49.4738 71.9804 49.6439 71.7099 49.5047L71.6364 49.4622C71.4876 49.3614 71.3652 49.2262 71.2797 49.0681C71.1943 48.91 71.1482 48.7335 71.1455 48.5538V46.652C71.1455 46.2848 71.362 46.1224 71.6287 46.2771Z" fill="#FAFAFA"/>
<path d="M74.145 47.7302L74.2339 47.7805C74.381 47.8861 74.5013 48.0246 74.5852 48.1851C74.6691 48.3455 74.7143 48.5233 74.7171 48.7043V50.5675C74.7171 50.9231 74.5006 51.0932 74.2262 50.954L74.1527 50.9154C74.0036 50.814 73.8811 50.6782 73.7956 50.5194C73.7101 50.3605 73.6643 50.1835 73.6618 50.0031V48.1013C73.6425 47.738 73.859 47.5756 74.145 47.7302Z" fill="#FAFAFA"/>
<path d="M76.6267 49.1795L76.7117 49.2297C76.86 49.3353 76.9814 49.4743 77.066 49.6354C77.1506 49.7966 77.1961 49.9754 77.1988 50.1574V52.0167C77.1988 52.3762 76.9784 52.5463 76.7079 52.4032L76.6306 52.3607C76.4811 52.2596 76.3585 52.1238 76.273 51.9649C76.1875 51.8061 76.1417 51.6289 76.1396 51.4485V49.5506C76.1396 49.1872 76.3561 49.0248 76.6267 49.1795Z" fill="#FAFAFA"/>
<path d="M79.1236 50.6292L79.2125 50.6833C79.3596 50.7889 79.4799 50.9274 79.5638 51.0878C79.6477 51.2483 79.6929 51.4261 79.6957 51.6071V53.4703C79.6957 53.8259 79.4754 53.996 79.2048 53.8568L79.1313 53.8181C78.9817 53.7173 78.8588 53.5815 78.7733 53.4226C78.6878 53.2637 78.6422 53.0864 78.6404 52.9059V50.9964C78.6366 50.6408 78.8569 50.4745 79.1236 50.6292Z" fill="#FAFAFA"/>
<path d="M83.3137 53.0213L83.4027 53.0715C83.5502 53.1775 83.6708 53.3167 83.7548 53.4778C83.8387 53.6389 83.8836 53.8175 83.8858 53.9992V55.8585C83.8858 56.218 83.6655 56.3881 83.3949 56.245L83.3215 56.2025C83.1714 56.1021 83.0481 55.9665 82.9626 55.8075C82.877 55.6484 82.8317 55.4709 82.8306 55.2903V53.3924C82.8306 53.029 83.0354 52.8666 83.3137 53.0213Z" fill="#FAFAFA"/>
<path d="M85.8108 54.4752L85.8997 54.5293C86.0468 54.6349 86.1671 54.7734 86.251 54.9338C86.3349 55.0943 86.3801 55.2721 86.3829 55.4531V57.3163C86.3829 57.6719 86.1626 57.842 85.892 57.7028L85.8186 57.6641C85.6694 57.5628 85.5469 57.4269 85.4614 57.2681C85.3759 57.1093 85.33 56.9322 85.3276 56.7519V54.8501C85.3276 54.4752 85.5441 54.3167 85.8108 54.4752Z" fill="#FAFAFA"/>
<path d="M88.3079 55.9246L88.3968 55.9749C88.5438 56.0805 88.6642 56.219 88.7481 56.3795C88.832 56.5399 88.8771 56.7177 88.88 56.8987V58.7619C88.88 59.1214 88.6635 59.2914 88.3891 59.1484L88.3156 59.1059C88.1662 59.0048 88.0435 58.869 87.958 58.7101C87.8725 58.5513 87.8268 58.374 87.8247 58.1937V56.2919C87.8247 55.9324 88.0605 55.77 88.3079 55.9246Z" fill="#FAFAFA"/>
<path d="M90.8088 57.3742L90.8939 57.4244C91.0422 57.53 91.1635 57.6689 91.2481 57.8301C91.3327 57.9913 91.3782 58.1701 91.3809 58.3521V60.2153C91.3809 60.5709 91.1606 60.7409 90.89 60.6018L90.8127 60.5631C90.6635 60.4618 90.541 60.3259 90.4555 60.1671C90.3701 60.0083 90.3242 59.8312 90.3218 59.6509V57.7491C90.3218 57.3858 90.5382 57.2195 90.8088 57.3742Z" fill="#FAFAFA"/>
<path d="M36.7356 61.8575L74.64 101.552C75.0265 101.965 75.4131 102.089 75.6373 101.938C75.8615 101.787 75.9736 101.501 75.9736 101.01V54.1382C75.9482 53.5476 75.8173 52.9664 75.587 52.422C75.3691 51.8287 75.0413 51.2818 74.6207 50.8101L36.7356 11.0928C35.6424 9.98047 35.0206 8.48914 35 6.92969V57.6905C35.0196 59.2513 35.6414 60.7442 36.7356 61.8575Z" fill="#37474F"/>
<path d="M37.7057 16.8025C37.6545 16.8025 37.6053 16.7821 37.5691 16.7459C37.5328 16.7096 37.5125 16.6605 37.5125 16.6092V16.0294C37.513 15.9908 37.525 15.9532 37.547 15.9215C37.5691 15.8898 37.6001 15.8655 37.6361 15.8516C37.6712 15.8369 37.7098 15.8331 37.7471 15.8407C37.7843 15.8483 37.8184 15.8669 37.8449 15.8941L38.2314 16.3154C38.2495 16.3334 38.2639 16.3548 38.2737 16.3783C38.2835 16.4019 38.2886 16.4271 38.2886 16.4527C38.2886 16.4782 38.2835 16.5034 38.2737 16.527C38.2639 16.5505 38.2495 16.5719 38.2314 16.5899C38.2138 16.6079 38.1927 16.6222 38.1695 16.6319C38.1463 16.6417 38.1213 16.6467 38.0961 16.6467C38.0709 16.6467 38.046 16.6417 38.0228 16.6319C37.9995 16.6222 37.9785 16.6079 37.9608 16.5899L37.8913 16.5203V16.5938C37.8934 16.6198 37.8902 16.6459 37.8819 16.6707C37.8736 16.6954 37.8604 16.7182 37.8431 16.7377C37.8257 16.7572 37.8046 16.773 37.781 16.7842C37.7574 16.7953 37.7318 16.8015 37.7057 16.8025Z" fill="url(#paint5_linear_138_15610)"/>
<path d="M73.2677 93.9015C73.2168 93.9005 73.1682 93.8799 73.1322 93.8438C73.0961 93.8078 73.0755 93.7592 73.0745 93.7083V92.5679C73.0745 92.5167 73.0948 92.4675 73.1311 92.4313C73.1673 92.395 73.2165 92.3747 73.2677 92.3747C73.319 92.3747 73.3682 92.395 73.4044 92.4313C73.4407 92.4675 73.461 92.5167 73.461 92.5679V93.7083C73.461 93.7595 73.4407 93.8087 73.4044 93.8449C73.3682 93.8812 73.319 93.9015 73.2677 93.9015ZM73.2677 90.8594C73.2165 90.8594 73.1673 90.8391 73.1311 90.8028C73.0948 90.7666 73.0745 90.7174 73.0745 90.6662V89.5336C73.0745 89.4823 73.0948 89.4332 73.1311 89.3969C73.1673 89.3607 73.2165 89.3403 73.2677 89.3403C73.319 89.3403 73.3682 89.3607 73.4044 89.3969C73.4407 89.4332 73.461 89.4823 73.461 89.5336V90.6739C73.461 90.7252 73.4407 90.7743 73.4044 90.8106C73.3682 90.8468 73.319 90.8672 73.2677 90.8672V90.8594ZM73.2677 87.8173C73.2165 87.8173 73.1673 87.797 73.1311 87.7607C73.0948 87.7245 73.0745 87.6753 73.0745 87.6241V86.4838C73.0745 86.4325 73.0948 86.3833 73.1311 86.3471C73.1673 86.3109 73.2165 86.2905 73.2677 86.2905C73.319 86.2905 73.3682 86.3109 73.4044 86.3471C73.4407 86.3833 73.461 86.4325 73.461 86.4838V87.6241C73.4621 87.6501 73.4578 87.6761 73.4486 87.7004C73.4393 87.7248 73.4253 87.747 73.4072 87.7658C73.3892 87.7845 73.3675 87.7995 73.3435 87.8097C73.3196 87.8198 73.2938 87.8251 73.2677 87.8251V87.8173ZM73.2677 84.7753C73.2165 84.7753 73.1673 84.7549 73.1311 84.7186C73.0948 84.6824 73.0745 84.6332 73.0745 84.582V83.4223C73.0745 83.3711 73.0948 83.3219 73.1311 83.2857C73.1673 83.2494 73.2165 83.2291 73.2677 83.2291C73.319 83.2291 73.3682 83.2494 73.4044 83.2857C73.4407 83.3219 73.461 83.3711 73.461 83.4223V84.582C73.4621 84.608 73.4578 84.634 73.4486 84.6583C73.4393 84.6827 73.4253 84.7049 73.4072 84.7237C73.3892 84.7424 73.3675 84.7574 73.3435 84.7676C73.3196 84.7777 73.2938 84.783 73.2677 84.783V84.7753ZM73.2677 81.7331C73.2165 81.7331 73.1673 81.7128 73.1311 81.6765C73.0948 81.6403 73.0745 81.5911 73.0745 81.5399V80.3802C73.0745 80.329 73.0948 80.2798 73.1311 80.2436C73.1673 80.2073 73.2165 80.187 73.2677 80.187C73.319 80.187 73.3682 80.2073 73.4044 80.2436C73.4407 80.2798 73.461 80.329 73.461 80.3802V81.5399C73.4621 81.5659 73.4578 81.5919 73.4486 81.6162C73.4393 81.6406 73.4253 81.6628 73.4072 81.6816C73.3892 81.7003 73.3675 81.7153 73.3435 81.7255C73.3196 81.7357 73.2938 81.7409 73.2677 81.7409V81.7331ZM73.2677 78.6911C73.2165 78.6911 73.1673 78.6707 73.1311 78.6344C73.0948 78.5982 73.0745 78.549 73.0745 78.4978V77.3575C73.0755 77.3065 73.0961 77.2579 73.1322 77.2219C73.1682 77.1859 73.2168 77.1652 73.2677 77.1642C73.319 77.1642 73.3682 77.1846 73.4044 77.2208C73.4407 77.2571 73.461 77.3062 73.461 77.3575V78.4978C73.4621 78.5238 73.4578 78.5498 73.4486 78.5741C73.4393 78.5985 73.4253 78.6207 73.4072 78.6395C73.3892 78.6582 73.3675 78.6732 73.3435 78.6834C73.3196 78.6936 73.2938 78.6988 73.2677 78.6988V78.6911ZM73.2677 75.649C73.2165 75.649 73.1673 75.6286 73.1311 75.5924C73.0948 75.5561 73.0745 75.5069 73.0745 75.4557V74.3154C73.0755 74.2644 73.0961 74.2159 73.1322 74.1798C73.1682 74.1438 73.2168 74.1231 73.2677 74.1221C73.319 74.1221 73.3682 74.1425 73.4044 74.1787C73.4407 74.215 73.461 74.2641 73.461 74.3154V75.4557C73.4621 75.4817 73.4578 75.5077 73.4486 75.532C73.4393 75.5564 73.4253 75.5786 73.4072 75.5974C73.3892 75.6161 73.3675 75.6311 73.3435 75.6413C73.3196 75.6515 73.2938 75.6567 73.2677 75.6567V75.649ZM73.2677 72.6107C73.2168 72.6097 73.1682 72.5891 73.1322 72.553C73.0961 72.517 73.0755 72.4684 73.0745 72.4175V71.2578C73.0755 71.2069 73.0961 71.1583 73.1322 71.1223C73.1682 71.0862 73.2168 71.0656 73.2677 71.0646C73.319 71.0646 73.3682 71.0849 73.4044 71.1212C73.4407 71.1574 73.461 71.2066 73.461 71.2578V72.4175C73.4621 72.4435 73.4578 72.4695 73.4486 72.4938C73.4393 72.5181 73.4253 72.5404 73.4072 72.5592C73.3892 72.5779 73.3675 72.5929 73.3435 72.603C73.3196 72.6132 73.2938 72.6185 73.2677 72.6185V72.6107ZM73.2677 69.5686C73.2168 69.5676 73.1682 69.547 73.1322 69.5109C73.0961 69.4749 73.0755 69.4263 73.0745 69.3754V68.2351C73.0745 68.1838 73.0948 68.1347 73.1311 68.0984C73.1673 68.0622 73.2165 68.0418 73.2677 68.0418C73.319 68.0418 73.3682 68.0622 73.4044 68.0984C73.4407 68.1347 73.461 68.1838 73.461 68.2351V69.3754C73.4621 69.4014 73.4578 69.4274 73.4486 69.4517C73.4393 69.4761 73.4253 69.4983 73.4072 69.5171C73.3892 69.5358 73.3675 69.5508 73.3435 69.561C73.3196 69.5711 73.2938 69.5764 73.2677 69.5764V69.5686ZM73.2677 66.5265C73.2168 66.5256 73.1682 66.5049 73.1322 66.4688C73.0961 66.4328 73.0755 66.3842 73.0745 66.3333V65.193C73.0745 65.1417 73.0948 65.0925 73.1311 65.0563C73.1673 65.0201 73.2165 64.9997 73.2677 64.9997C73.319 64.9997 73.3682 65.0201 73.4044 65.0563C73.4407 65.0925 73.461 65.1417 73.461 65.193V66.3333C73.4621 66.3593 73.4578 66.3853 73.4486 66.4096C73.4393 66.434 73.4253 66.4562 73.4072 66.475C73.3892 66.4937 73.3675 66.5087 73.3435 66.5189C73.3196 66.5291 73.2938 66.5343 73.2677 66.5343V66.5265ZM73.2677 63.4844C73.2168 63.4835 73.1682 63.4628 73.1322 63.4267C73.0961 63.3907 73.0755 63.3421 73.0745 63.2912V62.1509C73.0745 62.0996 73.0948 62.0505 73.1311 62.0142C73.1673 61.978 73.2165 61.9576 73.2677 61.9576C73.319 61.9576 73.3682 61.978 73.4044 62.0142C73.4407 62.0505 73.461 62.0996 73.461 62.1509V63.2912C73.4621 63.3172 73.4578 63.3432 73.4486 63.3675C73.4393 63.3919 73.4253 63.4141 73.4072 63.4329C73.3892 63.4516 73.3675 63.4666 73.3435 63.4768C73.3196 63.487 73.2938 63.4922 73.2677 63.4922V63.4844ZM73.2677 60.4424C73.2165 60.4424 73.1673 60.422 73.1311 60.3857C73.0948 60.3495 73.0745 60.3003 73.0745 60.2491V59.1126C73.0745 59.0614 73.0948 59.0122 73.1311 58.976C73.1673 58.9397 73.2165 58.9194 73.2677 58.9194C73.319 58.9194 73.3682 58.9397 73.4044 58.976C73.4407 59.0122 73.461 59.0614 73.461 59.1126V60.2723C73.4571 60.3208 73.4351 60.3661 73.3992 60.399C73.3634 60.432 73.3164 60.4502 73.2677 60.4501V60.4424ZM73.2677 57.4003C73.2165 57.4003 73.1673 57.3799 73.1311 57.3437C73.0948 57.3074 73.0745 57.2582 73.0745 57.207V56.0667C73.0745 56.0154 73.0948 55.9663 73.1311 55.93C73.1673 55.8938 73.2165 55.8734 73.2677 55.8734C73.319 55.8734 73.3682 55.8938 73.4044 55.93C73.4407 55.9663 73.461 56.0154 73.461 56.0667V57.207C73.4621 57.233 73.4578 57.259 73.4486 57.2833C73.4393 57.3077 73.4253 57.3299 73.4072 57.3487C73.3892 57.3675 73.3675 57.3824 73.3435 57.3926C73.3196 57.4028 73.2938 57.408 73.2677 57.408V57.4003ZM73.2677 54.3427C73.2433 54.3443 73.2187 54.3409 73.1956 54.3327C73.1724 54.3245 73.1512 54.3117 73.1331 54.2951C73.115 54.2785 73.1005 54.2584 73.0905 54.236C73.0804 54.2136 73.075 54.1894 73.0745 54.1649C73.0573 53.9238 72.9998 53.6873 72.9044 53.4653C72.858 53.3532 72.8155 53.2526 72.773 53.1676C72.7611 53.1451 72.7539 53.1205 72.7517 53.0951C72.7496 53.0698 72.7526 53.0442 72.7605 53.0201C72.7684 52.9959 72.7812 52.9736 72.7979 52.9544C72.8147 52.9353 72.8351 52.9197 72.858 52.9086C72.8805 52.8968 72.9052 52.8895 72.9305 52.8874C72.9559 52.8852 72.9814 52.8882 73.0056 52.8962C73.0297 52.9041 73.0521 52.9168 73.0712 52.9336C73.0903 52.9503 73.1059 52.9708 73.117 52.9937C73.1634 53.0903 73.2136 53.1985 73.2639 53.3261C73.3729 53.5816 73.4395 53.8531 73.461 54.1301C73.4642 54.1848 73.4457 54.2387 73.4096 54.2799C73.3734 54.3211 73.3225 54.3465 73.2677 54.3504V54.3427ZM71.7216 51.8418C71.6689 51.8402 71.6189 51.818 71.5824 51.7799L70.8093 50.9566C70.774 50.9192 70.7549 50.8692 70.7564 50.8178C70.7578 50.7663 70.7796 50.7175 70.8171 50.6821C70.8545 50.6468 70.9044 50.6277 70.9559 50.6292C71.0074 50.6306 71.0561 50.6524 71.0915 50.6899L71.8646 51.5132C71.8827 51.5312 71.8971 51.5526 71.9069 51.5761C71.9167 51.5997 71.9218 51.6249 71.9218 51.6504C71.9218 51.6759 71.9167 51.7012 71.9069 51.7248C71.8971 51.7483 71.8827 51.7697 71.8646 51.7876C71.8443 51.8089 71.8196 51.8255 71.7922 51.8362C71.7648 51.8469 71.7354 51.8514 71.7061 51.8495L71.7216 51.8418ZM69.6226 49.6385C69.5704 49.6383 69.5204 49.6175 69.4835 49.5805L68.7104 48.7533C68.6794 48.7157 68.6637 48.6677 68.6665 48.619C68.6694 48.5703 68.6905 48.5245 68.7258 48.4907C68.761 48.457 68.8076 48.4378 68.8564 48.437C68.9052 48.4363 68.9524 48.454 68.9887 48.4866L69.7618 49.3138C69.7872 49.3412 69.8042 49.3754 69.8105 49.4122C69.8169 49.4491 69.8125 49.487 69.7978 49.5214C69.783 49.5557 69.7586 49.5851 69.7276 49.6059C69.6965 49.6267 69.66 49.638 69.6226 49.6385ZM67.5237 47.439C67.4978 47.4394 67.4721 47.4345 67.4481 47.4245C67.4242 47.4145 67.4026 47.3997 67.3846 47.3811L66.6115 46.5539C66.5934 46.5359 66.579 46.5145 66.5692 46.491C66.5594 46.4674 66.5543 46.4421 66.5543 46.4166C66.5543 46.3911 66.5594 46.3659 66.5692 46.3423C66.579 46.3188 66.5934 46.2974 66.6115 46.2794C66.6291 46.2614 66.6502 46.2471 66.6734 46.2374C66.6966 46.2276 66.7216 46.2226 66.7468 46.2226C66.772 46.2226 66.7969 46.2276 66.8201 46.2374C66.8434 46.2471 66.8644 46.2614 66.8821 46.2794L67.6551 47.1066C67.6806 47.134 67.6975 47.1682 67.7039 47.2051C67.7103 47.2419 67.7058 47.2798 67.6911 47.3142C67.6764 47.3486 67.652 47.3779 67.6209 47.3987C67.5898 47.4195 67.5534 47.4308 67.516 47.4313L67.5237 47.439ZM65.4209 45.2396C65.3918 45.2464 65.3615 45.2461 65.3326 45.2387C65.3037 45.2313 65.2769 45.217 65.2547 45.1971L64.4816 44.3738C64.4635 44.3558 64.4491 44.3344 64.4393 44.3109C64.4295 44.2873 64.4245 44.2621 64.4245 44.2365C64.4245 44.211 64.4295 44.1858 64.4393 44.1622C64.4491 44.1387 64.4635 44.1173 64.4816 44.0993C64.4996 44.0812 64.521 44.0668 64.5445 44.057C64.5681 44.0472 64.5933 44.0421 64.6188 44.0421C64.6444 44.0421 64.6696 44.0472 64.6932 44.057C64.7167 44.0668 64.7381 44.0812 64.7561 44.0993L65.5292 44.9226C65.5473 44.9406 65.5617 44.962 65.5715 44.9855C65.5813 45.0091 65.5863 45.0343 65.5863 45.0599C65.5863 45.0854 65.5813 45.1106 65.5715 45.1342C65.5617 45.1577 65.5473 45.1791 65.5292 45.1971C65.4948 45.2274 65.4512 45.2452 65.4055 45.2473L65.4209 45.2396ZM63.322 43.0479C63.2693 43.0463 63.2193 43.0241 63.1828 42.9861L62.4098 42.1627C62.3744 42.1253 62.3553 42.0754 62.3568 42.0239C62.3582 41.9724 62.3801 41.9237 62.4175 41.8883C62.4549 41.8529 62.5048 41.8339 62.5563 41.8353C62.6078 41.8368 62.6566 41.8586 62.6919 41.896L63.465 42.7193C63.4831 42.7373 63.4975 42.7587 63.5073 42.7822C63.5171 42.8058 63.5222 42.8311 63.5222 42.8566C63.5222 42.8821 63.5171 42.9074 63.5073 42.9309C63.4975 42.9545 63.4831 42.9758 63.465 42.9938C63.4263 43.03 63.3749 43.0494 63.322 43.0479ZM61.2231 40.8446C61.1708 40.8445 61.1208 40.8236 61.0839 40.7866L60.3108 39.9594C60.2798 39.9218 60.2641 39.8738 60.2669 39.8251C60.2698 39.7765 60.2909 39.7306 60.3262 39.6969C60.3614 39.6631 60.4081 39.6439 60.4568 39.6432C60.5056 39.6424 60.5529 39.6601 60.5891 39.6927L61.3622 40.5199C61.3802 40.5376 61.3945 40.5586 61.4043 40.5818C61.414 40.6051 61.4191 40.63 61.4191 40.6552C61.4191 40.6804 61.414 40.7054 61.4043 40.7286C61.3945 40.7518 61.3802 40.7729 61.3622 40.7905C61.3429 40.8115 61.3186 40.8275 61.2917 40.8369C61.2647 40.8463 61.2358 40.849 61.2076 40.8446H61.2231ZM59.1241 38.6452C59.0982 38.6458 59.0724 38.641 59.0484 38.631C59.0244 38.621 59.0028 38.6061 58.985 38.5872L58.2119 37.76C58.1921 37.7422 58.1762 37.7206 58.1652 37.6964C58.1542 37.6722 58.1483 37.6459 58.1479 37.6194C58.1475 37.5928 58.1525 37.5664 58.1628 37.5418C58.173 37.5173 58.1882 37.4951 58.2074 37.4767C58.2266 37.4584 58.2494 37.4441 58.2743 37.4349C58.2993 37.4257 58.3259 37.4218 58.3524 37.4233C58.379 37.4249 58.4049 37.4319 58.4286 37.4439C58.4523 37.456 58.4733 37.4728 58.4902 37.4933L59.2633 38.3205C59.2813 38.3381 59.2956 38.3592 59.3053 38.3824C59.3151 38.4056 59.3201 38.4306 59.3201 38.4558C59.3201 38.481 59.3151 38.5059 59.3053 38.5292C59.2956 38.5524 59.2813 38.5734 59.2633 38.5911C59.2429 38.6106 59.2185 38.6256 59.1919 38.635C59.1652 38.6443 59.1368 38.6478 59.1087 38.6452H59.1241ZM57.0213 36.4458C56.9951 36.4459 56.9691 36.4404 56.9451 36.4298C56.9211 36.4191 56.8997 36.4035 56.8822 36.3839L56.1091 35.5606C56.0916 35.542 56.0779 35.5202 56.0688 35.4964C56.0597 35.4726 56.0554 35.4472 56.0561 35.4217C56.0568 35.3963 56.0626 35.3712 56.073 35.3479C56.0834 35.3246 56.0983 35.3036 56.1168 35.2861C56.1354 35.2686 56.1572 35.2549 56.181 35.2458C56.2048 35.2367 56.2302 35.2324 56.2557 35.2332C56.2811 35.2339 56.3062 35.2396 56.3295 35.25C56.3528 35.2604 56.3738 35.2753 56.3913 35.2939L57.1644 36.1172C57.1825 36.1352 57.1969 36.1565 57.2067 36.1801C57.2165 36.2036 57.2215 36.2289 57.2215 36.2544C57.2215 36.2799 57.2165 36.3052 57.2067 36.3287C57.1969 36.3523 57.1825 36.3737 57.1644 36.3916C57.1434 36.4115 57.1184 36.4266 57.091 36.436C57.0637 36.4453 57.0346 36.4487 57.0059 36.4458H57.0213ZM54.9224 34.2425C54.8702 34.2423 54.8201 34.2215 54.7833 34.1845L54.0102 33.3611C53.9921 33.3432 53.9777 33.3218 53.9679 33.2982C53.9581 33.2747 53.953 33.2494 53.953 33.2239C53.953 33.1984 53.9581 33.1731 53.9679 33.1496C53.9777 33.126 53.9921 33.1047 54.0102 33.0867C54.0278 33.0687 54.0489 33.0544 54.0721 33.0446C54.0953 33.0349 54.1203 33.0298 54.1455 33.0298C54.1707 33.0298 54.1956 33.0349 54.2188 33.0446C54.2421 33.0544 54.2631 33.0687 54.2807 33.0867L55.0538 33.91C55.0719 33.928 55.0863 33.9494 55.0961 33.9729C55.106 33.9965 55.111 34.0217 55.111 34.0473C55.111 34.0728 55.106 34.098 55.0961 34.1216C55.0863 34.1451 55.0719 34.1665 55.0538 34.1845C55.0344 34.2034 55.0114 34.2182 54.9862 34.2282C54.961 34.2381 54.9341 34.243 54.907 34.2425H54.9224ZM52.808 32.0546C52.7821 32.055 52.7564 32.05 52.7324 32.0401C52.7085 32.0301 52.6869 32.0153 52.6689 31.9966L51.8958 31.1694C51.8778 31.1518 51.8635 31.1308 51.8537 31.1075C51.844 31.0843 51.8389 31.0593 51.8389 31.0342C51.8389 31.009 51.844 30.984 51.8537 30.9608C51.8635 30.9375 51.8778 30.9165 51.8958 30.8989C51.9137 30.8807 51.9351 30.8664 51.9587 30.8566C51.9822 30.8467 52.0075 30.8417 52.033 30.8417C52.0585 30.8417 52.0838 30.8467 52.1073 30.8566C52.1309 30.8664 52.1523 30.8807 52.1702 30.8989L52.9433 31.7261C52.9613 31.7437 52.9756 31.7647 52.9854 31.788C52.9951 31.8112 53.0002 31.8362 53.0002 31.8614C53.0002 31.8866 52.9951 31.9115 52.9854 31.9347C52.9756 31.958 52.9613 31.979 52.9433 31.9966C52.9264 32.0156 52.9055 32.0306 52.8821 32.0407C52.8587 32.0507 52.8334 32.0554 52.808 32.0546ZM50.7052 29.8552C50.653 29.8551 50.6029 29.8342 50.5661 29.7972L49.793 28.9623C49.7749 28.9443 49.7605 28.9229 49.7507 28.8994C49.7409 28.8758 49.7358 28.8506 49.7358 28.8251C49.7358 28.7995 49.7409 28.7743 49.7507 28.7507C49.7605 28.7272 49.7749 28.7058 49.793 28.6878C49.8109 28.6697 49.8323 28.6553 49.8559 28.6455C49.8794 28.6357 49.9047 28.6307 49.9302 28.6307C49.9557 28.6307 49.981 28.6357 50.0045 28.6455C50.0281 28.6553 50.0495 28.6697 50.0674 28.6878L50.8405 29.515C50.8585 29.5327 50.8728 29.5537 50.8826 29.577C50.8923 29.6002 50.8974 29.6251 50.8974 29.6503C50.8974 29.6755 50.8923 29.7005 50.8826 29.7237C50.8728 29.7469 50.8585 29.768 50.8405 29.7856C50.8044 29.8214 50.756 29.8421 50.7052 29.8436V29.8552ZM48.6063 27.6558C48.58 27.6559 48.5541 27.6504 48.5301 27.6398C48.5061 27.6291 48.4846 27.6135 48.4671 27.5939L47.6941 26.7706C47.6587 26.7332 47.6396 26.6832 47.6411 26.6318C47.6425 26.5803 47.6644 26.5315 47.7018 26.4961C47.7392 26.4608 47.7891 26.4417 47.8406 26.4432C47.8921 26.4446 47.9409 26.4664 47.9762 26.5039L48.7493 27.3272C48.7674 27.3452 48.7818 27.3665 48.7916 27.3901C48.8014 27.4136 48.8065 27.4389 48.8065 27.4644C48.8065 27.4899 48.8014 27.5152 48.7916 27.5388C48.7818 27.5623 48.7674 27.5837 48.7493 27.6016C48.7089 27.6336 48.6577 27.6489 48.6063 27.6442V27.6558ZM46.5074 25.4563C46.4547 25.4548 46.4047 25.4326 46.3682 25.3945L45.5951 24.5711C45.5592 24.5342 45.5395 24.4846 45.5402 24.4331C45.5409 24.3817 45.5621 24.3326 45.599 24.2967C45.6359 24.2608 45.6855 24.2411 45.737 24.2418C45.7885 24.2425 45.8375 24.2637 45.8734 24.3006L46.6465 25.1278C46.6646 25.1457 46.679 25.1671 46.6888 25.1907C46.6986 25.2142 46.7037 25.2395 46.7037 25.265C46.7037 25.2905 46.6986 25.3158 46.6888 25.3393C46.679 25.3629 46.6646 25.3842 46.6465 25.4022C46.6273 25.4181 46.6051 25.4301 46.5812 25.4374C46.5573 25.4447 46.5322 25.4472 46.5074 25.4447V25.4563ZM44.4084 23.253C44.3819 23.2535 44.3556 23.2486 44.331 23.2386C44.3064 23.2287 44.2841 23.2138 44.2654 23.1951L43.4923 22.3679C43.4743 22.3502 43.46 22.3292 43.4503 22.3059C43.4405 22.2827 43.4355 22.2578 43.4355 22.2326C43.4355 22.2074 43.4405 22.1824 43.4503 22.1592C43.46 22.136 43.4743 22.1149 43.4923 22.0973C43.5103 22.0792 43.5317 22.0648 43.5552 22.055C43.5788 22.0452 43.604 22.0401 43.6295 22.0401C43.6551 22.0401 43.6803 22.0452 43.7039 22.055C43.7274 22.0648 43.7488 22.0792 43.7668 22.0973L44.5399 22.9245C44.5579 22.9421 44.5722 22.9632 44.5819 22.9864C44.5917 23.0096 44.5967 23.0346 44.5967 23.0598C44.5967 23.085 44.5917 23.1099 44.5819 23.1331C44.5722 23.1564 44.5579 23.1774 44.5399 23.1951C44.5221 23.2111 44.5013 23.2234 44.4788 23.2314C44.4562 23.2393 44.4323 23.2427 44.4084 23.2414V23.253ZM42.3056 21.0536C42.2794 21.0537 42.2534 21.0483 42.2294 21.0376C42.2054 21.027 42.184 21.0113 42.1665 20.9918L41.3934 20.1684C41.358 20.131 41.339 20.0811 41.3404 20.0296C41.3419 19.9781 41.3637 19.9293 41.4011 19.894C41.4385 19.8586 41.4885 19.8396 41.54 19.841C41.5914 19.8425 41.6402 19.8643 41.6756 19.9017L42.4487 20.725C42.4668 20.743 42.4812 20.7644 42.491 20.7879C42.5008 20.8115 42.5058 20.8368 42.5058 20.8623C42.5058 20.8878 42.5008 20.913 42.491 20.9366C42.4812 20.9601 42.4668 20.9815 42.4487 20.9995C42.4082 21.0315 42.357 21.0467 42.3056 21.042V21.0536ZM40.2067 18.8542C40.1805 18.8543 40.1545 18.8488 40.1305 18.8382C40.1065 18.8275 40.0851 18.8119 40.0676 18.7923L39.2945 17.969C39.2764 17.951 39.262 17.9296 39.2522 17.9061C39.2424 17.8825 39.2373 17.8573 39.2373 17.8318C39.2373 17.8063 39.2424 17.781 39.2522 17.7574C39.262 17.7339 39.2764 17.7125 39.2945 17.6945C39.3121 17.6765 39.3332 17.6622 39.3564 17.6525C39.3796 17.6427 39.4046 17.6377 39.4298 17.6377C39.455 17.6377 39.4799 17.6427 39.5031 17.6525C39.5264 17.6622 39.5474 17.6765 39.565 17.6945L40.3381 18.5179C40.3563 18.5358 40.3706 18.5572 40.3804 18.5808C40.3903 18.6043 40.3953 18.6296 40.3953 18.6551C40.3953 18.6806 40.3903 18.7059 40.3804 18.7294C40.3706 18.753 40.3563 18.7744 40.3381 18.7923C40.3024 18.8253 40.2553 18.8433 40.2067 18.8426V18.8542Z" fill="url(#paint6_linear_138_15610)"/>
<path d="M71.5128 94.5512C71.4868 94.5518 71.461 94.547 71.4371 94.537C71.4131 94.527 71.3915 94.5121 71.3736 94.4932L70.558 93.639C70.5224 93.6022 70.5024 93.553 70.5024 93.5018C70.5024 93.4505 70.5224 93.4013 70.558 93.3645C70.576 93.3464 70.5974 93.332 70.6209 93.3222C70.6445 93.3124 70.6697 93.3074 70.6953 93.3074C70.7208 93.3074 70.746 93.3124 70.7696 93.3222C70.7931 93.332 70.8145 93.3464 70.8325 93.3645L71.6481 94.2188C71.6661 94.2364 71.6804 94.2575 71.6901 94.2807C71.6999 94.3039 71.7049 94.3289 71.7049 94.3541C71.7049 94.3793 71.6999 94.4042 71.6901 94.4275C71.6804 94.4507 71.6661 94.4717 71.6481 94.4894C71.6128 94.5269 71.5642 94.5491 71.5128 94.5512ZM69.3404 92.2783C69.3142 92.2785 69.2882 92.273 69.2642 92.2624C69.2402 92.2517 69.2188 92.2361 69.2013 92.2165L68.3857 91.3661C68.3503 91.3287 68.3312 91.2788 68.3327 91.2273C68.3341 91.1758 68.356 91.127 68.3934 91.0917C68.4308 91.0563 68.4807 91.0372 68.5322 91.0387C68.5837 91.0401 68.6325 91.062 68.6678 91.0994L69.4796 91.9498C69.4977 91.9678 69.5121 91.9891 69.5219 92.0127C69.5317 92.0362 69.5367 92.0615 69.5367 92.087C69.5367 92.1125 69.5317 92.1378 69.5219 92.1613C69.5121 92.1849 69.4977 92.2063 69.4796 92.2242C69.4414 92.2588 69.3919 92.2781 69.3404 92.2783ZM67.1874 90.0055C67.1611 90.0056 67.1351 90.0001 67.1112 89.9895C67.0872 89.9788 67.0657 89.9632 67.0482 89.9436L66.2365 89.0932C66.2184 89.0753 66.204 89.0539 66.1942 89.0303C66.1844 89.0068 66.1793 88.9815 66.1793 88.956C66.1793 88.9305 66.1844 88.9052 66.1942 88.8817C66.204 88.8581 66.2184 88.8368 66.2365 88.8188C66.2544 88.8007 66.2758 88.7863 66.2994 88.7765C66.3229 88.7667 66.3482 88.7616 66.3737 88.7616C66.3992 88.7616 66.4245 88.7667 66.448 88.7765C66.4716 88.7863 66.493 88.8007 66.5109 88.8188L67.3227 89.6692C67.3408 89.6871 67.3552 89.7085 67.365 89.7321C67.3748 89.7556 67.3798 89.7809 67.3798 89.8064C67.3798 89.8319 67.3748 89.8572 67.365 89.8807C67.3552 89.9043 67.3408 89.9257 67.3227 89.9436C67.2871 89.9808 67.2387 90.0029 67.1874 90.0055ZM64.9995 87.7171C64.9734 87.7168 64.9475 87.7111 64.9236 87.7005C64.8997 87.6899 64.8782 87.6745 64.8604 87.6553L64.0448 86.801C64.0137 86.7634 63.9981 86.7154 64.0009 86.6667C64.0037 86.618 64.0249 86.5722 64.0601 86.5385C64.0953 86.5047 64.142 86.4855 64.1908 86.4848C64.2396 86.484 64.2868 86.5017 64.3231 86.5343L65.1387 87.3886C65.1568 87.4065 65.1712 87.4279 65.181 87.4515C65.1908 87.475 65.1959 87.5003 65.1959 87.5258C65.1959 87.5513 65.1908 87.5766 65.181 87.6001C65.1712 87.6237 65.1568 87.6451 65.1387 87.663C65.1012 87.6986 65.0512 87.718 64.9995 87.7171ZM62.8272 85.4404C62.7749 85.4403 62.7249 85.4194 62.688 85.3824L61.8724 84.5282C61.8544 84.5105 61.8401 84.4895 61.8303 84.4662C61.8206 84.443 61.8156 84.4181 61.8156 84.3929C61.8156 84.3677 61.8206 84.3427 61.8303 84.3195C61.8401 84.2963 61.8544 84.2752 61.8724 84.2576C61.8904 84.2395 61.9117 84.2251 61.9353 84.2153C61.9589 84.2055 61.9841 84.2004 62.0096 84.2004C62.0351 84.2004 62.0604 84.2055 62.084 84.2153C62.1075 84.2251 62.1289 84.2395 62.1468 84.2576L62.9586 85.1118C62.9767 85.1298 62.9911 85.1512 63.0009 85.1747C63.0107 85.1983 63.0158 85.2235 63.0158 85.2491C63.0158 85.2746 63.0107 85.2998 63.0009 85.3234C62.9911 85.3469 62.9767 85.3683 62.9586 85.3863C62.925 85.4251 62.8781 85.45 62.8272 85.4559V85.4404ZM60.6548 83.1675C60.6026 83.1674 60.5525 83.1465 60.5156 83.1095L59.7039 82.2553C59.6841 82.2375 59.6682 82.2158 59.6572 82.1916C59.6462 82.1674 59.6403 82.1412 59.6399 82.1146C59.6395 82.0881 59.6445 82.0617 59.6548 82.0371C59.665 82.0126 59.6802 81.9904 59.6994 81.972C59.7186 81.9536 59.7414 81.9394 59.7663 81.9302C59.7913 81.921 59.8179 81.9171 59.8444 81.9186C59.871 81.9202 59.8969 81.9272 59.9206 81.9392C59.9443 81.9513 59.9653 81.9681 59.9822 81.9886L60.7978 82.8428C60.8158 82.8605 60.8301 82.8815 60.8399 82.9047C60.8496 82.928 60.8547 82.9529 60.8547 82.9781C60.8547 83.0033 60.8496 83.0283 60.8399 83.0515C60.8301 83.0747 60.8158 83.0958 60.7978 83.1134C60.7808 83.1351 60.7591 83.1526 60.7343 83.1647C60.7095 83.1767 60.6823 83.183 60.6548 83.183V83.1675ZM58.4863 80.8947C58.4604 80.895 58.4346 80.8901 58.4107 80.8801C58.3868 80.8701 58.3651 80.8554 58.3471 80.8367L57.5238 79.9863C57.5057 79.9683 57.4913 79.9469 57.4815 79.9234C57.4717 79.8998 57.4666 79.8746 57.4666 79.8491C57.4666 79.8235 57.4717 79.7983 57.4815 79.7747C57.4913 79.7512 57.5057 79.7298 57.5238 79.7118C57.5414 79.6938 57.5625 79.6795 57.5857 79.6698C57.6089 79.66 57.6339 79.655 57.6591 79.655C57.6843 79.655 57.7092 79.66 57.7325 79.6698C57.7557 79.6795 57.7767 79.6938 57.7944 79.7118L58.61 80.5622C58.6281 80.5802 58.6425 80.6016 58.6523 80.6251C58.6621 80.6487 58.6671 80.6739 58.6671 80.6995C58.6671 80.725 58.6621 80.7502 58.6523 80.7738C58.6425 80.7973 58.6281 80.8187 58.61 80.8367C58.58 80.8765 58.5356 80.9029 58.4863 80.9101V80.8947ZM56.3139 78.6218C56.2877 78.6219 56.2617 78.6165 56.2377 78.6058C56.2137 78.5951 56.1923 78.5795 56.1748 78.5599L55.3591 77.7095C55.3238 77.6721 55.3047 77.6222 55.3062 77.5707C55.3076 77.5192 55.3295 77.4705 55.3669 77.4351C55.4043 77.3997 55.4542 77.3807 55.5057 77.3821C55.5572 77.3836 55.606 77.4054 55.6413 77.4428L56.4531 78.2932C56.4712 78.3112 56.4856 78.3326 56.4954 78.3561C56.5052 78.3797 56.5102 78.4049 56.5102 78.4304C56.5102 78.456 56.5052 78.4812 56.4954 78.5048C56.4856 78.5283 56.4712 78.5497 56.4531 78.5677C56.4357 78.5879 56.4144 78.6045 56.3905 78.6165C56.3666 78.6284 56.3406 78.6355 56.3139 78.6372V78.6218ZM54.1415 76.3489C54.1153 76.349 54.0893 76.3436 54.0653 76.3329C54.0413 76.3223 54.0199 76.3066 54.0024 76.2871L53.1906 75.4367C53.1709 75.4189 53.155 75.3972 53.144 75.373C53.133 75.3488 53.1271 75.3226 53.1266 75.296C53.1262 75.2694 53.1313 75.243 53.1415 75.2185C53.1518 75.194 53.167 75.1718 53.1862 75.1534C53.2053 75.135 53.2281 75.1208 53.2531 75.1116C53.278 75.1024 53.3046 75.0985 53.3312 75.1C53.3577 75.1016 53.3836 75.1086 53.4073 75.1206C53.4311 75.1326 53.452 75.1494 53.469 75.17L54.2846 76.0203C54.3027 76.0383 54.317 76.0597 54.3269 76.0832C54.3367 76.1068 54.3417 76.1321 54.3417 76.1576C54.3417 76.1831 54.3367 76.2083 54.3269 76.2319C54.317 76.2555 54.3027 76.2768 54.2846 76.2948C54.2667 76.3155 54.2448 76.3324 54.2202 76.3443C54.1956 76.3563 54.1689 76.3631 54.1415 76.3644V76.3489ZM51.973 74.076C51.9203 74.0745 51.8704 74.0522 51.8339 74.0142L51.0183 73.1599C50.9872 73.1223 50.9716 73.0743 50.9744 73.0256C50.9773 72.9769 50.9984 72.9311 51.0336 72.8974C51.0688 72.8636 51.1155 72.8444 51.1643 72.8437C51.2131 72.8429 51.2603 72.8606 51.2966 72.8932L52.1122 73.7629C52.1303 73.7809 52.1447 73.8023 52.1545 73.8258C52.1643 73.8494 52.1694 73.8746 52.1694 73.9002C52.1694 73.9257 52.1643 73.9509 52.1545 73.9745C52.1447 73.998 52.1303 74.0194 52.1122 74.0374C52.0939 74.0554 52.0721 74.0694 52.0482 74.0787C52.0242 74.088 51.9987 74.0924 51.973 74.0915V74.076ZM49.7929 71.8148C49.7407 71.8146 49.6907 71.7938 49.6538 71.7568L48.8382 70.9025C48.8202 70.8849 48.8059 70.8638 48.7961 70.8406C48.7864 70.8174 48.7813 70.7924 48.7813 70.7672C48.7813 70.742 48.7864 70.7171 48.7961 70.6938C48.8059 70.6706 48.8202 70.6496 48.8382 70.6319C48.8561 70.6138 48.8775 70.5994 48.9011 70.5896C48.9246 70.5798 48.9499 70.5748 48.9754 70.5748C49.0009 70.5748 49.0262 70.5798 49.0497 70.5896C49.0733 70.5994 49.0946 70.6138 49.1126 70.6319L49.9244 71.4862C49.9517 71.5129 49.9703 71.5473 49.9777 71.5848C49.9851 71.6222 49.9811 71.6611 49.966 71.6962C49.951 71.7313 49.9256 71.7611 49.8934 71.7816C49.8611 71.802 49.8234 71.8122 49.7852 71.8109L49.7929 71.8148ZM47.6322 69.5496C47.6056 69.5501 47.5793 69.5452 47.5547 69.5352C47.5302 69.5252 47.5078 69.5104 47.4891 69.4916L46.6774 68.6374C46.6576 68.6196 46.6417 68.5979 46.6307 68.5737C46.6197 68.5495 46.6138 68.5233 46.6134 68.4967C46.613 68.4701 46.618 68.4438 46.6283 68.4192C46.6385 68.3947 46.6537 68.3725 46.6729 68.3541C46.6921 68.3357 46.7149 68.3215 46.7398 68.3123C46.7648 68.3031 46.7914 68.2992 46.8179 68.3007C46.8445 68.3023 46.8704 68.3093 46.8941 68.3213C46.9178 68.3334 46.9388 68.3502 46.9557 68.3707L47.7713 69.2249C47.7893 69.2426 47.8036 69.2636 47.8134 69.2868C47.8231 69.3101 47.8282 69.335 47.8282 69.3602C47.8282 69.3854 47.8231 69.4104 47.8134 69.4336C47.8036 69.4568 47.7893 69.4779 47.7713 69.4955C47.7533 69.5139 47.7315 69.5282 47.7075 69.5375C47.6836 69.5468 47.6579 69.551 47.6322 69.5496ZM45.4598 67.2767C45.4075 67.2766 45.3575 67.2558 45.3206 67.2188L44.505 66.3645C44.4869 66.3465 44.4725 66.3252 44.4627 66.3016C44.4529 66.2781 44.4479 66.2528 44.4479 66.2273C44.4479 66.2018 44.4529 66.1765 44.4627 66.1529C44.4725 66.1294 44.4869 66.108 44.505 66.09C44.5227 66.072 44.5437 66.0578 44.5669 66.048C44.5902 66.0382 44.6151 66.0332 44.6403 66.0332C44.6655 66.0332 44.6905 66.0382 44.7137 66.048C44.7369 66.0578 44.758 66.072 44.7756 66.09L45.5912 66.9404C45.6093 66.9584 45.6237 66.9798 45.6335 67.0033C45.6433 67.0269 45.6484 67.0522 45.6484 67.0777C45.6484 67.1032 45.6433 67.1285 45.6335 67.152C45.6237 67.1756 45.6093 67.1969 45.5912 67.2149C45.5561 67.2493 45.509 67.2687 45.4598 67.269V67.2767ZM43.2874 65.0039C43.2612 65.004 43.2352 64.9985 43.2112 64.9879C43.1872 64.9772 43.1658 64.9616 43.1483 64.942L42.3326 64.0916C42.3151 64.0731 42.3014 64.0513 42.2924 64.0275C42.2833 64.0037 42.279 63.9783 42.2797 63.9528C42.2804 63.9273 42.2861 63.9022 42.2965 63.8789C42.307 63.8557 42.3218 63.8347 42.3404 63.8172C42.3589 63.7997 42.3807 63.786 42.4045 63.7769C42.4283 63.7678 42.4537 63.7635 42.4792 63.7642C42.5047 63.7649 42.5298 63.7706 42.553 63.7811C42.5763 63.7915 42.5973 63.8064 42.6148 63.8249L43.4266 64.6753C43.4447 64.6933 43.4591 64.7146 43.4689 64.7382C43.4787 64.7617 43.4837 64.787 43.4837 64.8125C43.4837 64.838 43.4787 64.8633 43.4689 64.8869C43.4591 64.9104 43.4447 64.9318 43.4266 64.9498C43.3877 64.9822 43.338 64.9988 43.2874 64.9961V65.0039ZM41.1189 62.731C41.092 62.7314 41.0654 62.7261 41.0407 62.7155C41.0161 62.7048 40.994 62.689 40.9759 62.6692L40.1641 61.8188C40.1444 61.801 40.1285 61.7793 40.1175 61.7551C40.1065 61.7309 40.1006 61.7047 40.1001 61.6781C40.0997 61.6515 40.1048 61.6251 40.115 61.6006C40.1253 61.5761 40.1405 61.5539 40.1596 61.5355C40.1788 61.5171 40.2016 61.5029 40.2266 61.4937C40.2515 61.4845 40.2781 61.4806 40.3047 61.4821C40.3312 61.4837 40.3571 61.4907 40.3808 61.5027C40.4046 61.5147 40.4255 61.5315 40.4424 61.552L41.2581 62.4024C41.2762 62.4204 41.2906 62.4418 41.3004 62.4653C41.3102 62.4889 41.3152 62.5141 41.3152 62.5396C41.3152 62.5652 41.3102 62.5904 41.3004 62.614C41.2906 62.6375 41.2762 62.6589 41.2581 62.6769C41.2194 62.7097 41.1695 62.7263 41.1189 62.7233V62.731ZM38.9465 60.4581C38.8938 60.4566 38.8439 60.4343 38.8074 60.3963L38.5523 60.1296C38.3545 59.9259 38.1807 59.7002 38.0343 59.457C38.0203 59.4359 38.0109 59.4121 38.0064 59.3872C38.002 59.3624 38.0027 59.3368 38.0085 59.3122C38.0143 59.2876 38.025 59.2644 38.0401 59.2441C38.0552 59.2238 38.0742 59.2068 38.0961 59.1941C38.1175 59.1801 38.1416 59.1706 38.1667 59.1661C38.1919 59.1616 38.2178 59.1623 38.2427 59.168C38.2676 59.1738 38.2911 59.1846 38.3118 59.1997C38.3324 59.2148 38.3498 59.234 38.3628 59.256C38.4983 59.4742 38.6564 59.6777 38.8344 59.8628L39.0857 60.1296C39.1038 60.1475 39.1182 60.1689 39.128 60.1925C39.1378 60.216 39.1429 60.2413 39.1429 60.2668C39.1429 60.2923 39.1378 60.3176 39.128 60.3411C39.1182 60.3647 39.1038 60.386 39.0857 60.404C39.0667 60.4206 39.0447 60.4333 39.0208 60.4412C38.9969 60.4492 38.9716 60.4523 38.9465 60.4504V60.4581ZM37.7057 57.6789C37.6545 57.6789 37.6053 57.6585 37.5691 57.6223C37.5328 57.586 37.5125 57.5369 37.5125 57.4856V56.326C37.5125 56.2747 37.5328 56.2255 37.5691 56.1893C37.6053 56.1531 37.6545 56.1327 37.7057 56.1327C37.757 56.1327 37.8061 56.1531 37.8424 56.1893C37.8786 56.2255 37.899 56.2747 37.899 56.326V57.4856C37.897 57.5355 37.8758 57.5827 37.8397 57.6173C37.8037 57.6519 37.7557 57.6712 37.7057 57.6711V57.6789ZM37.7057 54.5363C37.6548 54.5353 37.6062 54.5146 37.5702 54.4786C37.5341 54.4425 37.5134 54.394 37.5125 54.343V53.164C37.5125 53.1128 37.5328 53.0636 37.5691 53.0274C37.6053 52.9911 37.6545 52.9708 37.7057 52.9708C37.757 52.9708 37.8061 52.9911 37.8424 53.0274C37.8786 53.0636 37.899 53.1128 37.899 53.164V54.343C37.897 54.3929 37.8758 54.4401 37.8397 54.4747C37.8037 54.5093 37.7557 54.5286 37.7057 54.5286V54.5363ZM37.7057 51.3898C37.6545 51.3898 37.6053 51.3695 37.5691 51.3332C37.5328 51.297 37.5125 51.2478 37.5125 51.1965V50.0176C37.5134 49.9666 37.5341 49.9181 37.5702 49.882C37.6062 49.846 37.6548 49.8253 37.7057 49.8243C37.757 49.8243 37.8061 49.8447 37.8424 49.8809C37.8786 49.9172 37.899 49.9663 37.899 50.0176V51.1965C37.897 51.2464 37.8758 51.2936 37.8397 51.3282C37.8037 51.3628 37.7557 51.3821 37.7057 51.3821V51.3898ZM37.7057 48.2472C37.6545 48.2472 37.6053 48.2269 37.5691 48.1906C37.5328 48.1544 37.5125 48.1052 37.5125 48.054V46.875C37.5134 46.824 37.5341 46.7755 37.5702 46.7394C37.6062 46.7034 37.6548 46.6827 37.7057 46.6817C37.757 46.6817 37.8061 46.7021 37.8424 46.7383C37.8786 46.7746 37.899 46.8237 37.899 46.875V48.054C37.897 48.1039 37.8758 48.151 37.8397 48.1856C37.8037 48.2202 37.7557 48.2395 37.7057 48.2395V48.2472ZM37.7057 45.1046C37.6545 45.1046 37.6053 45.0843 37.5691 45.048C37.5328 45.0118 37.5125 44.9626 37.5125 44.9114V43.7324C37.5125 43.6811 37.5328 43.632 37.5691 43.5957C37.6053 43.5595 37.6545 43.5391 37.7057 43.5391C37.757 43.5391 37.8061 43.5595 37.8424 43.5957C37.8786 43.632 37.899 43.6811 37.899 43.7324V44.9114C37.897 44.9613 37.8758 45.0085 37.8397 45.0431C37.8037 45.0776 37.7557 45.0969 37.7057 45.0969V45.1046ZM37.7057 41.962C37.6548 41.961 37.6062 41.9404 37.5702 41.9043C37.5341 41.8683 37.5134 41.8197 37.5125 41.7688V40.5898C37.5125 40.5385 37.5328 40.4894 37.5691 40.4531C37.6053 40.4169 37.6545 40.3965 37.7057 40.3965C37.757 40.3965 37.8061 40.4169 37.8424 40.4531C37.8786 40.4894 37.899 40.5385 37.899 40.5898V41.7688C37.897 41.8187 37.8758 41.8659 37.8397 41.9005C37.8037 41.935 37.7557 41.9543 37.7057 41.9543V41.962ZM37.7057 38.8156C37.6545 38.8156 37.6053 38.7952 37.5691 38.759C37.5328 38.7227 37.5125 38.6736 37.5125 38.6223V37.4433C37.5134 37.3924 37.5341 37.3438 37.5702 37.3078C37.6062 37.2717 37.6548 37.2511 37.7057 37.2501C37.757 37.2501 37.8061 37.2704 37.8424 37.3067C37.8786 37.3429 37.899 37.3921 37.899 37.4433V38.6262C37.896 38.6754 37.8744 38.7216 37.8384 38.7554C37.8025 38.7892 37.755 38.8079 37.7057 38.8078V38.8156ZM37.7057 35.673C37.6545 35.673 37.6053 35.6526 37.5691 35.6164C37.5328 35.5801 37.5125 35.531 37.5125 35.4797V34.3007C37.5134 34.2498 37.5341 34.2012 37.5702 34.1652C37.6062 34.1291 37.6548 34.1085 37.7057 34.1075C37.757 34.1075 37.8061 34.1278 37.8424 34.1641C37.8786 34.2003 37.899 34.2495 37.899 34.3007V35.4797C37.897 35.5296 37.8758 35.5768 37.8397 35.6114C37.8037 35.646 37.7557 35.6653 37.7057 35.6652V35.673ZM37.7057 32.5304C37.6545 32.5304 37.6053 32.51 37.5691 32.4738C37.5328 32.4375 37.5125 32.3884 37.5125 32.3371V31.1581C37.5125 31.1069 37.5328 31.0577 37.5691 31.0215C37.6053 30.9852 37.6545 30.9649 37.7057 30.9649C37.757 30.9649 37.8061 30.9852 37.8424 31.0215C37.8786 31.0577 37.899 31.1069 37.899 31.1581V32.3371C37.897 32.387 37.8758 32.4342 37.8397 32.4688C37.8037 32.5034 37.7557 32.5227 37.7057 32.5226V32.5304ZM37.7057 29.3878C37.6548 29.3868 37.6062 29.3661 37.5702 29.3301C37.5341 29.294 37.5134 29.2455 37.5125 29.1945V28.0156C37.5125 27.9643 37.5328 27.9151 37.5691 27.8789C37.6053 27.8426 37.6545 27.8223 37.7057 27.8223C37.757 27.8223 37.8061 27.8426 37.8424 27.8789C37.8786 27.9151 37.899 27.9643 37.899 28.0156V29.1945C37.897 29.2444 37.8758 29.2916 37.8397 29.3262C37.8037 29.3608 37.7557 29.3801 37.7057 29.38V29.3878ZM37.7057 26.2413C37.6545 26.2413 37.6053 26.221 37.5691 26.1847C37.5328 26.1485 37.5125 26.0993 37.5125 26.048V24.8691C37.5134 24.8181 37.5341 24.7696 37.5702 24.7335C37.6062 24.6975 37.6548 24.6768 37.7057 24.6758C37.757 24.6758 37.8061 24.6962 37.8424 24.7324C37.8786 24.7687 37.899 24.8178 37.899 24.8691V26.048C37.897 26.098 37.8758 26.1451 37.8397 26.1797C37.8037 26.2143 37.7557 26.2336 37.7057 26.2336V26.2413ZM37.7057 23.0987C37.6545 23.0987 37.6053 23.0784 37.5691 23.0421C37.5328 23.0059 37.5125 22.9567 37.5125 22.9055V21.7265C37.5134 21.6755 37.5341 21.627 37.5702 21.5909C37.6062 21.5549 37.6548 21.5342 37.7057 21.5332C37.757 21.5332 37.8061 21.5536 37.8424 21.5898C37.8786 21.6261 37.899 21.6752 37.899 21.7265V22.9055C37.897 22.9554 37.8758 23.0026 37.8397 23.0371C37.8037 23.0717 37.7557 23.091 37.7057 23.091V23.0987ZM37.7057 19.9561C37.6545 19.9561 37.6053 19.9358 37.5691 19.8995C37.5328 19.8633 37.5125 19.8141 37.5125 19.7629V18.5839C37.5125 18.5326 37.5328 18.4835 37.5691 18.4472C37.6053 18.411 37.6545 18.3906 37.7057 18.3906C37.757 18.3906 37.8061 18.411 37.8424 18.4472C37.8786 18.4835 37.899 18.5326 37.899 18.5839V19.7629C37.897 19.8128 37.8758 19.86 37.8397 19.8945C37.8037 19.9291 37.7557 19.9484 37.7057 19.9484V19.9561Z" fill="url(#paint7_linear_138_15610)"/>
<path d="M78.2311 50.9033L75.6064 52.4224C75.8367 52.9669 75.9676 53.5481 75.993 54.1387V101.019C75.993 101.51 75.8654 101.823 75.6567 101.946L78.2388 100.454C78.4514 100.334 78.579 100.017 78.579 99.5266V52.6466C78.573 52.0489 78.455 51.4576 78.2311 50.9033Z" fill="#263238"/>
<path d="M69.0467 70.3577C69.0053 68.982 68.5107 67.6585 67.6397 66.5928C66.8666 65.781 66.2327 66.1444 66.2327 67.4084C66.2735 68.783 66.7682 70.1055 67.6397 71.1694C68.4166 71.985 69.0467 71.6217 69.0467 70.3577Z" fill="#08CB7B"/>
<path d="M105.019 53.2959L111.532 57.057L105.019 60.818V53.2959Z" fill="#37474F"/>
<path d="M109.962 57.954L111.427 57.1075C111.629 57.039 111.805 56.9089 111.929 56.7356C112.053 56.5622 112.12 56.3544 112.12 56.1411C112.12 55.9279 112.053 55.72 111.929 55.5467C111.805 55.3733 111.629 55.2433 111.427 55.1748L105.019 51.4717V53.3155L109.491 55.8976C109.538 55.9257 109.577 55.9655 109.604 56.0133C109.632 56.0611 109.646 56.1151 109.646 56.1701C109.646 56.2251 109.632 56.2791 109.604 56.3269C109.577 56.3747 109.538 56.4145 109.491 56.4426L108.393 57.0766L109.962 57.954Z" fill="url(#paint8_linear_138_15610)"/>
<path d="M100.747 61.4714C98.8994 62.5383 97.3997 65.0276 97.3997 67.0299C97.3997 67.9962 97.7514 68.6727 98.3196 68.9935C98.8879 69.3144 99.9083 69.9096 99.9083 69.9096L109.858 63.4621C110.049 63.3787 110.214 63.2453 110.336 63.0759C110.458 62.9065 110.532 62.7074 110.55 62.4996V55.248C110.532 55.4566 110.459 55.6565 110.337 55.8266C110.215 55.9967 110.05 56.1307 109.858 56.2144L100.747 61.4714Z" fill="url(#paint9_linear_138_15610)"/>
<path d="M102.32 62.3757C100.469 63.4426 98.9729 65.9319 98.9729 67.9342C98.9729 69.9365 100.469 70.6941 102.32 69.6272L111.427 64.3664C111.618 64.2815 111.783 64.1478 111.905 63.9788C112.027 63.8098 112.102 63.6114 112.123 63.4039V56.1523C112.105 56.3613 112.031 56.5615 111.909 56.7317C111.786 56.9018 111.62 57.0356 111.427 57.1187L102.32 62.3757Z" fill="#37474F"/>
<path d="M102.885 63.4615C103.948 62.8469 104.817 63.3455 104.817 64.5709C104.779 65.2394 104.584 65.8894 104.248 66.4688C103.912 67.0482 103.445 67.5407 102.885 67.9068C101.822 68.5214 100.952 68.0227 100.952 66.7935C100.989 66.1252 101.183 65.4751 101.519 64.8961C101.855 64.3171 102.323 63.8256 102.885 63.4615Z" fill="#08CB7B"/>
<path d="M77.2376 49.3184L38.8345 9.09086C38.4767 8.72554 38.2059 8.28425 38.0421 7.7998L36.7356 11.0932L74.64 50.8105C75.0586 51.2837 75.3862 51.8302 75.6064 52.4223L78.231 50.9032C78.0067 50.3151 77.6692 49.7766 77.2376 49.3184Z" fill="url(#paint10_linear_138_15610)"/>
<defs>
<linearGradient id="paint0_linear_138_15610" x1="69.7574" y1="0" x2="69.7574" y2="35.5894" gradientUnits="userSpaceOnUse">
<stop stop-color="#00CE66"/>
<stop offset="0.12" stop-color="#04CE64"/>
<stop offset="0.24" stop-color="#10CF5F"/>
<stop offset="0.37" stop-color="#25D056"/>
<stop offset="0.5" stop-color="#43D24A"/>
<stop offset="0.63" stop-color="#69D43B"/>
<stop offset="0.76" stop-color="#98D729"/>
<stop offset="0.9" stop-color="#CEDA13"/>
<stop offset="1" stop-color="#FFDE00"/>
</linearGradient>
<linearGradient id="paint1_linear_138_15610" x1="87.3046" y1="60.8389" x2="87.3046" y2="72.9019" gradientUnits="userSpaceOnUse">
<stop stop-color="#00CE66"/>
<stop offset="0.12" stop-color="#04CE64"/>
<stop offset="0.24" stop-color="#10CF5F"/>
<stop offset="0.37" stop-color="#25D056"/>
<stop offset="0.5" stop-color="#43D24A"/>
<stop offset="0.63" stop-color="#69D43B"/>
<stop offset="0.76" stop-color="#98D729"/>
<stop offset="0.9" stop-color="#CEDA13"/>
<stop offset="1" stop-color="#FFDE00"/>
</linearGradient>
<linearGradient id="paint2_linear_138_15610" x1="53.3623" y1="41.7314" x2="53.3623" y2="44.557" gradientUnits="userSpaceOnUse">
<stop stop-color="#00CE66"/>
<stop offset="0.12" stop-color="#04CE64"/>
<stop offset="0.24" stop-color="#10CF5F"/>
<stop offset="0.37" stop-color="#25D056"/>
<stop offset="0.5" stop-color="#43D24A"/>
<stop offset="0.63" stop-color="#69D43B"/>
<stop offset="0.76" stop-color="#98D729"/>
<stop offset="0.9" stop-color="#CEDA13"/>
<stop offset="1" stop-color="#FFDE00"/>
</linearGradient>
<linearGradient id="paint3_linear_138_15610" x1="49.1724" y1="39.3115" x2="49.1724" y2="42.137" gradientUnits="userSpaceOnUse">
<stop stop-color="#00CE66"/>
<stop offset="0.12" stop-color="#04CE64"/>
<stop offset="0.24" stop-color="#10CF5F"/>
<stop offset="0.37" stop-color="#25D056"/>
<stop offset="0.5" stop-color="#43D24A"/>
<stop offset="0.63" stop-color="#69D43B"/>
<stop offset="0.76" stop-color="#98D729"/>
<stop offset="0.9" stop-color="#CEDA13"/>
<stop offset="1" stop-color="#FFDE00"/>
</linearGradient>
<linearGradient id="paint4_linear_138_15610" x1="60.3851" y1="43.4951" x2="60.3851" y2="59.7741" gradientUnits="userSpaceOnUse">
<stop stop-color="#00CE66"/>
<stop offset="0.12" stop-color="#04CE64"/>
<stop offset="0.24" stop-color="#10CF5F"/>
<stop offset="0.37" stop-color="#25D056"/>
<stop offset="0.5" stop-color="#43D24A"/>
<stop offset="0.63" stop-color="#69D43B"/>
<stop offset="0.76" stop-color="#98D729"/>
<stop offset="0.9" stop-color="#CEDA13"/>
<stop offset="1" stop-color="#FFDE00"/>
</linearGradient>
<linearGradient id="paint5_linear_138_15610" x1="37.9005" y1="15.8369" x2="37.9005" y2="16.8025" gradientUnits="userSpaceOnUse">
<stop stop-color="#00CE66"/>
<stop offset="0.12" stop-color="#04CE64"/>
<stop offset="0.24" stop-color="#10CF5F"/>
<stop offset="0.37" stop-color="#25D056"/>
<stop offset="0.5" stop-color="#43D24A"/>
<stop offset="0.63" stop-color="#69D43B"/>
<stop offset="0.76" stop-color="#98D729"/>
<stop offset="0.9" stop-color="#CEDA13"/>
<stop offset="1" stop-color="#FFDE00"/>
</linearGradient>
<linearGradient id="paint6_linear_138_15610" x1="56.3481" y1="17.6377" x2="56.3481" y2="93.9044" gradientUnits="userSpaceOnUse">
<stop stop-color="#00CE66"/>
<stop offset="0.12" stop-color="#04CE64"/>
<stop offset="0.24" stop-color="#10CF5F"/>
<stop offset="0.37" stop-color="#25D056"/>
<stop offset="0.5" stop-color="#43D24A"/>
<stop offset="0.63" stop-color="#69D43B"/>
<stop offset="0.76" stop-color="#98D729"/>
<stop offset="0.9" stop-color="#CEDA13"/>
<stop offset="1" stop-color="#FFDE00"/>
</linearGradient>
<linearGradient id="paint7_linear_138_15610" x1="54.6075" y1="18.3906" x2="54.6075" y2="94.5541" gradientUnits="userSpaceOnUse">
<stop stop-color="#00CE66"/>
<stop offset="0.12" stop-color="#04CE64"/>
<stop offset="0.24" stop-color="#10CF5F"/>
<stop offset="0.37" stop-color="#25D056"/>
<stop offset="0.5" stop-color="#43D24A"/>
<stop offset="0.63" stop-color="#69D43B"/>
<stop offset="0.76" stop-color="#98D729"/>
<stop offset="0.9" stop-color="#CEDA13"/>
<stop offset="1" stop-color="#FFDE00"/>
</linearGradient>
<linearGradient id="paint8_linear_138_15610" x1="108.569" y1="51.4717" x2="108.569" y2="57.9542" gradientUnits="userSpaceOnUse">
<stop stop-color="#00CE66"/>
<stop offset="0.12" stop-color="#04CE64"/>
<stop offset="0.24" stop-color="#10CF5F"/>
<stop offset="0.37" stop-color="#25D056"/>
<stop offset="0.5" stop-color="#43D24A"/>
<stop offset="0.63" stop-color="#69D43B"/>
<stop offset="0.76" stop-color="#98D729"/>
<stop offset="0.9" stop-color="#CEDA13"/>
<stop offset="1" stop-color="#FFDE00"/>
</linearGradient>
<linearGradient id="paint9_linear_138_15610" x1="103.974" y1="55.248" x2="103.974" y2="69.9102" gradientUnits="userSpaceOnUse">
<stop stop-color="#00CE66"/>
<stop offset="0.12" stop-color="#04CE64"/>
<stop offset="0.24" stop-color="#10CF5F"/>
<stop offset="0.37" stop-color="#25D056"/>
<stop offset="0.5" stop-color="#43D24A"/>
<stop offset="0.63" stop-color="#69D43B"/>
<stop offset="0.76" stop-color="#98D729"/>
<stop offset="0.9" stop-color="#CEDA13"/>
<stop offset="1" stop-color="#FFDE00"/>
</linearGradient>
<linearGradient id="paint10_linear_138_15610" x1="57.4818" y1="7.7998" x2="57.4818" y2="52.424" gradientUnits="userSpaceOnUse">
<stop stop-color="#00CE66"/>
<stop offset="0.12" stop-color="#04CE64"/>
<stop offset="0.24" stop-color="#10CF5F"/>
<stop offset="0.37" stop-color="#25D056"/>
<stop offset="0.5" stop-color="#43D24A"/>
<stop offset="0.63" stop-color="#69D43B"/>
<stop offset="0.76" stop-color="#98D729"/>
<stop offset="0.9" stop-color="#CEDA13"/>
<stop offset="1" stop-color="#FFDE00"/>
</linearGradient>
</defs>
</svg>
