<svg width="24" height="24" viewBox="0 0 24 24" fill="none" xmlns="http://www.w3.org/2000/svg">
<g id="add">
<path id="icon" fill-rule="evenodd" clip-rule="evenodd" d="M12 3C12.6213 3 13.125 3.50368 13.125 4.125V10.875H19.875C20.4963 10.875 21 11.3787 21 12C21 12.6213 20.4963 13.125 19.875 13.125H13.125V19.875C13.125 20.4963 12.6213 21 12 21C11.3787 21 10.875 20.4963 10.875 19.875V13.125H4.125C3.50368 13.125 3 12.6213 3 12C3 11.3787 3.50368 10.875 4.125 10.875H10.875V4.125C10.875 3.50368 11.3787 3 12 3Z" fill="#00A85A"/>
</g>
</svg>
