<svg xmlns="http://www.w3.org/2000/svg" width="20" height="20" viewBox="0 0 20 20" fill="none">
  <path fill-rule="evenodd" clip-rule="evenodd" d="M9.99999 2.5C10.5178 2.5 10.9375 2.91973 10.9375 3.4375V9.0625H16.5625C17.0803 9.0625 17.5 9.48223 17.5 10C17.5 10.5178 17.0803 10.9375 16.5625 10.9375H10.9375V16.5625C10.9375 17.0803 10.5178 17.5 9.99999 17.5C9.48222 17.5 9.06249 17.0803 9.06249 16.5625V10.9375H3.4375C2.91973 10.9375 2.5 10.5178 2.5 10C2.5 9.48223 2.91973 9.0625 3.4375 9.0625H9.06249V3.4375C9.06249 2.91973 9.48222 2.5 9.99999 2.5Z" fill="white"/>
</svg>