<svg width="25" height="25" viewBox="0 0 25 25" fill="none" xmlns="http://www.w3.org/2000/svg">
<path d="M22.0703 1.95314H20.8984V0H18.9453V1.95314H6.05469V0H4.10156V1.95314H2.92969C1.31426 1.95314 0 3.26741 0 4.88285V22.0705C0 23.6859 1.31426 25.0002 2.92969 25.0002H22.0703C23.6857 25.0002 25 23.6859 25 22.0705V4.88285C25 3.26741 23.6857 1.95314 22.0703 1.95314ZM23.0469 22.0705C23.0469 22.609 22.6088 23.0471 22.0703 23.0471H2.92969C2.39121 23.0471 1.95312 22.609 1.95312 22.0705V9.17976H23.0469V22.0705ZM23.0469 7.22662H1.95312V4.88285C1.95312 4.34437 2.39121 3.90628 2.92969 3.90628H4.10156V5.85942H6.05469V3.90628H18.9453V5.85942H20.8984V3.90628H22.0703C22.6088 3.90628 23.0469 4.34437 23.0469 4.88285V7.22662Z" fill="black" fill-opacity="0.5"/>
<path d="M5.66406 11.2307H3.71094V13.1839H5.66406V11.2307Z" fill="black" fill-opacity="0.5"/>
<path d="M9.56982 11.2307H7.6167V13.1839H9.56982V11.2307Z" fill="black" fill-opacity="0.5"/>
<path d="M13.4766 11.2307H11.5234V13.1839H13.4766V11.2307Z" fill="black" fill-opacity="0.5"/>
<path d="M17.3828 11.2307H15.4297V13.1839H17.3828V11.2307Z" fill="black" fill-opacity="0.5"/>
<path d="M21.2886 11.2307H19.3354V13.1839H21.2886V11.2307Z" fill="black" fill-opacity="0.5"/>
<path d="M5.66406 15.137H3.71094V17.0901H5.66406V15.137Z" fill="black" fill-opacity="0.5"/>
<path d="M9.56982 15.1367H7.6167V17.0899H9.56982V15.1367Z" fill="black" fill-opacity="0.5"/>
<path d="M13.4766 15.137H11.5234V17.0901H13.4766V15.137Z" fill="black" fill-opacity="0.5"/>
<path d="M17.3828 15.137H15.4297V17.0901H17.3828V15.137Z" fill="black" fill-opacity="0.5"/>
<path d="M5.66406 19.0432H3.71094V20.9964H5.66406V19.0432Z" fill="black" fill-opacity="0.5"/>
<path d="M9.56982 19.0432H7.6167V20.9964H9.56982V19.0432Z" fill="black" fill-opacity="0.5"/>
<path d="M13.4766 19.0432H11.5234V20.9964H13.4766V19.0432Z" fill="black" fill-opacity="0.5"/>
<path d="M17.3828 19.0432H15.4297V20.9964H17.3828V19.0432Z" fill="black" fill-opacity="0.5"/>
<path d="M21.2886 15.1367H19.3354V17.0899H21.2886V15.1367Z" fill="black" fill-opacity="0.5"/>
</svg>
