<svg xmlns="http://www.w3.org/2000/svg" width="24" height="24" viewBox="0 0 24 24" fill="none">
  <g clip-path="url(#clip0_1409_32157)">
    <path d="M7.227 5.63609C6.78766 5.19675 6.07535 5.19675 5.63601 5.63609C5.19667 6.07543 5.19667 6.78774 5.63601 7.22708L10.409 12L5.63605 16.773C5.19671 17.2123 5.19671 17.9246 5.63605 18.364C6.07539 18.8033 6.7877 18.8033 7.22704 18.364L12 13.591L16.7729 18.364C17.2123 18.8033 17.9246 18.8033 18.3639 18.364C18.8033 17.9247 18.8033 17.2124 18.3639 16.773L13.591 12L18.364 7.22703C18.8033 6.78769 18.8033 6.07538 18.364 5.63604C17.9246 5.1967 17.2123 5.1967 16.773 5.63604L12 10.4091L7.227 5.63609Z" fill="#464F60"/>
  </g>
  <defs>
    <clipPath id="clip0_1409_32157">
      <rect width="24" height="24" fill="white"/>
    </clipPath>
  </defs>
</svg>