<svg width="16" height="16" viewBox="0 0 16 16" fill="none" xmlns="http://www.w3.org/2000/svg">
<g id="ic:round-password">
<path id="Vector" d="M1.99996 11.3331H14C14.3666 11.3331 14.6666 11.6331 14.6666 11.9998C14.6666 12.3665 14.3666 12.6665 14 12.6665H1.99996C1.63329 12.6665 1.33329 12.3665 1.33329 11.9998C1.33329 11.6331 1.63329 11.3331 1.99996 11.3331ZM1.66663 8.37979C1.90663 8.51978 2.21329 8.43312 2.35329 8.19312L2.66663 7.64645L2.98663 8.19979C3.12663 8.43979 3.43329 8.51979 3.67329 8.38645C3.91329 8.24645 3.99329 7.94645 3.85996 7.70645L3.53329 7.14645H4.16663C4.43996 7.14645 4.66663 6.91979 4.66663 6.64645C4.66663 6.37312 4.43996 6.14645 4.16663 6.14645H3.53329L3.84663 5.59978C3.98663 5.35978 3.90663 5.05312 3.66663 4.91312C3.55045 4.84845 3.41359 4.83177 3.28529 4.86665C3.15698 4.90153 3.04741 4.9852 2.97996 5.09979L2.66663 5.64645L2.35329 5.09979C2.28585 4.9852 2.17627 4.90153 2.04796 4.86665C1.91966 4.83177 1.7828 4.84845 1.66663 4.91312C1.42663 5.05312 1.34663 5.35978 1.48663 5.59978L1.79996 6.14645H1.16663C0.893293 6.14645 0.666626 6.37312 0.666626 6.64645C0.666626 6.91979 0.893293 7.14645 1.16663 7.14645H1.79996L1.47996 7.69979C1.34663 7.93979 1.42663 8.24645 1.66663 8.37979ZM6.99996 8.37979C7.23996 8.51978 7.54663 8.43312 7.68663 8.19312L7.99996 7.64645L8.31996 8.19979C8.45996 8.43979 8.76663 8.51979 9.00663 8.38645C9.24663 8.24645 9.32663 7.94645 9.19329 7.70645L8.87329 7.15312H9.50663C9.77996 7.15312 10.0066 6.92645 10.0066 6.65312C10.0066 6.37978 9.77996 6.15312 9.50663 6.15312H8.86663L9.17996 5.60645C9.24589 5.49123 9.26398 5.35474 9.23031 5.22633C9.19665 5.09791 9.11394 4.98784 8.99996 4.91979C8.94349 4.88695 8.88111 4.86555 8.81638 4.85683C8.75164 4.8481 8.68582 4.85221 8.62267 4.86893C8.55953 4.88564 8.50029 4.91463 8.44835 4.95425C8.39641 4.99386 8.35278 5.04331 8.31996 5.09979L7.99996 5.64645L7.68663 5.09979C7.65406 5.04305 7.61056 4.99333 7.55865 4.95352C7.50673 4.91371 7.44744 4.88459 7.3842 4.86785C7.32095 4.85111 7.25502 4.84708 7.19021 4.85599C7.1254 4.86491 7.063 4.88659 7.00663 4.91979C6.76663 5.05979 6.68663 5.36645 6.82663 5.60645L7.13996 6.15312H6.49996C6.43462 6.15223 6.36975 6.16434 6.30912 6.18874C6.2485 6.21314 6.19332 6.24934 6.1468 6.29523C6.10028 6.34113 6.06335 6.39582 6.03814 6.45611C6.01293 6.5164 5.99995 6.5811 5.99996 6.64645C5.99996 6.91979 6.22663 7.14645 6.49996 7.14645H7.13329L6.81329 7.69979C6.67996 7.93979 6.75996 8.24645 6.99996 8.37979ZM15.3333 6.64645C15.3333 6.37312 15.1066 6.14645 14.8333 6.14645H14.2L14.5133 5.59978C14.5792 5.48457 14.5973 5.34807 14.5636 5.21966C14.53 5.09125 14.4473 4.98118 14.3333 4.91312C14.2768 4.88028 14.2144 4.85889 14.1497 4.85016C14.085 4.84143 14.0192 4.84555 13.956 4.86226C13.8929 4.87898 13.8336 4.90797 13.7817 4.94758C13.7297 4.98719 13.6861 5.03664 13.6533 5.09312L13.3333 5.64645L13.02 5.09979C12.9874 5.04305 12.9439 4.99333 12.892 4.95352C12.8401 4.91371 12.7808 4.88459 12.7175 4.86785C12.6543 4.85111 12.5884 4.84708 12.5235 4.85599C12.4587 4.86491 12.3963 4.88659 12.34 4.91979C12.1 5.05979 12.02 5.36645 12.16 5.60645L12.4733 6.15312H11.84C11.7741 6.15161 11.7087 6.16324 11.6474 6.18734C11.5861 6.21143 11.5302 6.2475 11.4831 6.29343C11.4359 6.33936 11.3983 6.39424 11.3726 6.45486C11.3469 6.51547 11.3335 6.58061 11.3333 6.64645C11.3333 6.91979 11.56 7.14645 11.8333 7.14645H12.4666L12.1466 7.69979C12.1135 7.75651 12.0921 7.81928 12.0836 7.8844C12.075 7.94953 12.0796 8.0157 12.097 8.07904C12.1144 8.14237 12.1442 8.2016 12.1848 8.25324C12.2254 8.30489 12.2759 8.34791 12.3333 8.37979C12.5733 8.51978 12.88 8.43312 13.02 8.19312L13.3333 7.64645L13.6533 8.19979C13.7933 8.43979 14.1 8.51979 14.34 8.38645C14.58 8.24645 14.66 7.94645 14.5266 7.70645L14.2066 7.15312H14.84C15.1066 7.14645 15.3333 6.91979 15.3333 6.64645Z" fill="#00A85A"/>
</g>
</svg>
