<svg width="15" height="16" viewBox="0 0 15 16" fill="none" xmlns="http://www.w3.org/2000/svg">
<path d="M12.834 5.9987H6.83398C6.09761 5.9987 5.50065 6.59565 5.50065 7.33203V13.332C5.50065 14.0684 6.09761 14.6654 6.83398 14.6654H12.834C13.5704 14.6654 14.1673 14.0684 14.1673 13.332V7.33203C14.1673 6.59565 13.5704 5.9987 12.834 5.9987Z" fill="#00A85A"/>
<path d="M3.49104 9.60817C3.13742 9.60817 1.90039 9.60817 1.22451 9.60817C0.97446 9.35813 0.833984 9.01899 0.833984 8.66536V2.66536C0.833984 2.31174 0.97446 1.9726 1.22451 1.72256C1.47456 1.47251 1.8137 1.33203 2.16732 1.33203H8.16732C8.52094 1.33203 8.86008 1.47251 9.11013 1.72256C9.36018 1.9726 9.50065 2.31174 9.50065 2.66536V3.33203M6.83398 5.9987H12.834C13.5704 5.9987 14.1673 6.59565 14.1673 7.33203V13.332C14.1673 14.0684 13.5704 14.6654 12.834 14.6654H6.83398C6.09761 14.6654 5.50065 14.0684 5.50065 13.332V7.33203C5.50065 6.59565 6.09761 5.9987 6.83398 5.9987Z" stroke="#00A85A" stroke-width="1.5" stroke-linecap="round" stroke-linejoin="round"/>
</svg>
