<svg width="16" height="16" viewBox="0 0 16 16" fill="none" xmlns="http://www.w3.org/2000/svg">
<g id="mingcute:delete-fill" clip-path="url(#clip0_400_12381)">
<g id="Group">
<path id="Vector" d="M13.3333 3.33398C13.5101 3.33398 13.6797 3.40422 13.8047 3.52925C13.9298 3.65427 14 3.82384 14 4.00065C14 4.17746 13.9298 4.34703 13.8047 4.47206C13.6797 4.59708 13.5101 4.66732 13.3333 4.66732H12.6667L12.6647 4.71465L12.0427 13.4287C12.0187 13.765 11.8682 14.0799 11.6214 14.3097C11.3746 14.5395 11.0499 14.6673 10.7127 14.6673H5.28667C4.94943 14.6673 4.62471 14.5395 4.37792 14.3097C4.13114 14.0799 3.98061 13.765 3.95667 13.4287L3.33467 4.71532C3.33366 4.69934 3.33321 4.68333 3.33333 4.66732H2.66667C2.48986 4.66732 2.32029 4.59708 2.19526 4.47206C2.07024 4.34703 2 4.17746 2 4.00065C2 3.82384 2.07024 3.65427 2.19526 3.52925C2.32029 3.40422 2.48986 3.33398 2.66667 3.33398H13.3333ZM9.33333 1.33398C9.51014 1.33398 9.67971 1.40422 9.80474 1.52925C9.92976 1.65427 10 1.82384 10 2.00065C10 2.17746 9.92976 2.34703 9.80474 2.47206C9.67971 2.59708 9.51014 2.66732 9.33333 2.66732H6.66667C6.48986 2.66732 6.32029 2.59708 6.19526 2.47206C6.07024 2.34703 6 2.17746 6 2.00065C6 1.82384 6.07024 1.65427 6.19526 1.52925C6.32029 1.40422 6.48986 1.33398 6.66667 1.33398H9.33333Z" fill="#F04438"/>
</g>
</g>
<defs>
<clipPath id="clip0_400_12381">
<rect width="16" height="16" fill="white"/>
</clipPath>
</defs>
</svg>
