<svg width="16" height="16" viewBox="0 0 16 16" fill="none" xmlns="http://www.w3.org/2000/svg">
<g id="Question Circle">
<path id="Shape" d="M8 0C12.4184 0 16 3.5824 16 8C16 12.4176 12.4184 16 8 16C3.5816 16 0 12.4176 0 8C0 3.5824 3.5816 0 8 0ZM8 10.8C7.55817 10.8 7.2 11.1582 7.2 11.6C7.2 12.0418 7.55817 12.4 8 12.4C8.44183 12.4 8.8 12.0418 8.8 11.6C8.8 11.1582 8.44183 10.8 8 10.8ZM8 3.8C6.78497 3.8 5.8 4.78497 5.8 6C5.8 6.33137 6.06863 6.6 6.4 6.6C6.70376 6.6 6.95479 6.37428 6.99452 6.08142L7 6C7 5.44772 7.44772 5 8 5C8.55229 5 9 5.44772 9 6C9 6.43105 8.892 6.64421 8.48408 7.06576L8.37574 7.17574C7.67325 7.87822 7.4 8.33364 7.4 9.2C7.4 9.53137 7.66863 9.8 8 9.8C8.33137 9.8 8.6 9.53137 8.6 9.2C8.6 8.76895 8.708 8.55579 9.11592 8.13424L9.22426 8.02426C9.92675 7.32178 10.2 6.86636 10.2 6C10.2 4.78497 9.21503 3.8 8 3.8Z" fill="#00A85A"/>
</g>
</svg>
