<svg width="512" height="116" viewBox="0 0 512 116" fill="none" xmlns="http://www.w3.org/2000/svg">
<rect x="0.5" y="0.5" width="511" height="115" rx="7.5" fill="#F9F9F9"/>
<rect x="236" y="11" width="40" height="40" rx="20" fill="#F2F4F7"/>
<g clip-path="url(#clip0_1356_76838)">
<path d="M259.333 34.3334L256 31M256 31L252.667 34.3334M256 31V38.5M262.992 36.325C263.804 35.8819 264.446 35.1808 264.817 34.3322C265.187 33.4837 265.263 32.5361 265.035 31.6389C264.807 30.7418 264.286 29.9463 263.556 29.3779C262.825 28.8095 261.926 28.5006 261 28.5H259.95C259.698 27.5244 259.228 26.6186 258.575 25.8509C257.922 25.0831 257.104 24.4732 256.182 24.0672C255.259 23.6612 254.257 23.4695 253.25 23.5066C252.243 23.5437 251.258 23.8086 250.368 24.2814C249.478 24.7542 248.707 25.4226 248.112 26.2363C247.518 27.0501 247.116 27.988 246.936 28.9795C246.756 29.9711 246.803 30.9905 247.074 31.9611C247.345 32.9317 247.833 33.8282 248.5 34.5834" stroke="#475467" stroke-width="1.66667" stroke-linecap="round" stroke-linejoin="round"/>
</g>
<rect x="236" y="11" width="40" height="40" rx="20" stroke="#F9FAFB" stroke-width="6" stroke-linecap="round"/>
<path d="M157.575 71.1293H156.024C155.964 70.7978 155.853 70.5062 155.691 70.2543C155.529 70.0024 155.33 69.7886 155.094 69.6129C154.859 69.4373 154.596 69.3047 154.304 69.2152C154.016 69.1257 153.709 69.081 153.384 69.081C152.798 69.081 152.272 69.2285 151.808 69.5234C151.348 69.8184 150.983 70.2509 150.714 70.821C150.449 71.3911 150.317 72.0871 150.317 72.9091C150.317 73.7377 150.449 74.437 150.714 75.0071C150.983 75.5772 151.349 76.008 151.813 76.2997C152.277 76.5914 152.799 76.7372 153.379 76.7372C153.701 76.7372 154.006 76.6941 154.294 76.608C154.586 76.5185 154.849 76.3875 155.085 76.2152C155.32 76.0429 155.519 75.8324 155.681 75.5838C155.847 75.3319 155.961 75.0436 156.024 74.7188L157.575 74.7237C157.492 75.2242 157.332 75.6849 157.093 76.1058C156.858 76.5234 156.554 76.8847 156.183 77.1896C155.815 77.4912 155.394 77.7249 154.92 77.8906C154.446 78.0563 153.929 78.1392 153.369 78.1392C152.488 78.1392 151.702 77.9304 151.013 77.5128C150.323 77.0919 149.78 76.4903 149.382 75.7081C148.988 74.9259 148.79 73.9929 148.79 72.9091C148.79 71.822 148.989 70.889 149.387 70.1101C149.785 69.3279 150.328 68.728 151.018 68.3104C151.707 67.8894 152.491 67.679 153.369 67.679C153.91 67.679 154.413 67.7569 154.881 67.9126C155.351 68.0651 155.774 68.2905 156.148 68.5888C156.523 68.8838 156.833 69.245 157.078 69.6726C157.323 70.0968 157.489 70.5824 157.575 71.1293ZM160.781 67.8182V78H159.294V67.8182H160.781ZM162.781 78V70.3636H164.267V78H162.781ZM163.531 69.1854C163.273 69.1854 163.051 69.0992 162.865 68.9268C162.683 68.7512 162.592 68.5424 162.592 68.3004C162.592 68.0552 162.683 67.8464 162.865 67.674C163.051 67.4983 163.273 67.4105 163.531 67.4105C163.79 67.4105 164.01 67.4983 164.192 67.674C164.378 67.8464 164.471 68.0552 164.471 68.3004C164.471 68.5424 164.378 68.7512 164.192 68.9268C164.01 69.0992 163.79 69.1854 163.531 69.1854ZM169.483 78.1541C168.744 78.1541 168.108 77.9867 167.574 77.652C167.044 77.3139 166.636 76.8482 166.351 76.255C166.066 75.6617 165.924 74.9822 165.924 74.2166C165.924 73.4411 166.07 72.7566 166.361 72.1634C166.653 71.5668 167.064 71.1011 167.594 70.7663C168.125 70.4316 168.749 70.2642 169.469 70.2642C170.049 70.2642 170.566 70.3719 171.02 70.5874C171.474 70.7995 171.84 71.0978 172.118 71.4822C172.4 71.8667 172.568 72.3158 172.621 72.8295H171.174C171.094 72.4716 170.912 72.1634 170.627 71.9048C170.345 71.6463 169.967 71.517 169.493 71.517C169.079 71.517 168.716 71.6264 168.405 71.8452C168.096 72.0606 167.856 72.3688 167.684 72.7699C167.511 73.1676 167.425 73.6383 167.425 74.1818C167.425 74.7386 167.51 75.2192 167.679 75.6236C167.848 76.0279 168.086 76.3411 168.395 76.5632C168.706 76.7853 169.073 76.8963 169.493 76.8963C169.775 76.8963 170.03 76.8449 170.259 76.7422C170.491 76.6361 170.685 76.4853 170.841 76.2898C171 76.0942 171.111 75.8589 171.174 75.5838H172.621C172.568 76.0777 172.407 76.5185 172.138 76.9062C171.87 77.294 171.51 77.599 171.059 77.821C170.612 78.0431 170.087 78.1541 169.483 78.1541ZM175.577 75.4098L175.567 73.5952H175.826L178.869 70.3636H180.648L177.178 74.0426H176.945L175.577 75.4098ZM174.21 78V67.8182H175.697V78H174.21ZM179.033 78L176.298 74.3707L177.322 73.3317L180.857 78H179.033ZM189.273 70.3636V71.5568H185.102V70.3636H189.273ZM186.22 68.5341H187.707V75.7578C187.707 76.0462 187.75 76.2633 187.836 76.4091C187.922 76.5516 188.033 76.6494 188.169 76.7024C188.308 76.7521 188.459 76.777 188.622 76.777C188.741 76.777 188.845 76.7687 188.935 76.7521C189.024 76.7356 189.094 76.7223 189.144 76.7124L189.412 77.9403C189.326 77.9735 189.203 78.0066 189.044 78.0398C188.885 78.0762 188.686 78.0961 188.448 78.0994C188.057 78.1061 187.692 78.0365 187.354 77.8906C187.016 77.7448 186.742 77.5194 186.534 77.2145C186.325 76.9096 186.22 76.5268 186.22 76.0661V68.5341ZM194.052 78.1541C193.336 78.1541 192.711 77.9901 192.178 77.6619C191.644 77.3338 191.23 76.8748 190.935 76.2848C190.64 75.6948 190.492 75.0054 190.492 74.2166C190.492 73.4245 190.64 72.7318 190.935 72.1385C191.23 71.5452 191.644 71.0845 192.178 70.7564C192.711 70.4283 193.336 70.2642 194.052 70.2642C194.768 70.2642 195.393 70.4283 195.926 70.7564C196.46 71.0845 196.874 71.5452 197.169 72.1385C197.464 72.7318 197.612 73.4245 197.612 74.2166C197.612 75.0054 197.464 75.6948 197.169 76.2848C196.874 76.8748 196.46 77.3338 195.926 77.6619C195.393 77.9901 194.768 78.1541 194.052 78.1541ZM194.057 76.9062C194.521 76.9062 194.905 76.7836 195.21 76.5384C195.515 76.2931 195.741 75.9666 195.886 75.5589C196.036 75.1513 196.11 74.7022 196.11 74.2116C196.11 73.7244 196.036 73.277 195.886 72.8693C195.741 72.4583 195.515 72.1286 195.21 71.88C194.905 71.6314 194.521 71.5071 194.057 71.5071C193.589 71.5071 193.202 71.6314 192.893 71.88C192.589 72.1286 192.362 72.4583 192.212 72.8693C192.067 73.277 191.994 73.7244 191.994 74.2116C191.994 74.7022 192.067 75.1513 192.212 75.5589C192.362 75.9666 192.589 76.2931 192.893 76.5384C193.202 76.7836 193.589 76.9062 194.057 76.9062ZM207.813 74.8331V70.3636H209.305V78H207.843V76.6776H207.763C207.588 77.0852 207.306 77.425 206.918 77.6967C206.534 77.9652 206.055 78.0994 205.482 78.0994C204.991 78.0994 204.557 77.9917 204.179 77.7763C203.804 77.5575 203.509 77.2344 203.294 76.8068C203.082 76.3793 202.976 75.8506 202.976 75.2209V70.3636H204.462V75.0419C204.462 75.5623 204.607 75.9766 204.895 76.2848C205.183 76.593 205.558 76.7472 206.018 76.7472C206.297 76.7472 206.574 76.6776 206.849 76.5384C207.127 76.3991 207.357 76.1887 207.54 75.907C207.725 75.6252 207.817 75.2673 207.813 74.8331ZM211.302 80.8636V70.3636H212.754V71.6016H212.878C212.964 71.4425 213.088 71.2585 213.251 71.0497C213.413 70.8409 213.639 70.6586 213.927 70.5028C214.215 70.3438 214.597 70.2642 215.07 70.2642C215.687 70.2642 216.237 70.42 216.721 70.7315C217.205 71.0431 217.584 71.4922 217.86 72.0788C218.138 72.6655 218.277 73.3714 218.277 74.1967C218.277 75.022 218.14 75.7296 217.865 76.3196C217.589 76.9062 217.212 77.3587 216.731 77.6768C216.25 77.9917 215.702 78.1491 215.085 78.1491C214.621 78.1491 214.242 78.0713 213.947 77.9155C213.655 77.7597 213.427 77.5774 213.261 77.3686C213.095 77.1598 212.968 76.9742 212.878 76.8118H212.789V80.8636H211.302ZM212.759 74.1818C212.759 74.7187 212.837 75.1894 212.992 75.5938C213.148 75.9981 213.374 76.3146 213.669 76.5433C213.963 76.7687 214.325 76.8814 214.752 76.8814C215.196 76.8814 215.568 76.7637 215.866 76.5284C216.164 76.2898 216.39 75.9666 216.542 75.5589C216.698 75.1513 216.776 74.6922 216.776 74.1818C216.776 73.678 216.7 73.2256 216.547 72.8246C216.398 72.4235 216.173 72.107 215.871 71.875C215.573 71.643 215.2 71.527 214.752 71.527C214.321 71.527 213.957 71.638 213.659 71.8601C213.364 72.0821 213.14 72.392 212.987 72.7898C212.835 73.1875 212.759 73.6515 212.759 74.1818ZM221.429 67.8182V78H219.943V67.8182H221.429ZM226.646 78.1541C225.93 78.1541 225.305 77.9901 224.771 77.6619C224.238 77.3338 223.823 76.8748 223.528 76.2848C223.233 75.6948 223.086 75.0054 223.086 74.2166C223.086 73.4245 223.233 72.7318 223.528 72.1385C223.823 71.5452 224.238 71.0845 224.771 70.7564C225.305 70.4283 225.93 70.2642 226.646 70.2642C227.362 70.2642 227.986 70.4283 228.52 70.7564C229.054 71.0845 229.468 71.5452 229.763 72.1385C230.058 72.7318 230.205 73.4245 230.205 74.2166C230.205 75.0054 230.058 75.6948 229.763 76.2848C229.468 76.8748 229.054 77.3338 228.52 77.6619C227.986 77.9901 227.362 78.1541 226.646 78.1541ZM226.651 76.9062C227.115 76.9062 227.499 76.7836 227.804 76.5384C228.109 76.2931 228.334 75.9666 228.48 75.5589C228.629 75.1513 228.704 74.7022 228.704 74.2116C228.704 73.7244 228.629 73.277 228.48 72.8693C228.334 72.4583 228.109 72.1286 227.804 71.88C227.499 71.6314 227.115 71.5071 226.651 71.5071C226.183 71.5071 225.795 71.6314 225.487 71.88C225.182 72.1286 224.955 72.4583 224.806 72.8693C224.66 73.277 224.587 73.7244 224.587 74.2116C224.587 74.7022 224.66 75.1513 224.806 75.5589C224.955 75.9666 225.182 76.2931 225.487 76.5384C225.795 76.7836 226.183 76.9062 226.651 76.9062ZM234.087 78.169C233.603 78.169 233.165 78.0795 232.774 77.9006C232.383 77.7183 232.073 77.4548 231.845 77.1101C231.619 76.7654 231.507 76.3428 231.507 75.8423C231.507 75.4115 231.589 75.0568 231.755 74.7784C231.921 74.5 232.145 74.2796 232.426 74.1172C232.708 73.9548 233.023 73.8321 233.371 73.7493C233.719 73.6664 234.074 73.6035 234.435 73.5604C234.892 73.5073 235.263 73.4643 235.548 73.4311C235.834 73.3946 236.041 73.3366 236.17 73.2571C236.299 73.1776 236.364 73.0483 236.364 72.8693V72.8345C236.364 72.4003 236.241 72.0639 235.996 71.8253C235.754 71.5866 235.393 71.4673 234.912 71.4673C234.412 71.4673 234.017 71.5784 233.729 71.8004C233.444 72.0192 233.247 72.2628 233.137 72.5312L231.74 72.2131C231.906 71.7491 232.148 71.3745 232.466 71.0895C232.788 70.8011 233.157 70.5923 233.575 70.4631C233.992 70.3305 234.432 70.2642 234.892 70.2642C235.197 70.2642 235.52 70.3007 235.862 70.3736C236.206 70.4432 236.528 70.5724 236.826 70.7614C237.128 70.9503 237.375 71.2204 237.567 71.5717C237.759 71.9197 237.855 72.3722 237.855 72.929V78H236.404V76.956H236.344C236.248 77.1482 236.104 77.3371 235.911 77.5227C235.719 77.7083 235.472 77.8625 235.171 77.9851C234.869 78.1077 234.508 78.169 234.087 78.169ZM234.41 76.9759C234.821 76.9759 235.172 76.8946 235.464 76.7322C235.759 76.5698 235.983 76.3577 236.135 76.0959C236.291 75.8307 236.369 75.5473 236.369 75.2457V74.2614C236.316 74.3144 236.213 74.3641 236.061 74.4105C235.911 74.4536 235.741 74.4917 235.548 74.5249C235.356 74.5547 235.169 74.5829 234.987 74.6094C234.804 74.6326 234.652 74.6525 234.529 74.669C234.241 74.7055 233.977 74.7668 233.739 74.853C233.503 74.9392 233.315 75.0634 233.172 75.2259C233.033 75.3849 232.963 75.5971 232.963 75.8622C232.963 76.2301 233.099 76.5085 233.371 76.6974C233.643 76.883 233.989 76.9759 234.41 76.9759ZM242.694 78.1491C242.077 78.1491 241.527 77.9917 241.043 77.6768C240.563 77.3587 240.185 76.9062 239.91 76.3196C239.638 75.7296 239.502 75.022 239.502 74.1967C239.502 73.3714 239.64 72.6655 239.915 72.0788C240.193 71.4922 240.574 71.0431 241.058 70.7315C241.542 70.42 242.091 70.2642 242.704 70.2642C243.178 70.2642 243.559 70.3438 243.847 70.5028C244.139 70.6586 244.364 70.8409 244.523 71.0497C244.686 71.2585 244.812 71.4425 244.901 71.6016H244.991V67.8182H246.477V78H245.026V76.8118H244.901C244.812 76.9742 244.683 77.1598 244.513 77.3686C244.348 77.5774 244.119 77.7597 243.827 77.9155C243.536 78.0713 243.158 78.1491 242.694 78.1491ZM243.022 76.8814C243.45 76.8814 243.811 76.7687 244.106 76.5433C244.404 76.3146 244.629 75.9981 244.782 75.5938C244.938 75.1894 245.016 74.7187 245.016 74.1818C245.016 73.6515 244.939 73.1875 244.787 72.7898C244.634 72.392 244.411 72.0821 244.116 71.8601C243.821 71.638 243.456 71.527 243.022 71.527C242.575 71.527 242.202 71.643 241.903 71.875C241.605 72.107 241.38 72.4235 241.227 72.8246C241.078 73.2256 241.004 73.678 241.004 74.1818C241.004 74.6922 241.08 75.1513 241.232 75.5589C241.385 75.9666 241.61 76.2898 241.908 76.5284C242.21 76.7637 242.581 76.8814 243.022 76.8814Z" fill="#00A85A"/>
<path d="M256.176 78.1591C255.487 78.1591 254.882 77.995 254.362 77.6669C253.844 77.3388 253.44 76.8797 253.148 76.2898C252.86 75.6998 252.716 75.0104 252.716 74.2216C252.716 73.4261 252.86 72.7318 253.148 72.1385C253.44 71.5452 253.844 71.0845 254.362 70.7564C254.882 70.4283 255.487 70.2642 256.176 70.2642C256.866 70.2642 257.469 70.4283 257.986 70.7564C258.506 71.0845 258.911 71.5452 259.199 72.1385C259.491 72.7318 259.636 73.4261 259.636 74.2216C259.636 75.0104 259.491 75.6998 259.199 76.2898C258.911 76.8797 258.506 77.3388 257.986 77.6669C257.469 77.995 256.866 78.1591 256.176 78.1591ZM256.176 77.1051C256.7 77.1051 257.131 76.9709 257.469 76.7024C257.807 76.4339 258.057 76.081 258.219 75.6435C258.382 75.206 258.463 74.732 258.463 74.2216C258.463 73.7112 258.382 73.2356 258.219 72.7947C258.057 72.3539 257.807 71.9976 257.469 71.7259C257.131 71.4541 256.7 71.3182 256.176 71.3182C255.652 71.3182 255.222 71.4541 254.884 71.7259C254.545 71.9976 254.295 72.3539 254.133 72.7947C253.97 73.2356 253.889 73.7112 253.889 74.2216C253.889 74.732 253.97 75.206 254.133 75.6435C254.295 76.081 254.545 76.4339 254.884 76.7024C255.222 76.9709 255.652 77.1051 256.176 77.1051ZM261.427 78V70.3636H262.561V71.517H262.64C262.78 71.1392 263.032 70.8326 263.396 70.5973C263.761 70.362 264.172 70.2443 264.629 70.2443C264.715 70.2443 264.823 70.246 264.952 70.2493C265.081 70.2526 265.179 70.2576 265.246 70.2642V71.4574C265.206 71.4474 265.115 71.4325 264.972 71.4126C264.833 71.3894 264.685 71.3778 264.53 71.3778C264.158 71.3778 263.827 71.4557 263.535 71.6115C263.247 71.764 263.018 71.9761 262.849 72.2479C262.684 72.5163 262.601 72.8229 262.601 73.1676V78H261.427ZM273.457 78.1591C272.821 78.1591 272.259 77.9983 271.772 77.6768C271.285 77.352 270.904 76.8946 270.629 76.3047C270.353 75.7114 270.216 75.0104 270.216 74.2017C270.216 73.3996 270.353 72.7036 270.629 72.1136C270.904 71.5237 271.286 71.0679 271.777 70.7464C272.268 70.425 272.834 70.2642 273.477 70.2642C273.974 70.2642 274.367 70.3471 274.656 70.5128C274.947 70.6752 275.169 70.8608 275.322 71.0696C275.478 71.2751 275.598 71.4441 275.685 71.5767H275.784V67.8182H276.957V78H275.824V76.8267H275.685C275.598 76.9659 275.476 77.1416 275.317 77.3537C275.158 77.5625 274.931 77.7498 274.636 77.9155C274.341 78.0779 273.948 78.1591 273.457 78.1591ZM273.616 77.1051C274.087 77.1051 274.485 76.9825 274.81 76.7372C275.134 76.4886 275.381 76.1456 275.55 75.7081C275.719 75.2673 275.804 74.7585 275.804 74.1818C275.804 73.6117 275.721 73.1129 275.555 72.6854C275.39 72.2545 275.144 71.9197 274.82 71.6811C274.495 71.4392 274.094 71.3182 273.616 71.3182C273.119 71.3182 272.705 71.4458 272.374 71.701C272.045 71.9529 271.799 72.2959 271.633 72.7301C271.47 73.161 271.389 73.6449 271.389 74.1818C271.389 74.7254 271.472 75.2192 271.638 75.6634C271.807 76.1042 272.055 76.4555 272.384 76.7173C272.715 76.9759 273.126 77.1051 273.616 77.1051ZM279.269 78V70.3636H280.403V71.517H280.482C280.621 71.1392 280.873 70.8326 281.238 70.5973C281.603 70.362 282.013 70.2443 282.471 70.2443C282.557 70.2443 282.665 70.246 282.794 70.2493C282.923 70.2526 283.021 70.2576 283.087 70.2642V71.4574C283.048 71.4474 282.956 71.4325 282.814 71.4126C282.675 71.3894 282.527 71.3778 282.371 71.3778C282 71.3778 281.669 71.4557 281.377 71.6115C281.089 71.764 280.86 71.9761 280.691 72.2479C280.525 72.5163 280.442 72.8229 280.442 73.1676V78H279.269ZM286.725 78.179C286.241 78.179 285.802 78.0878 285.408 77.9055C285.013 77.7199 284.7 77.4531 284.468 77.1051C284.236 76.7538 284.12 76.3295 284.12 75.8324C284.12 75.3949 284.206 75.0402 284.379 74.7685C284.551 74.4934 284.781 74.2779 285.07 74.1222C285.358 73.9664 285.676 73.8504 286.024 73.7741C286.376 73.6946 286.729 73.6316 287.083 73.5852C287.547 73.5256 287.923 73.4808 288.212 73.451C288.503 73.4179 288.716 73.3632 288.848 73.2869C288.984 73.2107 289.052 73.0781 289.052 72.8892V72.8494C289.052 72.3589 288.918 71.9777 288.649 71.706C288.384 71.4342 287.981 71.2983 287.441 71.2983C286.881 71.2983 286.442 71.4209 286.124 71.6662C285.806 71.9115 285.582 72.1733 285.453 72.4517L284.339 72.054C284.538 71.59 284.803 71.2287 285.134 70.9702C285.469 70.7083 285.834 70.526 286.228 70.4233C286.626 70.3172 287.017 70.2642 287.401 70.2642C287.647 70.2642 287.928 70.294 288.247 70.3537C288.568 70.41 288.878 70.5277 289.176 70.7067C289.478 70.8857 289.728 71.1558 289.927 71.517C290.126 71.8783 290.225 72.3622 290.225 72.9688V78H289.052V76.9659H288.992C288.913 77.1316 288.78 77.3089 288.595 77.4979C288.409 77.6868 288.162 77.8475 287.854 77.9801C287.546 78.1127 287.169 78.179 286.725 78.179ZM286.904 77.125C287.368 77.125 287.759 77.0339 288.078 76.8516C288.399 76.6693 288.641 76.4339 288.803 76.1456C288.969 75.8572 289.052 75.554 289.052 75.2358V74.1619C289.002 74.2216 288.893 74.2763 288.724 74.326C288.558 74.3724 288.366 74.4138 288.147 74.4503C287.932 74.4834 287.721 74.5133 287.516 74.5398C287.314 74.563 287.15 74.5829 287.024 74.5994C286.719 74.6392 286.434 74.7038 286.169 74.7933C285.907 74.8795 285.695 75.0104 285.532 75.1861C285.373 75.3584 285.294 75.5937 285.294 75.892C285.294 76.2997 285.444 76.608 285.746 76.8168C286.051 77.0223 286.437 77.125 286.904 77.125ZM295.449 81.0227C294.882 81.0227 294.395 80.9498 293.988 80.804C293.58 80.6615 293.24 80.4725 292.968 80.2372C292.7 80.0052 292.486 79.7566 292.327 79.4915L293.262 78.8352C293.368 78.9744 293.502 79.1335 293.664 79.3125C293.827 79.4948 294.049 79.6522 294.331 79.7848C294.616 79.9207 294.989 79.9886 295.449 79.9886C296.066 79.9886 296.574 79.8395 296.975 79.5412C297.377 79.2429 297.577 78.7756 297.577 78.1392V76.5881H297.478C297.391 76.7273 297.269 76.8996 297.11 77.1051C296.954 77.3073 296.729 77.4879 296.434 77.647C296.142 77.8028 295.748 77.8807 295.25 77.8807C294.634 77.8807 294.08 77.7348 293.59 77.4432C293.103 77.1515 292.717 76.7273 292.431 76.1705C292.15 75.6136 292.009 74.9375 292.009 74.142C292.009 73.3598 292.146 72.6787 292.422 72.0987C292.697 71.5154 293.079 71.0646 293.57 70.7464C294.06 70.425 294.627 70.2642 295.27 70.2642C295.767 70.2642 296.162 70.3471 296.453 70.5128C296.748 70.6752 296.974 70.8608 297.13 71.0696C297.289 71.2751 297.411 71.4441 297.498 71.5767H297.617V70.3636H298.75V78.2188C298.75 78.875 298.601 79.4086 298.303 79.8196C298.008 80.2339 297.61 80.5372 297.11 80.7294C296.613 80.925 296.059 81.0227 295.449 81.0227ZM295.409 76.8267C295.88 76.8267 296.278 76.719 296.603 76.5036C296.927 76.2881 297.174 75.9782 297.343 75.5739C297.512 75.1695 297.597 74.6856 297.597 74.1222C297.597 73.572 297.514 73.0864 297.348 72.6655C297.183 72.2446 296.937 71.9148 296.613 71.6761C296.288 71.4375 295.887 71.3182 295.409 71.3182C294.912 71.3182 294.498 71.4441 294.167 71.696C293.838 71.9479 293.592 72.286 293.426 72.7102C293.263 73.1345 293.182 73.6051 293.182 74.1222C293.182 74.6525 293.265 75.1214 293.431 75.5291C293.6 75.9335 293.848 76.2517 294.176 76.4837C294.508 76.7124 294.919 76.8267 295.409 76.8267ZM307.083 78.179C306.599 78.179 306.16 78.0878 305.765 77.9055C305.371 77.7199 305.058 77.4531 304.826 77.1051C304.594 76.7538 304.478 76.3295 304.478 75.8324C304.478 75.3949 304.564 75.0402 304.736 74.7685C304.908 74.4934 305.139 74.2779 305.427 74.1222C305.716 73.9664 306.034 73.8504 306.382 73.7741C306.733 73.6946 307.086 73.6316 307.441 73.5852C307.905 73.5256 308.281 73.4808 308.569 73.451C308.861 73.4179 309.073 73.3632 309.206 73.2869C309.342 73.2107 309.409 73.0781 309.409 72.8892V72.8494C309.409 72.3589 309.275 71.9777 309.007 71.706C308.742 71.4342 308.339 71.2983 307.799 71.2983C307.239 71.2983 306.799 71.4209 306.481 71.6662C306.163 71.9115 305.939 72.1733 305.81 72.4517L304.696 72.054C304.895 71.59 305.16 71.2287 305.492 70.9702C305.827 70.7083 306.191 70.526 306.586 70.4233C306.983 70.3172 307.374 70.2642 307.759 70.2642C308.004 70.2642 308.286 70.294 308.604 70.3537C308.926 70.41 309.235 70.5277 309.534 70.7067C309.835 70.8857 310.086 71.1558 310.284 71.517C310.483 71.8783 310.583 72.3622 310.583 72.9688V78H309.409V76.9659H309.35C309.27 77.1316 309.138 77.3089 308.952 77.4979C308.766 77.6868 308.52 77.8475 308.211 77.9801C307.903 78.1127 307.527 78.179 307.083 78.179ZM307.262 77.125C307.726 77.125 308.117 77.0339 308.435 76.8516C308.757 76.6693 308.998 76.4339 309.161 76.1456C309.327 75.8572 309.409 75.554 309.409 75.2358V74.1619C309.36 74.2216 309.25 74.2763 309.081 74.326C308.916 74.3724 308.723 74.4138 308.505 74.4503C308.289 74.4834 308.079 74.5133 307.873 74.5398C307.671 74.563 307.507 74.5829 307.381 74.5994C307.076 74.6392 306.791 74.7038 306.526 74.7933C306.264 74.8795 306.052 75.0104 305.89 75.1861C305.73 75.3584 305.651 75.5937 305.651 75.892C305.651 76.2997 305.802 76.608 306.103 76.8168C306.408 77.0223 306.794 77.125 307.262 77.125ZM313.898 73.4062V78H312.724V70.3636H313.858V71.5568H313.957C314.136 71.169 314.408 70.8575 314.773 70.6222C315.137 70.3835 315.608 70.2642 316.184 70.2642C316.702 70.2642 317.154 70.3703 317.542 70.5824C317.93 70.7912 318.231 71.1094 318.447 71.5369C318.662 71.9612 318.77 72.4981 318.77 73.1477V78H317.596V73.2273C317.596 72.6274 317.441 72.16 317.129 71.8253C316.818 71.4872 316.39 71.3182 315.846 71.3182C315.472 71.3182 315.137 71.3994 314.842 71.5618C314.55 71.7242 314.32 71.9612 314.151 72.2727C313.982 72.5843 313.898 72.9621 313.898 73.4062ZM323.797 78.1591C323.161 78.1591 322.599 77.9983 322.112 77.6768C321.625 77.352 321.243 76.8946 320.968 76.3047C320.693 75.7114 320.556 75.0104 320.556 74.2017C320.556 73.3996 320.693 72.7036 320.968 72.1136C321.243 71.5237 321.626 71.0679 322.117 70.7464C322.607 70.425 323.174 70.2642 323.817 70.2642C324.314 70.2642 324.707 70.3471 324.995 70.5128C325.287 70.6752 325.509 70.8608 325.662 71.0696C325.817 71.2751 325.938 71.4441 326.025 71.5767H326.124V67.8182H327.297V78H326.164V76.8267H326.025C325.938 76.9659 325.816 77.1416 325.657 77.3537C325.498 77.5625 325.27 77.7498 324.975 77.9155C324.681 78.0779 324.288 78.1591 323.797 78.1591ZM323.956 77.1051C324.427 77.1051 324.825 76.9825 325.15 76.7372C325.474 76.4886 325.721 76.1456 325.89 75.7081C326.059 75.2673 326.144 74.7585 326.144 74.1818C326.144 73.6117 326.061 73.1129 325.895 72.6854C325.73 72.2545 325.484 71.9197 325.159 71.6811C324.835 71.4392 324.434 71.3182 323.956 71.3182C323.459 71.3182 323.045 71.4458 322.713 71.701C322.385 71.9529 322.138 72.2959 321.973 72.7301C321.81 73.161 321.729 73.6449 321.729 74.1818C321.729 74.7254 321.812 75.2192 321.978 75.6634C322.147 76.1042 322.395 76.4555 322.723 76.7173C323.055 76.9759 323.466 77.1051 323.956 77.1051ZM336.43 78.1591C335.794 78.1591 335.232 77.9983 334.745 77.6768C334.257 77.352 333.876 76.8946 333.601 76.3047C333.326 75.7114 333.189 75.0104 333.189 74.2017C333.189 73.3996 333.326 72.7036 333.601 72.1136C333.876 71.5237 334.259 71.0679 334.75 70.7464C335.24 70.425 335.807 70.2642 336.45 70.2642C336.947 70.2642 337.34 70.3471 337.628 70.5128C337.92 70.6752 338.142 70.8608 338.294 71.0696C338.45 71.2751 338.571 71.4441 338.657 71.5767H338.757V67.8182H339.93V78H338.797V76.8267H338.657C338.571 76.9659 338.449 77.1416 338.289 77.3537C338.13 77.5625 337.903 77.7498 337.608 77.9155C337.313 78.0779 336.921 78.1591 336.43 78.1591ZM336.589 77.1051C337.06 77.1051 337.458 76.9825 337.782 76.7372C338.107 76.4886 338.354 76.1456 338.523 75.7081C338.692 75.2673 338.777 74.7585 338.777 74.1818C338.777 73.6117 338.694 73.1129 338.528 72.6854C338.362 72.2545 338.117 71.9197 337.792 71.6811C337.467 71.4392 337.066 71.3182 336.589 71.3182C336.092 71.3182 335.678 71.4458 335.346 71.701C335.018 71.9529 334.771 72.2959 334.605 72.7301C334.443 73.161 334.362 73.6449 334.362 74.1818C334.362 74.7254 334.445 75.2192 334.61 75.6634C334.779 76.1042 335.028 76.4555 335.356 76.7173C335.688 76.9759 336.099 77.1051 336.589 77.1051ZM342.242 78V70.3636H343.375V71.517H343.455C343.594 71.1392 343.846 70.8326 344.211 70.5973C344.575 70.362 344.986 70.2443 345.444 70.2443C345.53 70.2443 345.637 70.246 345.767 70.2493C345.896 70.2526 345.994 70.2576 346.06 70.2642V71.4574C346.02 71.4474 345.929 71.4325 345.787 71.4126C345.647 71.3894 345.5 71.3778 345.344 71.3778C344.973 71.3778 344.641 71.4557 344.35 71.6115C344.061 71.764 343.833 71.9761 343.664 72.2479C343.498 72.5163 343.415 72.8229 343.415 73.1676V78H342.242ZM350.321 78.1591C349.631 78.1591 349.026 77.995 348.506 77.6669C347.989 77.3388 347.585 76.8797 347.293 76.2898C347.005 75.6998 346.86 75.0104 346.86 74.2216C346.86 73.4261 347.005 72.7318 347.293 72.1385C347.585 71.5452 347.989 71.0845 348.506 70.7564C349.026 70.4283 349.631 70.2642 350.321 70.2642C351.01 70.2642 351.613 70.4283 352.13 70.7564C352.651 71.0845 353.055 71.5452 353.343 72.1385C353.635 72.7318 353.781 73.4261 353.781 74.2216C353.781 75.0104 353.635 75.6998 353.343 76.2898C353.055 76.8797 352.651 77.3388 352.13 77.6669C351.613 77.995 351.01 78.1591 350.321 78.1591ZM350.321 77.1051C350.844 77.1051 351.275 76.9709 351.613 76.7024C351.951 76.4339 352.202 76.081 352.364 75.6435C352.526 75.206 352.608 74.732 352.608 74.2216C352.608 73.7112 352.526 73.2356 352.364 72.7947C352.202 72.3539 351.951 71.9976 351.613 71.7259C351.275 71.4541 350.844 71.3182 350.321 71.3182C349.797 71.3182 349.366 71.4541 349.028 71.7259C348.69 71.9976 348.44 72.3539 348.277 72.7947C348.115 73.2356 348.034 73.7112 348.034 74.2216C348.034 74.732 348.115 75.206 348.277 75.6435C348.44 76.081 348.69 76.4339 349.028 76.7024C349.366 76.9709 349.797 77.1051 350.321 77.1051ZM355.572 80.8636V70.3636H356.705V71.5767H356.845C356.931 71.4441 357.05 71.2751 357.203 71.0696C357.358 70.8608 357.58 70.6752 357.869 70.5128C358.16 70.3471 358.555 70.2642 359.052 70.2642C359.695 70.2642 360.262 70.425 360.752 70.7464C361.243 71.0679 361.626 71.5237 361.901 72.1136C362.176 72.7036 362.313 73.3996 362.313 74.2017C362.313 75.0104 362.176 75.7114 361.901 76.3047C361.626 76.8946 361.244 77.352 360.757 77.6768C360.27 77.9983 359.708 78.1591 359.072 78.1591C358.581 78.1591 358.189 78.0779 357.894 77.9155C357.599 77.7498 357.372 77.5625 357.213 77.3537C357.053 77.1416 356.931 76.9659 356.845 76.8267H356.745V80.8636H355.572ZM356.725 74.1818C356.725 74.7585 356.81 75.2673 356.979 75.7081C357.148 76.1456 357.395 76.4886 357.72 76.7372C358.044 76.9825 358.442 77.1051 358.913 77.1051C359.403 77.1051 359.813 76.9759 360.141 76.7173C360.472 76.4555 360.721 76.1042 360.887 75.6634C361.056 75.2192 361.14 74.7254 361.14 74.1818C361.14 73.6449 361.057 73.161 360.892 72.7301C360.729 72.2959 360.482 71.9529 360.151 71.701C359.823 71.4458 359.41 71.3182 358.913 71.3182C358.436 71.3182 358.035 71.4392 357.71 71.6811C357.385 71.9197 357.14 72.2545 356.974 72.6854C356.808 73.1129 356.725 73.6117 356.725 74.1818Z" fill="#667085"/>
<path d="M178.149 100V91.2727H181.097C181.782 91.2727 182.342 91.3963 182.776 91.6435C183.214 91.8878 183.538 92.2188 183.748 92.6364C183.958 93.054 184.063 93.5199 184.063 94.0341C184.063 94.5483 183.958 95.0156 183.748 95.4361C183.541 95.8565 183.22 96.1918 182.785 96.4418C182.35 96.6889 181.794 96.8125 181.115 96.8125H179.001V95.875H181.08C181.549 95.875 181.926 95.794 182.21 95.6321C182.494 95.4702 182.7 95.2514 182.828 94.9759C182.958 94.6974 183.024 94.3835 183.024 94.0341C183.024 93.6847 182.958 93.3722 182.828 93.0966C182.7 92.821 182.492 92.6051 182.205 92.4489C181.919 92.2898 181.538 92.2102 181.063 92.2102H179.205V100H178.149ZM188.459 100H185.766V91.2727H188.578C189.425 91.2727 190.149 91.4474 190.752 91.7969C191.354 92.1435 191.816 92.642 192.137 93.2926C192.458 93.9403 192.618 94.7159 192.618 95.6193C192.618 96.5284 192.456 97.3111 192.132 97.9673C191.808 98.6207 191.337 99.1236 190.718 99.4759C190.098 99.8253 189.345 100 188.459 100ZM186.823 99.0625H188.391C189.112 99.0625 189.71 98.9233 190.185 98.6449C190.659 98.3665 191.013 97.9702 191.246 97.456C191.479 96.9418 191.595 96.3295 191.595 95.6193C191.595 94.9148 191.48 94.3082 191.25 93.7997C191.02 93.2884 190.676 92.8963 190.219 92.6236C189.762 92.348 189.192 92.2102 188.51 92.2102H186.823V99.0625ZM194.391 100V91.2727H199.624V92.2102H195.448V95.1591H199.232V96.0966H195.448V100H194.391ZM202.317 98.8068L202.249 99.267C202.2 99.5909 202.127 99.9375 202.027 100.307C201.931 100.676 201.83 101.024 201.725 101.351C201.619 101.678 201.533 101.938 201.465 102.131H200.698C200.735 101.949 200.783 101.709 200.843 101.411C200.902 101.112 200.962 100.778 201.021 100.409C201.084 100.043 201.135 99.6676 201.175 99.2841L201.226 98.8068H202.317ZM207.692 100V91.2727H210.64C211.325 91.2727 211.885 91.3963 212.319 91.6435C212.757 91.8878 213.081 92.2188 213.291 92.6364C213.501 93.054 213.606 93.5199 213.606 94.0341C213.606 94.5483 213.501 95.0156 213.291 95.4361C213.084 95.8565 212.763 96.1918 212.328 96.4418C211.893 96.6889 211.336 96.8125 210.657 96.8125H208.544V95.875H210.623C211.092 95.875 211.469 95.794 211.753 95.6321C212.037 95.4702 212.243 95.2514 212.371 94.9759C212.501 94.6974 212.567 94.3835 212.567 94.0341C212.567 93.6847 212.501 93.3722 212.371 93.0966C212.243 92.821 212.035 92.6051 211.748 92.4489C211.461 92.2898 211.081 92.2102 210.606 92.2102H208.748V100H207.692ZM222.229 91.2727V100H221.206L216.451 93.1477H216.366V100H215.309V91.2727H216.331L221.104 98.142H221.189V91.2727H222.229ZM230.31 94C230.216 93.7131 230.093 93.456 229.939 93.2287C229.789 92.9986 229.608 92.8026 229.398 92.6406C229.191 92.4787 228.955 92.3551 228.691 92.2699C228.426 92.1847 228.137 92.142 227.821 92.142C227.304 92.142 226.834 92.2756 226.411 92.5426C225.987 92.8097 225.651 93.2031 225.401 93.723C225.151 94.2429 225.026 94.8807 225.026 95.6364C225.026 96.392 225.152 97.0298 225.405 97.5497C225.658 98.0696 226 98.4631 226.432 98.7301C226.864 98.9972 227.35 99.1307 227.889 99.1307C228.389 99.1307 228.83 99.0241 229.21 98.8111C229.594 98.5952 229.892 98.2912 230.105 97.8991C230.321 97.5043 230.429 97.0398 230.429 96.5057L230.753 96.5739H228.128V95.6364H231.452V96.5739C231.452 97.2926 231.298 97.9176 230.992 98.4489C230.688 98.9801 230.267 99.392 229.73 99.6847C229.196 99.9744 228.583 100.119 227.889 100.119C227.117 100.119 226.438 99.9375 225.852 99.5739C225.27 99.2102 224.816 98.6932 224.489 98.0227C224.165 97.3523 224.003 96.5568 224.003 95.6364C224.003 94.946 224.095 94.3253 224.28 93.7741C224.468 93.2202 224.732 92.7486 225.073 92.3594C225.414 91.9702 225.817 91.6719 226.283 91.4645C226.749 91.2571 227.262 91.1534 227.821 91.1534C228.281 91.1534 228.71 91.223 229.108 91.3622C229.509 91.4986 229.865 91.6932 230.178 91.946C230.493 92.196 230.756 92.4957 230.966 92.8452C231.176 93.1918 231.321 93.5767 231.401 94H230.31ZM234.626 98.8068L234.557 99.267C234.509 99.5909 234.435 99.9375 234.336 100.307C234.239 100.676 234.138 101.024 234.033 101.351C233.928 101.678 233.841 101.938 233.773 102.131H233.006C233.043 101.949 233.091 101.709 233.151 101.411C233.211 101.112 233.27 100.778 233.33 100.409C233.393 100.043 233.444 99.6676 233.483 99.2841L233.535 98.8068H234.626ZM243.341 91.2727H244.398V97.5114C244.398 98.0682 244.296 98.5412 244.091 98.9304C243.887 99.3196 243.598 99.6151 243.226 99.8168C242.854 100.018 242.415 100.119 241.909 100.119C241.432 100.119 241.007 100.033 240.635 99.8594C240.263 99.6832 239.97 99.4332 239.757 99.1094C239.544 98.7855 239.438 98.4006 239.438 97.9545H240.477C240.477 98.2017 240.539 98.4176 240.661 98.6023C240.786 98.7841 240.956 98.9261 241.172 99.0284C241.388 99.1307 241.634 99.1818 241.909 99.1818C242.213 99.1818 242.472 99.1179 242.685 98.9901C242.898 98.8622 243.06 98.6747 243.171 98.4276C243.284 98.1776 243.341 97.8722 243.341 97.5114V91.2727ZM246.516 100V91.2727H249.465C250.149 91.2727 250.709 91.3963 251.144 91.6435C251.581 91.8878 251.905 92.2188 252.115 92.6364C252.325 93.054 252.431 93.5199 252.431 94.0341C252.431 94.5483 252.325 95.0156 252.115 95.4361C251.908 95.8565 251.587 96.1918 251.152 96.4418C250.718 96.6889 250.161 96.8125 249.482 96.8125H247.368V95.875H249.448C249.916 95.875 250.293 95.794 250.577 95.6321C250.861 95.4702 251.067 95.2514 251.195 94.9759C251.325 94.6974 251.391 94.3835 251.391 94.0341C251.391 93.6847 251.325 93.3722 251.195 93.0966C251.067 92.821 250.86 92.6051 250.573 92.4489C250.286 92.2898 249.905 92.2102 249.431 92.2102H247.573V100H246.516ZM254.133 100V91.2727H259.4V92.2102H255.19V95.1591H259.127V96.0966H255.19V99.0625H259.468V100H254.133ZM267.271 94C267.177 93.7131 267.053 93.456 266.9 93.2287C266.749 92.9986 266.569 92.8026 266.359 92.6406C266.151 92.4787 265.916 92.3551 265.651 92.2699C265.387 92.1847 265.097 92.142 264.782 92.142C264.265 92.142 263.795 92.2756 263.372 92.5426C262.948 92.8097 262.612 93.2031 262.362 93.723C262.112 94.2429 261.987 94.8807 261.987 95.6364C261.987 96.392 262.113 97.0298 262.366 97.5497C262.619 98.0696 262.961 98.4631 263.393 98.7301C263.825 98.9972 264.311 99.1307 264.85 99.1307C265.35 99.1307 265.791 99.0241 266.171 98.8111C266.555 98.5952 266.853 98.2912 267.066 97.8991C267.282 97.5043 267.39 97.0398 267.39 96.5057L267.714 96.5739H265.089V95.6364H268.413V96.5739C268.413 97.2926 268.259 97.9176 267.953 98.4489C267.649 98.9801 267.228 99.392 266.691 99.6847C266.157 99.9744 265.544 100.119 264.85 100.119C264.078 100.119 263.399 99.9375 262.813 99.5739C262.231 99.2102 261.776 98.6932 261.45 98.0227C261.126 97.3523 260.964 96.5568 260.964 95.6364C260.964 94.946 261.056 94.3253 261.241 93.7741C261.428 93.2202 261.693 92.7486 262.034 92.3594C262.374 91.9702 262.778 91.6719 263.244 91.4645C263.71 91.2571 264.222 91.1534 264.782 91.1534C265.242 91.1534 265.671 91.223 266.069 91.3622C266.47 91.4986 266.826 91.6932 267.139 91.946C267.454 92.196 267.717 92.4957 267.927 92.8452C268.137 93.1918 268.282 93.5767 268.362 94H267.271ZM273.819 96.3182C273.819 95.2443 273.959 94.2571 274.237 93.3565C274.518 92.4531 274.919 91.6222 275.439 90.8636H276.325C276.121 91.1449 275.929 91.4915 275.75 91.9034C275.574 92.3125 275.419 92.7628 275.285 93.2543C275.152 93.7429 275.047 94.2486 274.97 94.7713C274.896 95.294 274.859 95.8097 274.859 96.3182C274.859 96.9943 274.925 97.6804 275.055 98.3764C275.186 99.0724 275.362 99.7187 275.584 100.315C275.805 100.912 276.052 101.398 276.325 101.773H275.439C274.919 101.014 274.518 100.185 274.237 99.2841C273.959 98.3807 273.819 97.392 273.819 96.3182ZM277.809 100V93.4545H278.781V94.4773H278.866C279.002 94.1278 279.222 93.8565 279.526 93.6634C279.83 93.4673 280.195 93.3693 280.622 93.3693C281.053 93.3693 281.413 93.4673 281.7 93.6634C281.99 93.8565 282.215 94.1278 282.377 94.4773H282.445C282.613 94.1392 282.865 93.8707 283.2 93.6719C283.535 93.4702 283.937 93.3693 284.406 93.3693C284.991 93.3693 285.47 93.5526 285.842 93.919C286.214 94.2827 286.4 94.8494 286.4 95.6193V100H285.394V95.6193C285.394 95.1364 285.262 94.7912 284.998 94.5838C284.734 94.3764 284.423 94.2727 284.065 94.2727C283.605 94.2727 283.248 94.4119 282.995 94.6903C282.742 94.9659 282.616 95.3153 282.616 95.7386V100H281.593V95.517C281.593 95.1449 281.472 94.8452 281.231 94.6179C280.99 94.3878 280.678 94.2727 280.298 94.2727C280.036 94.2727 279.792 94.3423 279.565 94.4815C279.34 94.6207 279.159 94.8139 279.019 95.0611C278.883 95.3054 278.815 95.5881 278.815 95.9091V100H277.809ZM290.165 100.153C289.75 100.153 289.374 100.075 289.036 99.919C288.698 99.7599 288.429 99.5312 288.23 99.233C288.031 98.9318 287.932 98.5682 287.932 98.142C287.932 97.767 288.006 97.4631 288.154 97.2301C288.301 96.9943 288.499 96.8097 288.746 96.6761C288.993 96.5426 289.266 96.4432 289.564 96.3778C289.865 96.3097 290.168 96.2557 290.472 96.2159C290.869 96.1648 291.192 96.1264 291.439 96.1009C291.689 96.0724 291.871 96.0256 291.985 95.9602C292.101 95.8949 292.159 95.7812 292.159 95.6193V95.5852C292.159 95.1648 292.044 94.8381 291.814 94.6051C291.587 94.3722 291.242 94.2557 290.779 94.2557C290.298 94.2557 289.922 94.3608 289.649 94.571C289.377 94.7812 289.185 95.0057 289.074 95.2443L288.119 94.9034C288.29 94.5057 288.517 94.196 288.801 93.9744C289.088 93.75 289.401 93.5937 289.739 93.5057C290.08 93.4148 290.415 93.3693 290.744 93.3693C290.955 93.3693 291.196 93.3949 291.469 93.446C291.744 93.4943 292.01 93.5952 292.266 93.7486C292.524 93.902 292.739 94.1335 292.909 94.4432C293.08 94.7528 293.165 95.1676 293.165 95.6875V100H292.159V99.1136H292.108C292.04 99.2557 291.926 99.4077 291.767 99.5696C291.608 99.7315 291.396 99.8693 291.132 99.983C290.868 100.097 290.546 100.153 290.165 100.153ZM290.318 99.25C290.716 99.25 291.051 99.1719 291.324 99.0156C291.6 98.8594 291.807 98.6577 291.946 98.4105C292.088 98.1634 292.159 97.9034 292.159 97.6307V96.7102C292.117 96.7614 292.023 96.8082 291.878 96.8509C291.736 96.8906 291.571 96.9261 291.384 96.9574C291.199 96.9858 291.019 97.0114 290.843 97.0341C290.669 97.054 290.529 97.071 290.421 97.0852C290.159 97.1193 289.915 97.1747 289.688 97.2514C289.463 97.3253 289.281 97.4375 289.142 97.5881C289.006 97.7358 288.938 97.9375 288.938 98.1932C288.938 98.5426 289.067 98.8068 289.325 98.9858C289.587 99.1619 289.918 99.25 290.318 99.25ZM295.751 93.4545L297.319 96.1307L298.887 93.4545H300.046L297.932 96.7273L300.046 100H298.887L297.319 97.4602L295.751 100H294.591L296.671 96.7273L294.591 93.4545H295.751ZM302.214 100.068C302.004 100.068 301.823 99.9929 301.673 99.8423C301.522 99.6918 301.447 99.5114 301.447 99.3011C301.447 99.0909 301.522 98.9105 301.673 98.7599C301.823 98.6094 302.004 98.5341 302.214 98.5341C302.424 98.5341 302.605 98.6094 302.755 98.7599C302.906 98.9105 302.981 99.0909 302.981 99.3011C302.981 99.4403 302.945 99.5682 302.874 99.6847C302.806 99.8011 302.714 99.8949 302.597 99.9659C302.484 100.034 302.356 100.068 302.214 100.068ZM311.212 91.2727V100H310.155V92.3807H310.104L307.973 93.7955V92.7216L310.155 91.2727H311.212ZM313.739 100V93.4545H314.71V94.4773H314.796C314.932 94.1278 315.152 93.8565 315.456 93.6634C315.76 93.4673 316.125 93.3693 316.551 93.3693C316.983 93.3693 317.343 93.4673 317.629 93.6634C317.919 93.8565 318.145 94.1278 318.307 94.4773H318.375C318.543 94.1392 318.794 93.8707 319.129 93.6719C319.465 93.4702 319.867 93.3693 320.335 93.3693C320.921 93.3693 321.399 93.5526 321.771 93.919C322.144 94.2827 322.33 94.8494 322.33 95.6193V100H321.324V95.6193C321.324 95.1364 321.192 94.7912 320.928 94.5838C320.664 94.3764 320.352 94.2727 319.994 94.2727C319.534 94.2727 319.178 94.4119 318.925 94.6903C318.672 94.9659 318.546 95.3153 318.546 95.7386V100H317.523V95.517C317.523 95.1449 317.402 94.8452 317.161 94.6179C316.919 94.3878 316.608 94.2727 316.227 94.2727C315.966 94.2727 315.722 94.3423 315.494 94.4815C315.27 94.6207 315.088 94.8139 314.949 95.0611C314.813 95.3054 314.744 95.5881 314.744 95.9091V100H313.739ZM324.305 100V91.2727H325.311V94.4943H325.396C325.47 94.3807 325.572 94.2358 325.703 94.0597C325.836 93.8807 326.026 93.7216 326.274 93.5824C326.524 93.4403 326.862 93.3693 327.288 93.3693C327.839 93.3693 328.325 93.5071 328.745 93.7827C329.166 94.0582 329.494 94.4489 329.73 94.9545C329.965 95.4602 330.083 96.0568 330.083 96.7443C330.083 97.4375 329.965 98.0384 329.73 98.5469C329.494 99.0526 329.167 99.4446 328.749 99.723C328.332 99.9986 327.85 100.136 327.305 100.136C326.884 100.136 326.548 100.067 326.295 99.9276C326.042 99.7855 325.847 99.625 325.711 99.446C325.575 99.2642 325.47 99.1136 325.396 98.9943H325.276V100H324.305ZM325.294 96.7273C325.294 97.2216 325.366 97.6577 325.511 98.0355C325.656 98.4105 325.867 98.7045 326.146 98.9176C326.424 99.1278 326.765 99.233 327.169 99.233C327.589 99.233 327.94 99.1222 328.221 98.9006C328.505 98.6761 328.718 98.375 328.86 97.9972C329.005 97.6165 329.078 97.1932 329.078 96.7273C329.078 96.267 329.007 95.8523 328.865 95.483C328.725 95.1108 328.514 94.8168 328.23 94.6009C327.948 94.3821 327.595 94.2727 327.169 94.2727C326.759 94.2727 326.416 94.3764 326.137 94.5838C325.859 94.7884 325.649 95.0753 325.507 95.4446C325.365 95.8111 325.294 96.2386 325.294 96.7273ZM333.629 96.3182C333.629 97.392 333.488 98.3807 333.207 99.2841C332.928 100.185 332.529 101.014 332.009 101.773H331.123C331.328 101.491 331.518 101.145 331.694 100.733C331.873 100.324 332.029 99.875 332.163 99.3864C332.296 98.8949 332.4 98.3878 332.474 97.8651C332.551 97.3395 332.589 96.8239 332.589 96.3182C332.589 95.642 332.524 94.956 332.393 94.2599C332.262 93.5639 332.086 92.9176 331.865 92.321C331.643 91.7244 331.396 91.2386 331.123 90.8636H332.009C332.529 91.6222 332.928 92.4531 333.207 93.3565C333.488 94.2571 333.629 95.2443 333.629 96.3182Z" fill="#667085"/>
<rect x="0.5" y="0.5" width="511" height="115" rx="7.5" stroke="#EAECF0" stroke-linecap="round" stroke-dasharray="6 6"/>
<defs>
<clipPath id="clip0_1356_76838">
<rect width="20" height="20" fill="white" transform="translate(246 21)"/>
</clipPath>
</defs>
</svg>
