<svg width="20" height="20" viewBox="0 0 20 20" fill="none" xmlns="http://www.w3.org/2000/svg">
<g id="NG" clip-path="url(#clip0_1397_25800)">
<path id="Vector" d="M10 20C15.5228 20 20 15.5228 20 10C20 4.47715 15.5228 0 10 0C4.47715 0 0 4.47715 0 10C0 15.5228 4.47715 20 10 20Z" fill="#F0F0F0"/>
<g id="Group">
<path id="Vector_2" d="M-0.000335693 10C-0.000335693 14.2997 2.71341 17.9651 6.52142 19.3781V0.62207C2.71341 2.03496 -0.000335693 5.70043 -0.000335693 10Z" fill="#6DA544"/>
<path id="Vector_3" d="M19.9999 10C19.9999 5.70043 17.2862 2.03496 13.4782 0.62207V19.3781C17.2862 17.9651 19.9999 14.2997 19.9999 10Z" fill="#6DA544"/>
</g>
</g>
<defs>
<clipPath id="clip0_1397_25800">
<rect width="20" height="20" fill="white"/>
</clipPath>
</defs>
</svg>
