<svg width="18" height="22" viewBox="0 0 18 22" fill="none" xmlns="http://www.w3.org/2000/svg">
<g id="c#">
<path id="vector" d="M17.771 16.2499C17.9122 15.9963 18 15.7105 18 15.4539V6.54597C18 6.28935 17.9124 6.00363 17.7711 5.75L9 11L17.771 16.2499Z" fill="#7F3A86"/>
<path id="vector_2" d="M9.77942 21.3075L17.2206 16.8535C17.4349 16.7252 17.6298 16.5037 17.771 16.25L9 11L0.229004 16.25C0.370239 16.5037 0.565122 16.7253 0.779416 16.8535L8.22059 21.3075C8.64924 21.5641 9.35077 21.5641 9.77942 21.3075Z" fill="#662579"/>
<path id="vector_3" d="M17.7711 5.74997C17.6298 5.49627 17.4349 5.27472 17.2206 5.14641L9.77941 0.692467C9.35076 0.435844 8.64924 0.435844 8.22059 0.692467L0.779412 5.14641C0.350706 5.40297 0 6.03282 0 6.546V15.4539C0 15.7106 0.0877059 15.9963 0.229 16.25L9 11L17.7711 5.74997Z" fill="#9A5196"/>
<path id="c" d="M9.02887 17C5.70454 17 3 14.3084 3 11C3 7.69159 5.70454 5 9.02887 5C11.1343 5 13.1006 6.10677 14.1893 7.89634L11.6074 9.44485C11.0619 8.55198 10.0799 8 9.02887 8C7.36668 8 6.01444 9.34577 6.01444 11C6.01444 12.6542 7.36668 14 9.02887 14C10.0771 14 11.0566 13.4511 11.603 12.5624L14.1904 14.1019C13.1019 15.8926 11.1351 17 9.02887 17Z" fill="white"/>
<path id="#" fill-rule="evenodd" clip-rule="evenodd" d="M15.75 8.75V9.49802H14.25V8.75H13.5V9.49802H12.75V10.25H13.5V11.7461H12.75V12.5H13.5V13.25H14.25L14.25 12.5H15.75V13.25H16.5V12.5H17.25V11.75H16.5V10.25H17.25V9.49802H16.5V8.75H15.75ZM15.75 11.75V10.25H14.25V11.7461L15.75 11.75Z" fill="white"/>
</g>
</svg>
